<ttFont>
    <TTGlyph name="A" xMin="55" yMin="0" xMax="1413" yMax="1456">
      <contour>
        <pt x="55" y="88" on="1"/>
        <pt x="162" y="96" on="1"/>
        <pt x="679" y="1456" on="1"/>
        <pt x="792" y="1456" on="1"/>
        <pt x="1304" y="96" on="1"/>
        <pt x="1413" y="88" on="1"/>
        <pt x="1413" y="0" on="1"/>
        <pt x="1054" y="0" on="1"/>
        <pt x="1054" y="88" on="1"/>
        <pt x="1181" y="98" on="1"/>
        <pt x="1061" y="424" on="1"/>
        <pt x="407" y="424" on="1"/>
        <pt x="286" y="98" on="1"/>
        <pt x="413" y="88" on="1"/>
        <pt x="413" y="0" on="1"/>
        <pt x="55" y="0" on="1"/>
      </contour>
      <contour>
        <pt x="447" y="531" on="1"/>
        <pt x="1022" y="531" on="1"/>
        <pt x="739" y="1301" on="1"/>
        <pt x="733" y="1301" on="1"/>
      </contour>
    </TTGlyph>
    <TTGlyph name="A.smcp" xMin="39" yMin="0" xMax="1217" yMax="1165">
      <contour>
        <pt x="39" y="88" on="1"/>
        <pt x="136" y="96" on="1"/>
        <pt x="570" y="1165" on="1"/>
        <pt x="688" y="1165" on="1"/>
        <pt x="1120" y="96" on="1"/>
        <pt x="1217" y="88" on="1"/>
        <pt x="1217" y="0" on="1"/>
        <pt x="872" y="0" on="1"/>
        <pt x="872" y="88" on="1"/>
        <pt x="996" y="98" on="1"/>
        <pt x="915" y="304" on="1"/>
        <pt x="342" y="304" on="1"/>
        <pt x="260" y="98" on="1"/>
        <pt x="385" y="88" on="1"/>
        <pt x="385" y="0" on="1"/>
        <pt x="39" y="0" on="1"/>
      </contour>
      <contour>
        <pt x="382" y="405" on="1"/>
        <pt x="875" y="405" on="1"/>
        <pt x="631" y="1019" on="1"/>
        <pt x="625" y="1019" on="1"/>
      </contour>
    </TTGlyph>
    <TTGlyph name="AE" xMin="51" yMin="0" xMax="1928" yMax="1456">
      <contour>
        <pt x="51" y="88" on="1"/>
        <pt x="181" y="98" on="1"/>
        <pt x="1003" y="1456" on="1"/>
        <pt x="1867" y="1456" on="1"/>
        <pt x="1867" y="1149" on="1"/>
        <pt x="1760" y="1149" on="1"/>
        <pt x="1751" y="1354" on="1"/>
        <pt x="1173" y="1354" on="1"/>
        <pt x="1196" y="809" on="1"/>
        <pt x="1785" y="809" on="1"/>
        <pt x="1785" y="707" on="1"/>
        <pt x="1200" y="707" on="1"/>
        <pt x="1226" y="101" on="1"/>
        <pt x="1813" y="101" on="1"/>
        <pt x="1822" y="306" on="1"/>
        <pt x="1928" y="306" on="1"/>
        <pt x="1928" y="0" on="1"/>
        <pt x="948" y="0" on="1"/>
        <pt x="948" y="88" on="1"/>
        <pt x="1106" y="100" on="1"/>
        <pt x="1094" y="389" on="1"/>
        <pt x="497" y="389" on="1"/>
        <pt x="325" y="96" on="1"/>
        <pt x="431" y="88" on="1"/>
        <pt x="431" y="0" on="1"/>
        <pt x="51" y="0" on="1"/>
      </contour>
      <contour>
        <pt x="564" y="502" on="1"/>
        <pt x="1090" y="502" on="1"/>
        <pt x="1055" y="1341" on="1"/>
        <pt x="1049" y="1342" on="1"/>
        <pt x="1034" y="1298" on="1"/>
      </contour>
    </TTGlyph>
    <TTGlyph name="AEacute" xMin="51" yMin="0" xMax="1928" yMax="1817">
      <component glyphName="AE" x="0" y="0" flags="0x204"/>
      <component glyphName="acute" x="915" y="339" flags="0x4"/>
    </TTGlyph>
    <TTGlyph name="Aacute" xMin="55" yMin="0" xMax="1413" yMax="1816">
      <component glyphName="A" x="0" y="0" flags="0x204"/>
      <component glyphName="acute" x="542" y="338" flags="0x4"/>
    </TTGlyph>
    <TTGlyph name="Aacute.smcp" xMin="39" yMin="0" xMax="1217" yMax="1495">
      <component glyphName="A.smcp" x="0" y="0" flags="0x204"/>
      <component glyphName="acute" x="431" y="17" flags="0x4"/>
    </TTGlyph>
    <TTGlyph name="Abreve" xMin="55" yMin="0" xMax="1413" yMax="1833">
      <component glyphName="A" x="0" y="0" flags="0x204"/>
      <component glyphName="breve" x="322" y="377" flags="0x4"/>
    </TTGlyph>
    <TTGlyph name="Abreve.smcp" xMin="39" yMin="0" xMax="1217" yMax="1512">
      <component glyphName="A.smcp" x="0" y="0" flags="0x204"/>
      <component glyphName="breve" x="211" y="56" flags="0x4"/>
    </TTGlyph>
    <TTGlyph name="Acircumflex" xMin="55" yMin="0" xMax="1413" yMax="1835">
      <component glyphName="A" x="0" y="0" flags="0x204"/>
      <component glyphName="circumflex" x="355" y="341" flags="0x4"/>
    </TTGlyph>
    <TTGlyph name="Acircumflex.smcp" xMin="39" yMin="0" xMax="1217" yMax="1514">
      <component glyphName="A.smcp" x="0" y="0" flags="0x204"/>
      <component glyphName="circumflex" x="244" y="20" flags="0x4"/>
    </TTGlyph>
    <TTGlyph name="Adieresis" xMin="55" yMin="0" xMax="1413" yMax="1796">
      <component glyphName="A" x="0" y="0" flags="0x204"/>
      <component glyphName="dieresis" x="254" y="340" flags="0x4"/>
    </TTGlyph>
    <TTGlyph name="Adieresis.smcp" xMin="39" yMin="0" xMax="1217" yMax="1475">
      <component glyphName="A.smcp" x="0" y="0" flags="0x204"/>
      <component glyphName="dieresis" x="143" y="19" flags="0x4"/>
    </TTGlyph>
    <TTGlyph name="Agrave" xMin="55" yMin="0" xMax="1413" yMax="1831">
      <component glyphName="A" x="0" y="0" flags="0x204"/>
      <component glyphName="grave" x="360" y="355" flags="0x4"/>
    </TTGlyph>
    <TTGlyph name="Agrave.smcp" xMin="39" yMin="0" xMax="1217" yMax="1510">
      <component glyphName="A.smcp" x="0" y="0" flags="0x204"/>
      <component glyphName="grave" x="249" y="34" flags="0x4"/>
    </TTGlyph>
    <TTGlyph name="Alpha" xMin="55" yMin="0" xMax="1413" yMax="1456">
      <component glyphName="A" x="0" y="0" flags="0x204"/>
    </TTGlyph>
    <TTGlyph name="Alphatonos" xMin="55" yMin="0" xMax="1413" yMax="1617">
      <component glyphName="A" x="0" y="0" flags="0x204"/>
      <component glyphName="tonos" x="24" y="0" flags="0x4"/>
    </TTGlyph>
    <TTGlyph name="Amacron" xMin="55" yMin="0" xMax="1413" yMax="1789">
      <component glyphName="A" x="0" y="0" flags="0x204"/>
      <component glyphName="macron" x="250" y="333" flags="0x4"/>
    </TTGlyph>
    <TTGlyph name="Amacron.smcp" xMin="39" yMin="0" xMax="1217" yMax="1468">
      <component glyphName="A.smcp" x="0" y="0" flags="0x204"/>
      <component glyphName="macron" x="139" y="12" flags="0x4"/>
    </TTGlyph>
    <TTGlyph name="Aogonek" xMin="55" yMin="-392" xMax="1483" yMax="1456">
      <component glyphName="A" x="0" y="0" flags="0x204"/>
      <component glyphName="ogonek" x="1104" y="0" flags="0x4"/>
    </TTGlyph>
    <TTGlyph name="Aogonek.smcp" xMin="39" yMin="-392" xMax="1287" yMax="1165">
      <component glyphName="A.smcp" x="0" y="0" flags="0x204"/>
      <component glyphName="ogonek" x="908" y="0" flags="0x4"/>
    </TTGlyph>
    <TTGlyph name="Aring" xMin="55" yMin="0" xMax="1413" yMax="1906">
      <component glyphName="A" x="0" y="0" flags="0x204"/>
      <component glyphName="ring" x="429" y="416" flags="0x4"/>
    </TTGlyph>
    <TTGlyph name="Aring.smcp" xMin="39" yMin="0" xMax="1217" yMax="1585">
      <component glyphName="A.smcp" x="0" y="0" flags="0x204"/>
      <component glyphName="ring" x="318" y="95" flags="0x4"/>
    </TTGlyph>
    <TTGlyph name="Aringacute" xMin="55" yMin="0" xMax="1413" yMax="1939">
      <component glyphName="A" x="0" y="0" flags="0x204"/>
      <component glyphName="ringacute" x="439" y="265" flags="0x4"/>
    </TTGlyph>
    <TTGlyph name="Aringacute.smcp" xMin="39" yMin="0" xMax="1217" yMax="1619">
      <component glyphName="A.smcp" x="0" y="0" flags="0x204"/>
      <component glyphName="ringacute" x="328" y="-55" flags="0x4"/>
    </TTGlyph>
    <TTGlyph name="Atilde" xMin="55" yMin="0" xMax="1413" yMax="1840">
      <component glyphName="A" x="0" y="0" flags="0x204"/>
      <component glyphName="tilde" x="286" y="339" flags="0x4"/>
    </TTGlyph>
    <TTGlyph name="Atilde.smcp" xMin="39" yMin="0" xMax="1217" yMax="1519">
      <component glyphName="A.smcp" x="0" y="0" flags="0x204"/>
      <component glyphName="tilde" x="175" y="18" flags="0x4"/>
    </TTGlyph>
    <TTGlyph name="B" xMin="71" yMin="0" xMax="1202" yMax="1456">
      <contour>
        <pt x="659" y="1456" on="1"/>
        <pt x="886" y="1456" on="0"/>
        <pt x="1139" y="1265" on="0"/>
        <pt x="1139" y="1073" on="1"/>
        <pt x="1139" y="961" on="0"/>
        <pt x="1012" y="795" on="0"/>
        <pt x="903" y="763" on="1"/>
        <pt x="1036" y="739" on="0"/>
        <pt x="1202" y="537" on="0"/>
        <pt x="1202" y="405" on="1"/>
        <pt x="1202" y="210" on="0"/>
        <pt x="949" y="0" on="0"/>
        <pt x="737" y="0" on="1"/>
        <pt x="71" y="0" on="1"/>
        <pt x="71" y="88" on="1"/>
        <pt x="234" y="101" on="1"/>
        <pt x="234" y="1354" on="1"/>
        <pt x="71" y="1367" on="1"/>
        <pt x="71" y="1456" on="1"/>
        <pt x="234" y="1456" on="1"/>
      </contour>
      <contour>
        <pt x="353" y="702" on="1"/>
        <pt x="353" y="101" on="1"/>
        <pt x="737" y="101" on="1"/>
        <pt x="898" y="101" on="0"/>
        <pt x="1082" y="260" on="0"/>
        <pt x="1082" y="403" on="1"/>
        <pt x="1082" y="534" on="0"/>
        <pt x="915" y="702" on="0"/>
        <pt x="756" y="702" on="1"/>
      </contour>
      <contour>
        <pt x="353" y="803" on="1"/>
        <pt x="688" y="803" on="1"/>
        <pt x="846" y="803" on="0"/>
        <pt x="1019" y="942" on="0"/>
        <pt x="1019" y="1077" on="1"/>
        <pt x="1019" y="1215" on="0"/>
        <pt x="835" y="1354" on="0"/>
        <pt x="659" y="1354" on="1"/>
        <pt x="353" y="1354" on="1"/>
      </contour>
    </TTGlyph>
    <TTGlyph name="B.smcp" xMin="61" yMin="0" xMax="1065" yMax="1165">
      <contour>
        <pt x="597" y="1165" on="1"/>
        <pt x="799" y="1165" on="0"/>
        <pt x="1023" y="1011" on="0"/>
        <pt x="1023" y="856" on="1"/>
        <pt x="1023" y="765" on="0"/>
        <pt x="920" y="627" on="0"/>
        <pt x="827" y="598" on="1"/>
        <pt x="935" y="577" on="0"/>
        <pt x="1065" y="422" on="0"/>
        <pt x="1065" y="321" on="1"/>
        <pt x="1065" y="164" on="0"/>
        <pt x="851" y="0" on="0"/>
        <pt x="666" y="0" on="1"/>
        <pt x="61" y="0" on="1"/>
        <pt x="61" y="88" on="1"/>
        <pt x="224" y="101" on="1"/>
        <pt x="224" y="1063" on="1"/>
        <pt x="61" y="1076" on="1"/>
        <pt x="61" y="1165" on="1"/>
        <pt x="224" y="1165" on="1"/>
      </contour>
      <contour>
        <pt x="344" y="543" on="1"/>
        <pt x="344" y="100" on="1"/>
        <pt x="666" y="100" on="1"/>
        <pt x="800" y="100" on="0"/>
        <pt x="946" y="215" on="0"/>
        <pt x="946" y="323" on="1"/>
        <pt x="946" y="423" on="0"/>
        <pt x="798" y="543" on="0"/>
        <pt x="666" y="543" on="1"/>
      </contour>
      <contour>
        <pt x="344" y="638" on="1"/>
        <pt x="612" y="638" on="1"/>
        <pt x="754" y="640" on="0"/>
        <pt x="903" y="749" on="0"/>
        <pt x="903" y="852" on="1"/>
        <pt x="903" y="959" on="0"/>
        <pt x="751" y="1055" on="0"/>
        <pt x="597" y="1055" on="1"/>
        <pt x="344" y="1055" on="1"/>
      </contour>
    </TTGlyph>
    <TTGlyph name="Beta" xMin="71" yMin="0" xMax="1202" yMax="1456">
      <component glyphName="B" x="0" y="0" flags="0x204"/>
    </TTGlyph>
    <TTGlyph name="C" xMin="103" yMin="-21" xMax="1230" yMax="1477">
      <contour>
        <pt x="1230" y="1000" on="1"/>
        <pt x="1137" y="1000" on="1"/>
        <pt x="1120" y="1221" on="1"/>
        <pt x="1062" y="1290" on="0"/>
        <pt x="876" y="1375" on="0"/>
        <pt x="754" y="1375" on="1"/>
        <pt x="510" y="1375" on="0"/>
        <pt x="222" y="1020" on="0"/>
        <pt x="222" y="739" on="1"/>
        <pt x="222" y="718" on="1"/>
        <pt x="222" y="437" on="0"/>
        <pt x="507" y="80" on="0"/>
        <pt x="739" y="80" on="1"/>
        <pt x="862" y="80" on="0"/>
        <pt x="1063" y="166" on="0"/>
        <pt x="1120" y="234" on="1"/>
        <pt x="1137" y="455" on="1"/>
        <pt x="1230" y="455" on="1"/>
        <pt x="1230" y="199" on="1"/>
        <pt x="1162" y="105" on="0"/>
        <pt x="901" y="-21" on="0"/>
        <pt x="739" y="-21" on="1"/>
        <pt x="459" y="-21" on="0"/>
        <pt x="103" y="394" on="0"/>
        <pt x="103" y="718" on="1"/>
        <pt x="103" y="737" on="1"/>
        <pt x="103" y="1062" on="0"/>
        <pt x="458" y="1477" on="0"/>
        <pt x="745" y="1477" on="1"/>
        <pt x="907" y="1477" on="0"/>
        <pt x="1162" y="1350" on="0"/>
        <pt x="1230" y="1256" on="1"/>
      </contour>
    </TTGlyph>
    <TTGlyph name="C.smcp" xMin="115" yMin="-17" xMax="1023" yMax="1181">
      <contour>
        <pt x="1016" y="369" on="1"/>
        <pt x="1018" y="363" on="1"/>
        <pt x="1022" y="179" on="0"/>
        <pt x="785" y="-17" on="0"/>
        <pt x="586" y="-17" on="1"/>
        <pt x="375" y="-17" on="0"/>
        <pt x="115" y="266" on="0"/>
        <pt x="115" y="505" on="1"/>
        <pt x="115" y="650" on="1"/>
        <pt x="115" y="892" on="0"/>
        <pt x="375" y="1181" on="0"/>
        <pt x="586" y="1181" on="1"/>
        <pt x="788" y="1181" on="0"/>
        <pt x="1023" y="985" on="0"/>
        <pt x="1019" y="802" on="1"/>
        <pt x="1016" y="796" on="1"/>
        <pt x="905" y="796" on="1"/>
        <pt x="905" y="936" on="0"/>
        <pt x="739" y="1080" on="0"/>
        <pt x="586" y="1080" on="1"/>
        <pt x="427" y="1080" on="0"/>
        <pt x="234" y="845" on="0"/>
        <pt x="234" y="651" on="1"/>
        <pt x="234" y="505" on="1"/>
        <pt x="234" y="313" on="0"/>
        <pt x="427" y="84" on="0"/>
        <pt x="586" y="84" on="1"/>
        <pt x="739" y="84" on="0"/>
        <pt x="904" y="224" on="0"/>
        <pt x="904" y="369" on="1"/>
      </contour>
    </TTGlyph>
    <TTGlyph name="C.ss03" xMin="114" yMin="-21" xMax="1169" yMax="1477">
      <contour>
        <pt x="1169" y="939" on="1"/>
        <pt x="1067" y="939" on="1"/>
        <pt x="1041" y="1212" on="1"/>
        <pt x="985" y="1285" on="0"/>
        <pt x="802" y="1375" on="0"/>
        <pt x="684" y="1375" on="1"/>
        <pt x="476" y="1375" on="0"/>
        <pt x="233" y="1081" on="0"/>
        <pt x="233" y="848" on="1"/>
        <pt x="233" y="609" on="1"/>
        <pt x="233" y="376" on="0"/>
        <pt x="469" y="80" on="0"/>
        <pt x="660" y="80" on="1"/>
        <pt x="781" y="80" on="0"/>
        <pt x="977" y="171" on="0"/>
        <pt x="1032" y="245" on="1"/>
        <pt x="1058" y="500" on="1"/>
        <pt x="1151" y="500" on="1"/>
        <pt x="1151" y="210" on="1"/>
        <pt x="1084" y="111" on="0"/>
        <pt x="822" y="-21" on="0"/>
        <pt x="660" y="-21" on="1"/>
        <pt x="417" y="-21" on="0"/>
        <pt x="114" y="331" on="0"/>
        <pt x="114" y="609" on="1"/>
        <pt x="114" y="846" on="1"/>
        <pt x="114" y="1125" on="0"/>
        <pt x="419" y="1477" on="0"/>
        <pt x="675" y="1477" on="1"/>
        <pt x="839" y="1477" on="0"/>
        <pt x="1100" y="1350" on="0"/>
        <pt x="1169" y="1256" on="1"/>
      </contour>
    </TTGlyph>
    <TTGlyph name="C.ss04" xMin="114" yMin="-21" xMax="1178" yMax="1477">
      <contour>
        <pt x="1176" y="455" on="1"/>
        <pt x="1178" y="449" on="1"/>
        <pt x="1159" y="230" on="0"/>
        <pt x="884" y="-21" on="0"/>
        <pt x="655" y="-21" on="1"/>
        <pt x="412" y="-21" on="0"/>
        <pt x="114" y="330" on="0"/>
        <pt x="114" y="609" on="1"/>
        <pt x="114" y="846" on="1"/>
        <pt x="114" y="1124" on="0"/>
        <pt x="412" y="1477" on="0"/>
        <pt x="655" y="1477" on="1"/>
        <pt x="886" y="1477" on="0"/>
        <pt x="1159" y="1231" on="0"/>
        <pt x="1178" y="1008" on="1"/>
        <pt x="1176" y="1002" on="1"/>
        <pt x="1064" y="1002" on="1"/>
        <pt x="1040" y="1183" on="0"/>
        <pt x="839" y="1375" on="0"/>
        <pt x="655" y="1375" on="1"/>
        <pt x="464" y="1375" on="0"/>
        <pt x="233" y="1080" on="0"/>
        <pt x="233" y="848" on="1"/>
        <pt x="233" y="609" on="1"/>
        <pt x="233" y="375" on="0"/>
        <pt x="464" y="80" on="0"/>
        <pt x="655" y="80" on="1"/>
        <pt x="839" y="80" on="0"/>
        <pt x="1041" y="268" on="0"/>
        <pt x="1064" y="455" on="1"/>
      </contour>
    </TTGlyph>
    <TTGlyph name="Cacute" xMin="103" yMin="-21" xMax="1230" yMax="1839">
      <component glyphName="C" x="0" y="0" flags="0x204"/>
      <component glyphName="acute" x="546" y="361" flags="0x4"/>
    </TTGlyph>
    <TTGlyph name="Cacute.smcp" xMin="115" yMin="-17" xMax="1023" yMax="1511">
      <component glyphName="C.smcp" x="0" y="0" flags="0x204"/>
      <component glyphName="acute" x="382" y="33" flags="0x4"/>
    </TTGlyph>
    <TTGlyph name="Ccaron" xMin="103" yMin="-21" xMax="1230" yMax="1842">
      <component glyphName="C" x="0" y="0" flags="0x204"/>
      <component glyphName="caron" x="366" y="348" flags="0x4"/>
    </TTGlyph>
    <TTGlyph name="Ccaron.smcp" xMin="115" yMin="-17" xMax="1023" yMax="1514">
      <component glyphName="C.smcp" x="0" y="0" flags="0x204"/>
      <component glyphName="caron" x="202" y="20" flags="0x4"/>
    </TTGlyph>
    <TTGlyph name="Ccedilla" xMin="103" yMin="-438" xMax="1230" yMax="1477">
      <component glyphName="C" x="0" y="0" flags="0x204"/>
      <component glyphName="cedilla" x="537" y="-3" flags="0x4"/>
    </TTGlyph>
    <TTGlyph name="Ccedilla.smcp" xMin="115" yMin="-441" xMax="1023" yMax="1181">
      <component glyphName="C.smcp" x="0" y="0" flags="0x204"/>
      <component glyphName="cedilla" x="377" y="-6" flags="0x4"/>
    </TTGlyph>
    <TTGlyph name="Ccircumflex" xMin="103" yMin="-21" xMax="1230" yMax="1858">
      <component glyphName="C" x="0" y="0" flags="0x204"/>
      <component glyphName="circumflex" x="359" y="364" flags="0x4"/>
    </TTGlyph>
    <TTGlyph name="Ccircumflex.smcp" xMin="115" yMin="-17" xMax="1023" yMax="1530">
      <component glyphName="C.smcp" x="0" y="0" flags="0x204"/>
      <component glyphName="circumflex" x="195" y="36" flags="0x4"/>
    </TTGlyph>
    <TTGlyph name="Chi" xMin="54" yMin="0" xMax="1346" yMax="1456">
      <component glyphName="X" x="0" y="0" flags="0x204"/>
    </TTGlyph>
    <TTGlyph name="D" xMin="71" yMin="0" xMax="1272" yMax="1456">
      <contour>
        <pt x="657" y="1456" on="1"/>
        <pt x="924" y="1456" on="0"/>
        <pt x="1272" y="1100" on="0"/>
        <pt x="1272" y="821" on="1"/>
        <pt x="1272" y="634" on="1"/>
        <pt x="1272" y="354" on="0"/>
        <pt x="924" y="0" on="0"/>
        <pt x="657" y="0" on="1"/>
        <pt x="71" y="0" on="1"/>
        <pt x="71" y="88" on="1"/>
        <pt x="234" y="101" on="1"/>
        <pt x="234" y="1354" on="1"/>
        <pt x="71" y="1367" on="1"/>
        <pt x="71" y="1456" on="1"/>
        <pt x="234" y="1456" on="1"/>
      </contour>
      <contour>
        <pt x="353" y="1354" on="1"/>
        <pt x="353" y="101" on="1"/>
        <pt x="657" y="101" on="1"/>
        <pt x="873" y="101" on="0"/>
        <pt x="1152" y="403" on="0"/>
        <pt x="1152" y="634" on="1"/>
        <pt x="1152" y="824" on="1"/>
        <pt x="1152" y="1052" on="0"/>
        <pt x="872" y="1354" on="0"/>
        <pt x="657" y="1354" on="1"/>
      </contour>
    </TTGlyph>
    <TTGlyph name="D.smcp" xMin="61" yMin="0" xMax="1100" yMax="1165">
      <contour>
        <pt x="621" y="1165" on="1"/>
        <pt x="822" y="1165" on="0"/>
        <pt x="1100" y="895" on="0"/>
        <pt x="1100" y="687" on="1"/>
        <pt x="1100" y="477" on="1"/>
        <pt x="1100" y="268" on="0"/>
        <pt x="822" y="0" on="0"/>
        <pt x="621" y="0" on="1"/>
        <pt x="61" y="0" on="1"/>
        <pt x="61" y="88" on="1"/>
        <pt x="224" y="101" on="1"/>
        <pt x="224" y="1063" on="1"/>
        <pt x="61" y="1076" on="1"/>
        <pt x="61" y="1165" on="1"/>
        <pt x="224" y="1165" on="1"/>
      </contour>
      <contour>
        <pt x="344" y="1064" on="1"/>
        <pt x="344" y="100" on="1"/>
        <pt x="621" y="100" on="1"/>
        <pt x="770" y="100" on="0"/>
        <pt x="980" y="315" on="0"/>
        <pt x="980" y="477" on="1"/>
        <pt x="980" y="688" on="1"/>
        <pt x="980" y="848" on="0"/>
        <pt x="770" y="1064" on="0"/>
        <pt x="621" y="1064" on="1"/>
      </contour>
    </TTGlyph>
    <TTGlyph name="Dcaron" xMin="71" yMin="0" xMax="1272" yMax="1821">
      <component glyphName="D" x="0" y="0" flags="0x204"/>
      <component glyphName="caron" x="243" y="327" flags="0x4"/>
    </TTGlyph>
    <TTGlyph name="Dcaron.smcp" xMin="61" yMin="0" xMax="1100" yMax="1498">
      <component glyphName="D.smcp" x="0" y="0" flags="0x204"/>
      <component glyphName="caron" x="143" y="4" flags="0x4"/>
    </TTGlyph>
    <TTGlyph name="Dcroat" xMin="101" yMin="0" xMax="1302" yMax="1456">
      <contour>
        <pt x="687" y="1456" on="1"/>
        <pt x="954" y="1456" on="0"/>
        <pt x="1302" y="1100" on="0"/>
        <pt x="1302" y="821" on="1"/>
        <pt x="1302" y="634" on="1"/>
        <pt x="1302" y="354" on="0"/>
        <pt x="954" y="0" on="0"/>
        <pt x="687" y="0" on="1"/>
        <pt x="101" y="0" on="1"/>
        <pt x="101" y="88" on="1"/>
        <pt x="264" y="101" on="1"/>
        <pt x="264" y="689" on="1"/>
        <pt x="103" y="689" on="1"/>
        <pt x="103" y="791" on="1"/>
        <pt x="264" y="791" on="1"/>
        <pt x="264" y="1354" on="1"/>
        <pt x="101" y="1367" on="1"/>
        <pt x="101" y="1456" on="1"/>
      </contour>
      <contour>
        <pt x="715" y="689" on="1"/>
        <pt x="383" y="689" on="1"/>
        <pt x="383" y="101" on="1"/>
        <pt x="687" y="101" on="1"/>
        <pt x="903" y="101" on="0"/>
        <pt x="1182" y="403" on="0"/>
        <pt x="1182" y="634" on="1"/>
        <pt x="1182" y="824" on="1"/>
        <pt x="1182" y="1052" on="0"/>
        <pt x="902" y="1354" on="0"/>
        <pt x="687" y="1354" on="1"/>
        <pt x="383" y="1354" on="1"/>
        <pt x="383" y="791" on="1"/>
        <pt x="715" y="791" on="1"/>
      </contour>
    </TTGlyph>
    <TTGlyph name="Dcroat.smcp" xMin="23" yMin="0" xMax="1100" yMax="1165">
      <component glyphName="D.smcp" x="0" y="0" flags="0x204"/>
      <component glyphName="crossbar" x="-127" y="-144" flags="0x4"/>
    </TTGlyph>
    <TTGlyph name="Delta" xMin="31" yMin="0" xMax="1358" yMax="1456">
      <contour>
        <pt x="760" y="1456" on="1"/>
        <pt x="1358" y="0" on="1"/>
        <pt x="31" y="0" on="1"/>
        <pt x="647" y="1456" on="1"/>
      </contour>
      <contour>
        <pt x="197" y="101" on="1"/>
        <pt x="1192" y="101" on="1"/>
        <pt x="705" y="1306" on="1"/>
        <pt x="699" y="1306" on="1"/>
      </contour>
    </TTGlyph>
    <TTGlyph name="E" xMin="71" yMin="0" xMax="1156" yMax="1456">
      <contour>
        <pt x="950" y="705" on="1"/>
        <pt x="353" y="705" on="1"/>
        <pt x="353" y="101" on="1"/>
        <pt x="1041" y="101" on="1"/>
        <pt x="1050" y="319" on="1"/>
        <pt x="1156" y="319" on="1"/>
        <pt x="1156" y="0" on="1"/>
        <pt x="71" y="0" on="1"/>
        <pt x="71" y="88" on="1"/>
        <pt x="234" y="101" on="1"/>
        <pt x="234" y="1354" on="1"/>
        <pt x="71" y="1367" on="1"/>
        <pt x="71" y="1456" on="1"/>
        <pt x="234" y="1456" on="1"/>
        <pt x="1151" y="1456" on="1"/>
        <pt x="1151" y="1136" on="1"/>
        <pt x="1045" y="1136" on="1"/>
        <pt x="1036" y="1354" on="1"/>
        <pt x="353" y="1354" on="1"/>
        <pt x="353" y="807" on="1"/>
        <pt x="950" y="807" on="1"/>
      </contour>
    </TTGlyph>
    <TTGlyph name="E.smcp" xMin="61" yMin="0" xMax="1015" yMax="1165">
      <contour>
        <pt x="901" y="556" on="1"/>
        <pt x="344" y="556" on="1"/>
        <pt x="344" y="100" on="1"/>
        <pt x="899" y="100" on="1"/>
        <pt x="909" y="306" on="1"/>
        <pt x="1015" y="306" on="1"/>
        <pt x="1015" y="0" on="1"/>
        <pt x="61" y="0" on="1"/>
        <pt x="61" y="88" on="1"/>
        <pt x="224" y="101" on="1"/>
        <pt x="224" y="1063" on="1"/>
        <pt x="61" y="1076" on="1"/>
        <pt x="61" y="1165" on="1"/>
        <pt x="224" y="1165" on="1"/>
        <pt x="1015" y="1165" on="1"/>
        <pt x="1015" y="858" on="1"/>
        <pt x="908" y="858" on="1"/>
        <pt x="899" y="1064" on="1"/>
        <pt x="344" y="1064" on="1"/>
        <pt x="344" y="657" on="1"/>
        <pt x="901" y="657" on="1"/>
      </contour>
    </TTGlyph>
    <TTGlyph name="Eacute" xMin="71" yMin="0" xMax="1156" yMax="1818">
      <component glyphName="E" x="0" y="0" flags="0x204"/>
      <component glyphName="acute" x="442" y="340" flags="0x4"/>
    </TTGlyph>
    <TTGlyph name="Eacute.smcp" xMin="61" yMin="0" xMax="1015" yMax="1495">
      <component glyphName="E.smcp" x="0" y="0" flags="0x204"/>
      <component glyphName="acute" x="368" y="17" flags="0x4"/>
    </TTGlyph>
    <TTGlyph name="Ebreve" xMin="71" yMin="0" xMax="1156" yMax="1835">
      <component glyphName="E" x="0" y="0" flags="0x204"/>
      <component glyphName="breve" x="222" y="379" flags="0x4"/>
    </TTGlyph>
    <TTGlyph name="Ebreve.smcp" xMin="61" yMin="0" xMax="1015" yMax="1512">
      <component glyphName="E.smcp" x="0" y="0" flags="0x204"/>
      <component glyphName="breve" x="148" y="56" flags="0x4"/>
    </TTGlyph>
    <TTGlyph name="Ecaron" xMin="71" yMin="0" xMax="1156" yMax="1821">
      <component glyphName="E" x="0" y="0" flags="0x204"/>
      <component glyphName="caron" x="262" y="327" flags="0x4"/>
    </TTGlyph>
    <TTGlyph name="Ecaron.smcp" xMin="61" yMin="0" xMax="1015" yMax="1498">
      <component glyphName="E.smcp" x="0" y="0" flags="0x204"/>
      <component glyphName="caron" x="188" y="4" flags="0x4"/>
    </TTGlyph>
    <TTGlyph name="Ecircumflex" xMin="71" yMin="0" xMax="1156" yMax="1837">
      <component glyphName="E" x="0" y="0" flags="0x204"/>
      <component glyphName="circumflex" x="255" y="343" flags="0x4"/>
    </TTGlyph>
    <TTGlyph name="Ecircumflex.smcp" xMin="61" yMin="0" xMax="1015" yMax="1514">
      <component glyphName="E.smcp" x="0" y="0" flags="0x204"/>
      <component glyphName="circumflex" x="181" y="20" flags="0x4"/>
    </TTGlyph>
    <TTGlyph name="Edieresis" xMin="71" yMin="0" xMax="1156" yMax="1798">
      <component glyphName="E" x="0" y="0" flags="0x204"/>
      <component glyphName="dieresis" x="154" y="342" flags="0x4"/>
    </TTGlyph>
    <TTGlyph name="Edieresis.smcp" xMin="61" yMin="0" xMax="1015" yMax="1475">
      <component glyphName="E.smcp" x="0" y="0" flags="0x204"/>
      <component glyphName="dieresis" x="80" y="19" flags="0x4"/>
    </TTGlyph>
    <TTGlyph name="Edotaccent" xMin="71" yMin="0" xMax="1156" yMax="1790">
      <component glyphName="E" x="0" y="0" flags="0x204"/>
      <component glyphName="dotaccent" x="403" y="334" flags="0x4"/>
    </TTGlyph>
    <TTGlyph name="Edotaccent.smcp" xMin="61" yMin="0" xMax="1015" yMax="1467">
      <component glyphName="E.smcp" x="0" y="0" flags="0x204"/>
      <component glyphName="dotaccent" x="329" y="11" flags="0x4"/>
    </TTGlyph>
    <TTGlyph name="Egrave" xMin="71" yMin="0" xMax="1156" yMax="1833">
      <component glyphName="E" x="0" y="0" flags="0x204"/>
      <component glyphName="grave" x="260" y="357" flags="0x4"/>
    </TTGlyph>
    <TTGlyph name="Egrave.smcp" xMin="61" yMin="0" xMax="1015" yMax="1510">
      <component glyphName="E.smcp" x="0" y="0" flags="0x204"/>
      <component glyphName="grave" x="186" y="34" flags="0x4"/>
    </TTGlyph>
    <TTGlyph name="Emacron" xMin="71" yMin="0" xMax="1156" yMax="1791">
      <component glyphName="E" x="0" y="0" flags="0x204"/>
      <component glyphName="macron" x="150" y="335" flags="0x4"/>
    </TTGlyph>
    <TTGlyph name="Emacron.smcp" xMin="61" yMin="0" xMax="1015" yMax="1468">
      <component glyphName="E.smcp" x="0" y="0" flags="0x204"/>
      <component glyphName="macron" x="76" y="12" flags="0x4"/>
    </TTGlyph>
    <TTGlyph name="Eng" xMin="70" yMin="-437" xMax="1469" yMax="1456">
      <contour>
        <pt x="70" y="1367" on="1"/>
        <pt x="70" y="1456" on="1"/>
        <pt x="352" y="1456" on="1"/>
        <pt x="1180" y="211" on="1"/>
        <pt x="1186" y="212" on="1"/>
        <pt x="1186" y="1354" on="1"/>
        <pt x="1023" y="1367" on="1"/>
        <pt x="1023" y="1456" on="1"/>
        <pt x="1186" y="1456" on="1"/>
        <pt x="1306" y="1456" on="1"/>
        <pt x="1469" y="1456" on="1"/>
        <pt x="1469" y="1367" on="1"/>
        <pt x="1306" y="1354" on="1"/>
        <pt x="1306" y="-89" on="1"/>
        <pt x="1306" y="-256" on="0"/>
        <pt x="1145" y="-437" on="0"/>
        <pt x="1002" y="-437" on="1"/>
        <pt x="971" y="-437" on="0"/>
        <pt x="919" y="-427" on="0"/>
        <pt x="890" y="-418" on="1"/>
        <pt x="903" y="-319" on="1"/>
        <pt x="918" y="-324" on="0"/>
        <pt x="980" y="-335" on="0"/>
        <pt x="1002" y="-335" on="1"/>
        <pt x="1089" y="-335" on="0"/>
        <pt x="1186" y="-206" on="0"/>
        <pt x="1186" y="-89" on="1"/>
        <pt x="1186" y="0" on="1"/>
        <pt x="358" y="1246" on="1"/>
        <pt x="352" y="1245" on="1"/>
        <pt x="352" y="101" on="1"/>
        <pt x="515" y="88" on="1"/>
        <pt x="515" y="0" on="1"/>
        <pt x="70" y="0" on="1"/>
        <pt x="70" y="88" on="1"/>
        <pt x="233" y="101" on="1"/>
        <pt x="233" y="1354" on="1"/>
      </contour>
    </TTGlyph>
    <TTGlyph name="Eogonek" xMin="71" yMin="-388" xMax="1156" yMax="1456">
      <component glyphName="E" x="0" y="0" flags="0x204"/>
      <component glyphName="ogonek" x="380" y="4" flags="0x4"/>
    </TTGlyph>
    <TTGlyph name="Eogonek.smcp" xMin="61" yMin="-384" xMax="1015" yMax="1165">
      <component glyphName="E.smcp" x="0" y="0" flags="0x204"/>
      <component glyphName="ogonek" x="305" y="8" flags="0x4"/>
    </TTGlyph>
    <TTGlyph name="Epsilon" xMin="71" yMin="0" xMax="1156" yMax="1456">
      <component glyphName="E" x="0" y="0" flags="0x204"/>
    </TTGlyph>
    <TTGlyph name="Epsilontonos" xMin="-88" yMin="0" xMax="1256" yMax="1619">
      <component glyphName="E" x="100" y="0" flags="0x4"/>
      <component glyphName="tonos" x="-224" y="2" flags="0x4"/>
    </TTGlyph>
    <TTGlyph name="Eta" xMin="71" yMin="0" xMax="1463" yMax="1456">
      <component glyphName="H" x="0" y="0" flags="0x204"/>
    </TTGlyph>
    <TTGlyph name="Etatonos" xMin="-104" yMin="0" xMax="1563" yMax="1619">
      <component glyphName="H" x="100" y="0" flags="0x4"/>
      <component glyphName="tonos" x="-240" y="2" flags="0x4"/>
    </TTGlyph>
    <TTGlyph name="Eth" xMin="101" yMin="0" xMax="1302" yMax="1456">
      <contour>
        <pt x="687" y="1456" on="1"/>
        <pt x="954" y="1456" on="0"/>
        <pt x="1302" y="1100" on="0"/>
        <pt x="1302" y="821" on="1"/>
        <pt x="1302" y="634" on="1"/>
        <pt x="1302" y="354" on="0"/>
        <pt x="954" y="0" on="0"/>
        <pt x="687" y="0" on="1"/>
        <pt x="101" y="0" on="1"/>
        <pt x="101" y="88" on="1"/>
        <pt x="264" y="101" on="1"/>
        <pt x="264" y="689" on="1"/>
        <pt x="103" y="689" on="1"/>
        <pt x="103" y="791" on="1"/>
        <pt x="264" y="791" on="1"/>
        <pt x="264" y="1354" on="1"/>
        <pt x="101" y="1367" on="1"/>
        <pt x="101" y="1456" on="1"/>
      </contour>
      <contour>
        <pt x="715" y="689" on="1"/>
        <pt x="383" y="689" on="1"/>
        <pt x="383" y="101" on="1"/>
        <pt x="687" y="101" on="1"/>
        <pt x="903" y="101" on="0"/>
        <pt x="1182" y="403" on="0"/>
        <pt x="1182" y="634" on="1"/>
        <pt x="1182" y="824" on="1"/>
        <pt x="1182" y="1052" on="0"/>
        <pt x="902" y="1354" on="0"/>
        <pt x="687" y="1354" on="1"/>
        <pt x="383" y="1354" on="1"/>
        <pt x="383" y="791" on="1"/>
        <pt x="715" y="791" on="1"/>
      </contour>
    </TTGlyph>
    <TTGlyph name="Eth.smcp" xMin="23" yMin="0" xMax="1100" yMax="1165">
      <component glyphName="D.smcp" x="0" y="0" flags="0x204"/>
      <component glyphName="crossbar" x="-127" y="-144" flags="0x4"/>
    </TTGlyph>
    <TTGlyph name="Euro" xMin="71" yMin="-21" xMax="962" yMax="1477">
      <contour>
        <pt x="905" y="533" on="1"/>
        <pt x="359" y="533" on="1"/>
        <pt x="359" y="514" on="1"/>
        <pt x="359" y="316" on="0"/>
        <pt x="562" y="80" on="0"/>
        <pt x="733" y="80" on="1"/>
        <pt x="790" y="80" on="0"/>
        <pt x="902" y="97" on="0"/>
        <pt x="953" y="114" on="1"/>
        <pt x="962" y="10" on="1"/>
        <pt x="908" y="-5" on="0"/>
        <pt x="791" y="-21" on="0"/>
        <pt x="733" y="-21" on="1"/>
        <pt x="512" y="-21" on="0"/>
        <pt x="239" y="269" on="0"/>
        <pt x="239" y="514" on="1"/>
        <pt x="239" y="533" on="1"/>
        <pt x="71" y="533" on="1"/>
        <pt x="71" y="621" on="1"/>
        <pt x="239" y="621" on="1"/>
        <pt x="239" y="816" on="1"/>
        <pt x="71" y="816" on="1"/>
        <pt x="71" y="905" on="1"/>
        <pt x="239" y="905" on="1"/>
        <pt x="239" y="942" on="1"/>
        <pt x="239" y="1186" on="0"/>
        <pt x="510" y="1477" on="0"/>
        <pt x="731" y="1477" on="1"/>
        <pt x="787" y="1477" on="0"/>
        <pt x="898" y="1461" on="0"/>
        <pt x="962" y="1446" on="1"/>
        <pt x="953" y="1340" on="1"/>
        <pt x="900" y="1356" on="0"/>
        <pt x="787" y="1375" on="0"/>
        <pt x="731" y="1375" on="1"/>
        <pt x="559" y="1375" on="0"/>
        <pt x="359" y="1143" on="0"/>
        <pt x="359" y="944" on="1"/>
        <pt x="359" y="905" on="1"/>
        <pt x="905" y="905" on="1"/>
        <pt x="905" y="816" on="1"/>
        <pt x="359" y="816" on="1"/>
        <pt x="359" y="621" on="1"/>
        <pt x="905" y="621" on="1"/>
      </contour>
    </TTGlyph>
    <TTGlyph name="F" xMin="71" yMin="0" xMax="1163" yMax="1456">
      <contour>
        <pt x="71" y="88" on="1"/>
        <pt x="234" y="101" on="1"/>
        <pt x="234" y="1354" on="1"/>
        <pt x="71" y="1367" on="1"/>
        <pt x="71" y="1456" on="1"/>
        <pt x="1163" y="1456" on="1"/>
        <pt x="1163" y="1136" on="1"/>
        <pt x="1057" y="1136" on="1"/>
        <pt x="1048" y="1354" on="1"/>
        <pt x="353" y="1354" on="1"/>
        <pt x="353" y="785" on="1"/>
        <pt x="961" y="785" on="1"/>
        <pt x="961" y="682" on="1"/>
        <pt x="353" y="682" on="1"/>
        <pt x="353" y="101" on="1"/>
        <pt x="516" y="88" on="1"/>
        <pt x="516" y="0" on="1"/>
        <pt x="71" y="0" on="1"/>
      </contour>
    </TTGlyph>
    <TTGlyph name="F.smcp" xMin="61" yMin="0" xMax="1014" yMax="1165">
      <contour>
        <pt x="61" y="88" on="1"/>
        <pt x="224" y="101" on="1"/>
        <pt x="224" y="1063" on="1"/>
        <pt x="61" y="1076" on="1"/>
        <pt x="61" y="1165" on="1"/>
        <pt x="1014" y="1165" on="1"/>
        <pt x="1014" y="858" on="1"/>
        <pt x="908" y="858" on="1"/>
        <pt x="899" y="1064" on="1"/>
        <pt x="344" y="1064" on="1"/>
        <pt x="344" y="637" on="1"/>
        <pt x="900" y="637" on="1"/>
        <pt x="900" y="535" on="1"/>
        <pt x="344" y="535" on="1"/>
        <pt x="344" y="101" on="1"/>
        <pt x="507" y="88" on="1"/>
        <pt x="507" y="0" on="1"/>
        <pt x="61" y="0" on="1"/>
      </contour>
    </TTGlyph>
    <TTGlyph name="G" xMin="95" yMin="-21" xMax="1239" yMax="1477">
      <contour>
        <pt x="1239" y="160" on="1"/>
        <pt x="1187" y="96" on="0"/>
        <pt x="929" y="-21" on="0"/>
        <pt x="735" y="-21" on="1"/>
        <pt x="451" y="-21" on="0"/>
        <pt x="95" y="389" on="0"/>
        <pt x="95" y="718" on="1"/>
        <pt x="95" y="749" on="1"/>
        <pt x="95" y="1073" on="0"/>
        <pt x="451" y="1477" on="0"/>
        <pt x="740" y="1477" on="1"/>
        <pt x="904" y="1477" on="0"/>
        <pt x="1156" y="1368" on="0"/>
        <pt x="1235" y="1273" on="1"/>
        <pt x="1235" y="1020" on="1"/>
        <pt x="1142" y="1020" on="1"/>
        <pt x="1121" y="1233" on="1"/>
        <pt x="1062" y="1298" on="0"/>
        <pt x="874" y="1375" on="0"/>
        <pt x="749" y="1375" on="1"/>
        <pt x="501" y="1375" on="0"/>
        <pt x="215" y="1027" on="0"/>
        <pt x="215" y="751" on="1"/>
        <pt x="215" y="718" on="1"/>
        <pt x="215" y="434" on="0"/>
        <pt x="496" y="80" on="0"/>
        <pt x="735" y="80" on="1"/>
        <pt x="877" y="80" on="0"/>
        <pt x="1079" y="154" on="0"/>
        <pt x="1120" y="196" on="1"/>
        <pt x="1120" y="549" on="1"/>
        <pt x="840" y="554" on="1"/>
        <pt x="840" y="651" on="1"/>
        <pt x="1239" y="651" on="1"/>
      </contour>
    </TTGlyph>
    <TTGlyph name="G.smcp" xMin="115" yMin="-17" xMax="1058" yMax="1181">
      <contour>
        <pt x="1058" y="156" on="1"/>
        <pt x="1015" y="92" on="0"/>
        <pt x="784" y="-17" on="0"/>
        <pt x="613" y="-17" on="1"/>
        <pt x="391" y="-17" on="0"/>
        <pt x="115" y="267" on="0"/>
        <pt x="115" y="496" on="1"/>
        <pt x="115" y="668" on="1"/>
        <pt x="115" y="895" on="0"/>
        <pt x="383" y="1181" on="0"/>
        <pt x="595" y="1181" on="1"/>
        <pt x="813" y="1181" on="0"/>
        <pt x="1045" y="998" on="0"/>
        <pt x="1049" y="838" on="1"/>
        <pt x="1047" y="833" on="1"/>
        <pt x="936" y="829" on="1"/>
        <pt x="927" y="954" on="0"/>
        <pt x="762" y="1080" on="0"/>
        <pt x="595" y="1080" on="1"/>
        <pt x="433" y="1080" on="0"/>
        <pt x="234" y="847" on="0"/>
        <pt x="234" y="669" on="1"/>
        <pt x="234" y="496" on="1"/>
        <pt x="234" y="315" on="0"/>
        <pt x="442" y="84" on="0"/>
        <pt x="613" y="84" on="1"/>
        <pt x="741" y="84" on="0"/>
        <pt x="907" y="148" on="0"/>
        <pt x="939" y="190" on="1"/>
        <pt x="939" y="468" on="1"/>
        <pt x="642" y="468" on="1"/>
        <pt x="642" y="570" on="1"/>
        <pt x="1058" y="570" on="1"/>
      </contour>
    </TTGlyph>
    <TTGlyph name="G.ss03" xMin="114" yMin="-21" xMax="1198" yMax="1477">
      <contour>
        <pt x="1198" y="173" on="1"/>
        <pt x="1149" y="102" on="0"/>
        <pt x="890" y="-21" on="0"/>
        <pt x="693" y="-21" on="1"/>
        <pt x="439" y="-21" on="0"/>
        <pt x="114" y="325" on="0"/>
        <pt x="114" y="600" on="1"/>
        <pt x="114" y="867" on="1"/>
        <pt x="114" y="1137" on="0"/>
        <pt x="434" y="1477" on="0"/>
        <pt x="689" y="1477" on="1"/>
        <pt x="858" y="1477" on="0"/>
        <pt x="1111" y="1365" on="0"/>
        <pt x="1188" y="1259" on="1"/>
        <pt x="1189" y="980" on="1"/>
        <pt x="1087" y="980" on="1"/>
        <pt x="1061" y="1232" on="1"/>
        <pt x="1006" y="1300" on="0"/>
        <pt x="823" y="1375" on="0"/>
        <pt x="698" y="1375" on="1"/>
        <pt x="489" y="1375" on="0"/>
        <pt x="233" y="1091" on="0"/>
        <pt x="233" y="869" on="1"/>
        <pt x="233" y="600" on="1"/>
        <pt x="233" y="372" on="0"/>
        <pt x="488" y="80" on="0"/>
        <pt x="693" y="80" on="1"/>
        <pt x="837" y="80" on="0"/>
        <pt x="1040" y="160" on="0"/>
        <pt x="1078" y="209" on="1"/>
        <pt x="1078" y="549" on="1"/>
        <pt x="798" y="554" on="1"/>
        <pt x="798" y="651" on="1"/>
        <pt x="1198" y="651" on="1"/>
      </contour>
    </TTGlyph>
    <TTGlyph name="G.ss04" xMin="114" yMin="-21" xMax="1198" yMax="1477">
      <contour>
        <pt x="1198" y="173" on="1"/>
        <pt x="1149" y="102" on="0"/>
        <pt x="890" y="-21" on="0"/>
        <pt x="693" y="-21" on="1"/>
        <pt x="439" y="-21" on="0"/>
        <pt x="114" y="325" on="0"/>
        <pt x="114" y="600" on="1"/>
        <pt x="114" y="867" on="1"/>
        <pt x="114" y="1137" on="0"/>
        <pt x="423" y="1477" on="0"/>
        <pt x="669" y="1477" on="1"/>
        <pt x="904" y="1477" on="0"/>
        <pt x="1169" y="1242" on="0"/>
        <pt x="1189" y="1054" on="1"/>
        <pt x="1187" y="1048" on="1"/>
        <pt x="1077" y="1048" on="1"/>
        <pt x="1051" y="1194" on="0"/>
        <pt x="857" y="1375" on="0"/>
        <pt x="669" y="1375" on="1"/>
        <pt x="473" y="1375" on="0"/>
        <pt x="233" y="1091" on="0"/>
        <pt x="233" y="869" on="1"/>
        <pt x="233" y="600" on="1"/>
        <pt x="233" y="372" on="0"/>
        <pt x="488" y="80" on="0"/>
        <pt x="693" y="80" on="1"/>
        <pt x="837" y="80" on="0"/>
        <pt x="1040" y="160" on="0"/>
        <pt x="1078" y="209" on="1"/>
        <pt x="1078" y="555" on="1"/>
        <pt x="809" y="559" on="1"/>
        <pt x="809" y="657" on="1"/>
        <pt x="1198" y="657" on="1"/>
      </contour>
    </TTGlyph>
    <TTGlyph name="Gamma" xMin="77" yMin="0" xMax="1116" yMax="1456">
      <contour>
        <pt x="77" y="88" on="1"/>
        <pt x="240" y="101" on="1"/>
        <pt x="240" y="1354" on="1"/>
        <pt x="77" y="1367" on="1"/>
        <pt x="77" y="1456" on="1"/>
        <pt x="1116" y="1456" on="1"/>
        <pt x="1116" y="1149" on="1"/>
        <pt x="1009" y="1149" on="1"/>
        <pt x="1000" y="1354" on="1"/>
        <pt x="359" y="1354" on="1"/>
        <pt x="359" y="101" on="1"/>
        <pt x="522" y="88" on="1"/>
        <pt x="522" y="0" on="1"/>
        <pt x="77" y="0" on="1"/>
      </contour>
    </TTGlyph>
    <TTGlyph name="Gbreve" xMin="95" yMin="-21" xMax="1239" yMax="1845">
      <component glyphName="G" x="0" y="0" flags="0x204"/>
      <component glyphName="breve" x="286" y="389" flags="0x4"/>
    </TTGlyph>
    <TTGlyph name="Gbreve.smcp" xMin="115" yMin="-17" xMax="1058" yMax="1528">
      <component glyphName="G.smcp" x="0" y="0" flags="0x204"/>
      <component glyphName="breve" x="181" y="72" flags="0x4"/>
    </TTGlyph>
    <TTGlyph name="Gcircumflex" xMin="95" yMin="-21" xMax="1239" yMax="1847">
      <component glyphName="G" x="0" y="0" flags="0x204"/>
      <component glyphName="circumflex" x="319" y="353" flags="0x4"/>
    </TTGlyph>
    <TTGlyph name="Gcircumflex.smcp" xMin="115" yMin="-17" xMax="1058" yMax="1530">
      <component glyphName="G.smcp" x="0" y="0" flags="0x204"/>
      <component glyphName="circumflex" x="214" y="36" flags="0x4"/>
    </TTGlyph>
    <TTGlyph name="Gcommaaccent" xMin="95" yMin="-552" xMax="1239" yMax="1477">
      <component glyphName="G" x="0" y="0" flags="0x204"/>
      <component glyphName="commaaccent" x="471" y="-315" flags="0x4"/>
    </TTGlyph>
    <TTGlyph name="Gcommaaccent.smcp" xMin="115" yMin="-551" xMax="1058" yMax="1181">
      <component glyphName="G.smcp" x="0" y="0" flags="0x204"/>
      <component glyphName="commaaccent" x="378" y="-314" flags="0x4"/>
    </TTGlyph>
    <TTGlyph name="H" xMin="71" yMin="0" xMax="1463" yMax="1456">
      <contour>
        <pt x="71" y="1367" on="1"/>
        <pt x="71" y="1456" on="1"/>
        <pt x="516" y="1456" on="1"/>
        <pt x="516" y="1367" on="1"/>
        <pt x="353" y="1354" on="1"/>
        <pt x="353" y="772" on="1"/>
        <pt x="1181" y="772" on="1"/>
        <pt x="1181" y="1354" on="1"/>
        <pt x="1018" y="1367" on="1"/>
        <pt x="1018" y="1456" on="1"/>
        <pt x="1181" y="1456" on="1"/>
        <pt x="1300" y="1456" on="1"/>
        <pt x="1463" y="1456" on="1"/>
        <pt x="1463" y="1367" on="1"/>
        <pt x="1300" y="1354" on="1"/>
        <pt x="1300" y="101" on="1"/>
        <pt x="1463" y="88" on="1"/>
        <pt x="1463" y="0" on="1"/>
        <pt x="1018" y="0" on="1"/>
        <pt x="1018" y="88" on="1"/>
        <pt x="1181" y="101" on="1"/>
        <pt x="1181" y="670" on="1"/>
        <pt x="353" y="670" on="1"/>
        <pt x="353" y="101" on="1"/>
        <pt x="516" y="88" on="1"/>
        <pt x="516" y="0" on="1"/>
        <pt x="71" y="0" on="1"/>
        <pt x="71" y="88" on="1"/>
        <pt x="234" y="101" on="1"/>
        <pt x="234" y="1354" on="1"/>
      </contour>
    </TTGlyph>
    <TTGlyph name="H.smcp" xMin="61" yMin="0" xMax="1300" yMax="1165">
      <contour>
        <pt x="61" y="1076" on="1"/>
        <pt x="61" y="1165" on="1"/>
        <pt x="507" y="1165" on="1"/>
        <pt x="507" y="1076" on="1"/>
        <pt x="344" y="1063" on="1"/>
        <pt x="344" y="622" on="1"/>
        <pt x="1017" y="622" on="1"/>
        <pt x="1017" y="1063" on="1"/>
        <pt x="854" y="1076" on="1"/>
        <pt x="854" y="1165" on="1"/>
        <pt x="1017" y="1165" on="1"/>
        <pt x="1137" y="1165" on="1"/>
        <pt x="1300" y="1165" on="1"/>
        <pt x="1300" y="1076" on="1"/>
        <pt x="1137" y="1063" on="1"/>
        <pt x="1137" y="101" on="1"/>
        <pt x="1300" y="88" on="1"/>
        <pt x="1300" y="0" on="1"/>
        <pt x="854" y="0" on="1"/>
        <pt x="854" y="88" on="1"/>
        <pt x="1017" y="101" on="1"/>
        <pt x="1017" y="521" on="1"/>
        <pt x="344" y="521" on="1"/>
        <pt x="344" y="101" on="1"/>
        <pt x="507" y="88" on="1"/>
        <pt x="507" y="0" on="1"/>
        <pt x="61" y="0" on="1"/>
        <pt x="61" y="88" on="1"/>
        <pt x="224" y="101" on="1"/>
        <pt x="224" y="1063" on="1"/>
      </contour>
    </TTGlyph>
    <TTGlyph name="Hbar" xMin="45" yMin="0" xMax="1437" yMax="1456">
      <contour>
        <pt x="1437" y="1456" on="1"/>
        <pt x="1437" y="1367" on="1"/>
        <pt x="1274" y="1354" on="1"/>
        <pt x="1274" y="1090" on="1"/>
        <pt x="1408" y="1090" on="1"/>
        <pt x="1408" y="993" on="1"/>
        <pt x="1274" y="993" on="1"/>
        <pt x="1274" y="101" on="1"/>
        <pt x="1437" y="88" on="1"/>
        <pt x="1437" y="0" on="1"/>
        <pt x="992" y="0" on="1"/>
        <pt x="992" y="88" on="1"/>
        <pt x="1155" y="101" on="1"/>
        <pt x="1155" y="670" on="1"/>
        <pt x="327" y="670" on="1"/>
        <pt x="327" y="101" on="1"/>
        <pt x="490" y="88" on="1"/>
        <pt x="490" y="0" on="1"/>
        <pt x="45" y="0" on="1"/>
        <pt x="45" y="88" on="1"/>
        <pt x="208" y="101" on="1"/>
        <pt x="208" y="993" on="1"/>
        <pt x="49" y="993" on="1"/>
        <pt x="49" y="1090" on="1"/>
        <pt x="208" y="1090" on="1"/>
        <pt x="208" y="1354" on="1"/>
        <pt x="45" y="1367" on="1"/>
        <pt x="45" y="1456" on="1"/>
        <pt x="490" y="1456" on="1"/>
        <pt x="490" y="1367" on="1"/>
        <pt x="327" y="1354" on="1"/>
        <pt x="327" y="1090" on="1"/>
        <pt x="1155" y="1090" on="1"/>
        <pt x="1155" y="1354" on="1"/>
        <pt x="992" y="1367" on="1"/>
        <pt x="992" y="1456" on="1"/>
        <pt x="1155" y="1456" on="1"/>
        <pt x="1274" y="1456" on="1"/>
      </contour>
      <contour>
        <pt x="327" y="772" on="1"/>
        <pt x="1155" y="772" on="1"/>
        <pt x="1155" y="993" on="1"/>
        <pt x="327" y="993" on="1"/>
      </contour>
    </TTGlyph>
    <TTGlyph name="Hcircumflex" xMin="71" yMin="0" xMax="1463" yMax="1836">
      <component glyphName="H" x="0" y="0" flags="0x204"/>
      <component glyphName="circumflex" x="365" y="342" flags="0x4"/>
    </TTGlyph>
    <TTGlyph name="Hcircumflex.smcp" xMin="61" yMin="0" xMax="1300" yMax="1514">
      <component glyphName="H.smcp" x="0" y="0" flags="0x204"/>
      <component glyphName="circumflex" x="289" y="20" flags="0x4"/>
    </TTGlyph>
    <TTGlyph name="I" xMin="91" yMin="0" xMax="537" yMax="1456">
      <contour>
        <pt x="91" y="1367" on="1"/>
        <pt x="91" y="1456" on="1"/>
        <pt x="537" y="1456" on="1"/>
        <pt x="537" y="1367" on="1"/>
        <pt x="374" y="1354" on="1"/>
        <pt x="374" y="101" on="1"/>
        <pt x="537" y="88" on="1"/>
        <pt x="537" y="0" on="1"/>
        <pt x="91" y="0" on="1"/>
        <pt x="91" y="88" on="1"/>
        <pt x="254" y="101" on="1"/>
        <pt x="254" y="1354" on="1"/>
      </contour>
    </TTGlyph>
    <TTGlyph name="I.smcp" xMin="61" yMin="0" xMax="507" yMax="1165">
      <contour>
        <pt x="61" y="1076" on="1"/>
        <pt x="61" y="1165" on="1"/>
        <pt x="507" y="1165" on="1"/>
        <pt x="507" y="1076" on="1"/>
        <pt x="344" y="1063" on="1"/>
        <pt x="344" y="101" on="1"/>
        <pt x="507" y="88" on="1"/>
        <pt x="507" y="0" on="1"/>
        <pt x="61" y="0" on="1"/>
        <pt x="61" y="88" on="1"/>
        <pt x="224" y="101" on="1"/>
        <pt x="224" y="1063" on="1"/>
      </contour>
    </TTGlyph>
    <TTGlyph name="IJ" xMin="91" yMin="-21" xMax="1707" yMax="1456">
      <component glyphName="I" x="0" y="0" flags="0x4"/>
      <component glyphName="J" x="627" y="0" flags="0x4"/>
    </TTGlyph>
    <TTGlyph name="Iacute" xMin="91" yMin="0" xMax="580" yMax="1817">
      <component glyphName="I" x="0" y="0" flags="0x204"/>
      <component glyphName="acute" x="129" y="339" flags="0x4"/>
    </TTGlyph>
    <TTGlyph name="Iacute.smcp" xMin="61" yMin="0" xMax="542" yMax="1495">
      <component glyphName="I.smcp" x="0" y="0" flags="0x204"/>
      <component glyphName="acute" x="91" y="17" flags="0x4"/>
    </TTGlyph>
    <TTGlyph name="Ibreve" xMin="30" yMin="0" xMax="604" yMax="1834">
      <component glyphName="I" x="0" y="0" flags="0x204"/>
      <component glyphName="breve" x="-90" y="378" flags="0x4"/>
    </TTGlyph>
    <TTGlyph name="Ibreve.smcp" xMin="-8" yMin="0" xMax="566" yMax="1512">
      <component glyphName="I.smcp" x="0" y="0" flags="0x204"/>
      <component glyphName="breve" x="-128" y="56" flags="0x4"/>
    </TTGlyph>
    <TTGlyph name="Icircumflex" xMin="47" yMin="0" xMax="601" yMax="1836">
      <component glyphName="I" x="0" y="0" flags="0x204"/>
      <component glyphName="circumflex" x="-57" y="342" flags="0x4"/>
    </TTGlyph>
    <TTGlyph name="Icircumflex.smcp" xMin="9" yMin="0" xMax="563" yMax="1514">
      <component glyphName="I.smcp" x="0" y="0" flags="0x204"/>
      <component glyphName="circumflex" x="-95" y="20" flags="0x4"/>
    </TTGlyph>
    <TTGlyph name="Idieresis" xMin="-6" yMin="0" xMax="637" yMax="1797">
      <component glyphName="I" x="0" y="0" flags="0x204"/>
      <component glyphName="dieresis" x="-158" y="341" flags="0x4"/>
    </TTGlyph>
    <TTGlyph name="Idieresis.smcp" xMin="-44" yMin="0" xMax="599" yMax="1475">
      <component glyphName="I.smcp" x="0" y="0" flags="0x204"/>
      <component glyphName="dieresis" x="-196" y="19" flags="0x4"/>
    </TTGlyph>
    <TTGlyph name="Idotaccent" xMin="91" yMin="0" xMax="537" yMax="1789">
      <component glyphName="I" x="0" y="0" flags="0x204"/>
      <component glyphName="dotaccent" x="90" y="333" flags="0x4"/>
    </TTGlyph>
    <TTGlyph name="Idotaccent.smcp" xMin="61" yMin="0" xMax="507" yMax="1467">
      <component glyphName="I.smcp" x="0" y="0" flags="0x204"/>
      <component glyphName="dotaccent" x="52" y="11" flags="0x4"/>
    </TTGlyph>
    <TTGlyph name="Igrave" xMin="32" yMin="0" xMax="537" yMax="1832">
      <component glyphName="I" x="0" y="0" flags="0x204"/>
      <component glyphName="grave" x="-52" y="356" flags="0x4"/>
    </TTGlyph>
    <TTGlyph name="Igrave.smcp" xMin="-6" yMin="0" xMax="507" yMax="1510">
      <component glyphName="I.smcp" x="0" y="0" flags="0x204"/>
      <component glyphName="grave" x="-90" y="34" flags="0x4"/>
    </TTGlyph>
    <TTGlyph name="Imacron" xMin="-8" yMin="0" xMax="662" yMax="1790">
      <component glyphName="I" x="0" y="0" flags="0x204"/>
      <component glyphName="macron" x="-162" y="334" flags="0x4"/>
    </TTGlyph>
    <TTGlyph name="Imacron.smcp" xMin="-46" yMin="0" xMax="624" yMax="1468">
      <component glyphName="I.smcp" x="0" y="0" flags="0x204"/>
      <component glyphName="macron" x="-200" y="12" flags="0x4"/>
    </TTGlyph>
    <TTGlyph name="Iogonek" xMin="91" yMin="-392" xMax="607" yMax="1456">
      <component glyphName="I" x="0" y="0" flags="0x204"/>
      <component glyphName="ogonek" x="228" y="0" flags="0x4"/>
    </TTGlyph>
    <TTGlyph name="Iogonek.smcp" xMin="61" yMin="-392" xMax="577" yMax="1165">
      <component glyphName="I.smcp" x="0" y="0" flags="0x204"/>
      <component glyphName="ogonek" x="198" y="0" flags="0x4"/>
    </TTGlyph>
    <TTGlyph name="Iota" xMin="91" yMin="0" xMax="537" yMax="1456">
      <component glyphName="I" x="0" y="0" flags="0x204"/>
    </TTGlyph>
    <TTGlyph name="Iotadieresis" xMin="-6" yMin="0" xMax="637" yMax="1797">
      <component glyphName="I" x="0" y="0" flags="0x204"/>
      <component glyphName="dieresis" x="-158" y="341" flags="0x4"/>
    </TTGlyph>
    <TTGlyph name="Iotatonos" xMin="-93" yMin="0" xMax="637" yMax="1617">
      <component glyphName="I" x="100" y="0" flags="0x4"/>
      <component glyphName="tonos" x="-229" y="0" flags="0x4"/>
    </TTGlyph>
    <TTGlyph name="Itilde" xMin="1" yMin="0" xMax="665" yMax="1841">
      <component glyphName="I" x="0" y="0" flags="0x204"/>
      <component glyphName="tilde" x="-126" y="340" flags="0x4"/>
    </TTGlyph>
    <TTGlyph name="Itilde.smcp" xMin="-37" yMin="0" xMax="627" yMax="1519">
      <component glyphName="I.smcp" x="0" y="0" flags="0x204"/>
      <component glyphName="tilde" x="-164" y="18" flags="0x4"/>
    </TTGlyph>
    <TTGlyph name="J" xMin="49" yMin="-21" xMax="1080" yMax="1456">
      <contour>
        <pt x="1080" y="1456" on="1"/>
        <pt x="1080" y="1367" on="1"/>
        <pt x="917" y="1354" on="1"/>
        <pt x="917" y="413" on="1"/>
        <pt x="917" y="214" on="0"/>
        <pt x="680" y="-21" on="0"/>
        <pt x="492" y="-21" on="1"/>
        <pt x="287" y="-21" on="0"/>
        <pt x="49" y="191" on="0"/>
        <pt x="54" y="395" on="1"/>
        <pt x="56" y="401" on="1"/>
        <pt x="168" y="401" on="1"/>
        <pt x="168" y="243" on="0"/>
        <pt x="336" y="80" on="0"/>
        <pt x="492" y="80" on="1"/>
        <pt x="625" y="80" on="0"/>
        <pt x="797" y="261" on="0"/>
        <pt x="797" y="413" on="1"/>
        <pt x="797" y="1354" on="1"/>
        <pt x="634" y="1367" on="1"/>
        <pt x="634" y="1456" on="1"/>
        <pt x="917" y="1456" on="1"/>
      </contour>
    </TTGlyph>
    <TTGlyph name="J.smcp" xMin="60" yMin="-17" xMax="993" yMax="1165">
      <contour>
        <pt x="993" y="1165" on="1"/>
        <pt x="993" y="1076" on="1"/>
        <pt x="830" y="1063" on="1"/>
        <pt x="830" y="345" on="1"/>
        <pt x="830" y="179" on="0"/>
        <pt x="618" y="-17" on="0"/>
        <pt x="454" y="-17" on="1"/>
        <pt x="272" y="-17" on="0"/>
        <pt x="60" y="157" on="0"/>
        <pt x="65" y="322" on="1"/>
        <pt x="68" y="328" on="1"/>
        <pt x="179" y="328" on="1"/>
        <pt x="179" y="203" on="0"/>
        <pt x="320" y="84" on="0"/>
        <pt x="454" y="84" on="1"/>
        <pt x="565" y="84" on="0"/>
        <pt x="710" y="226" on="0"/>
        <pt x="710" y="345" on="1"/>
        <pt x="710" y="1063" on="1"/>
        <pt x="547" y="1076" on="1"/>
        <pt x="547" y="1165" on="1"/>
        <pt x="830" y="1165" on="1"/>
      </contour>
    </TTGlyph>
    <TTGlyph name="Jcircumflex" xMin="49" yMin="-21" xMax="1150" yMax="1815">
      <component glyphName="J" x="0" y="0" flags="0x204"/>
      <component glyphName="circumflex" x="492" y="321" flags="0x4"/>
    </TTGlyph>
    <TTGlyph name="Jcircumflex.smcp" xMin="60" yMin="-17" xMax="1050" yMax="1497">
      <component glyphName="J.smcp" x="0" y="0" flags="0x204"/>
      <component glyphName="circumflex" x="392" y="3" flags="0x4"/>
    </TTGlyph>
    <TTGlyph name="K" xMin="71" yMin="0" xMax="1353" yMax="1456">
      <contour>
        <pt x="71" y="88" on="1"/>
        <pt x="234" y="101" on="1"/>
        <pt x="234" y="1354" on="1"/>
        <pt x="71" y="1367" on="1"/>
        <pt x="71" y="1456" on="1"/>
        <pt x="516" y="1456" on="1"/>
        <pt x="516" y="1367" on="1"/>
        <pt x="353" y="1354" on="1"/>
        <pt x="353" y="786" on="1"/>
        <pt x="552" y="786" on="1"/>
        <pt x="1042" y="1359" on="1"/>
        <pt x="902" y="1367" on="1"/>
        <pt x="902" y="1456" on="1"/>
        <pt x="1309" y="1456" on="1"/>
        <pt x="1309" y="1367" on="1"/>
        <pt x="1181" y="1355" on="1"/>
        <pt x="660" y="740" on="1"/>
        <pt x="1222" y="100" on="1"/>
        <pt x="1353" y="88" on="1"/>
        <pt x="1353" y="0" on="1"/>
        <pt x="938" y="0" on="1"/>
        <pt x="938" y="88" on="1"/>
        <pt x="1076" y="96" on="1"/>
        <pt x="553" y="685" on="1"/>
        <pt x="353" y="685" on="1"/>
        <pt x="353" y="101" on="1"/>
        <pt x="516" y="88" on="1"/>
        <pt x="516" y="0" on="1"/>
        <pt x="71" y="0" on="1"/>
      </contour>
    </TTGlyph>
    <TTGlyph name="K.smcp" xMin="61" yMin="0" xMax="1161" yMax="1165">
      <contour>
        <pt x="61" y="1076" on="1"/>
        <pt x="61" y="1165" on="1"/>
        <pt x="502" y="1165" on="1"/>
        <pt x="502" y="1076" on="1"/>
        <pt x="344" y="1063" on="1"/>
        <pt x="344" y="640" on="1"/>
        <pt x="484" y="640" on="1"/>
        <pt x="845" y="1068" on="1"/>
        <pt x="741" y="1076" on="1"/>
        <pt x="741" y="1165" on="1"/>
        <pt x="1103" y="1165" on="1"/>
        <pt x="1103" y="1076" on="1"/>
        <pt x="988" y="1063" on="1"/>
        <pt x="589" y="598" on="1"/>
        <pt x="1036" y="100" on="1"/>
        <pt x="1161" y="88" on="1"/>
        <pt x="1161" y="0" on="1"/>
        <pt x="783" y="0" on="1"/>
        <pt x="783" y="88" on="1"/>
        <pt x="884" y="95" on="1"/>
        <pt x="486" y="537" on="1"/>
        <pt x="344" y="537" on="1"/>
        <pt x="344" y="101" on="1"/>
        <pt x="502" y="88" on="1"/>
        <pt x="502" y="0" on="1"/>
        <pt x="61" y="0" on="1"/>
        <pt x="61" y="88" on="1"/>
        <pt x="224" y="101" on="1"/>
        <pt x="224" y="1063" on="1"/>
      </contour>
    </TTGlyph>
    <TTGlyph name="Kappa" xMin="71" yMin="0" xMax="1353" yMax="1456">
      <component glyphName="K" x="0" y="0" flags="0x204"/>
    </TTGlyph>
    <TTGlyph name="Kcommaaccent" xMin="71" yMin="-547" xMax="1353" yMax="1456">
      <component glyphName="K" x="0" y="0" flags="0x204"/>
      <component glyphName="commaaccent" x="430" y="-310" flags="0x4"/>
    </TTGlyph>
    <TTGlyph name="Kcommaaccent.smcp" xMin="61" yMin="-542" xMax="1161" yMax="1165">
      <component glyphName="K.smcp" x="0" y="0" flags="0x204"/>
      <component glyphName="commaaccent" x="374" y="-305" flags="0x4"/>
    </TTGlyph>
    <TTGlyph name="L" xMin="71" yMin="0" xMax="1074" yMax="1456">
      <contour>
        <pt x="71" y="0" on="1"/>
        <pt x="71" y="88" on="1"/>
        <pt x="234" y="101" on="1"/>
        <pt x="234" y="1354" on="1"/>
        <pt x="71" y="1367" on="1"/>
        <pt x="71" y="1456" on="1"/>
        <pt x="234" y="1456" on="1"/>
        <pt x="354" y="1456" on="1"/>
        <pt x="517" y="1456" on="1"/>
        <pt x="517" y="1367" on="1"/>
        <pt x="354" y="1354" on="1"/>
        <pt x="354" y="101" on="1"/>
        <pt x="959" y="101" on="1"/>
        <pt x="968" y="306" on="1"/>
        <pt x="1074" y="306" on="1"/>
        <pt x="1074" y="0" on="1"/>
      </contour>
    </TTGlyph>
    <TTGlyph name="L.smcp" xMin="61" yMin="0" xMax="945" yMax="1165">
      <contour>
        <pt x="61" y="0" on="1"/>
        <pt x="61" y="88" on="1"/>
        <pt x="224" y="101" on="1"/>
        <pt x="224" y="1063" on="1"/>
        <pt x="61" y="1076" on="1"/>
        <pt x="61" y="1165" on="1"/>
        <pt x="224" y="1165" on="1"/>
        <pt x="344" y="1165" on="1"/>
        <pt x="507" y="1165" on="1"/>
        <pt x="507" y="1076" on="1"/>
        <pt x="344" y="1063" on="1"/>
        <pt x="344" y="100" on="1"/>
        <pt x="829" y="100" on="1"/>
        <pt x="838" y="306" on="1"/>
        <pt x="945" y="306" on="1"/>
        <pt x="945" y="0" on="1"/>
      </contour>
    </TTGlyph>
    <TTGlyph name="Lacute" xMin="71" yMin="0" xMax="1074" yMax="1782">
      <component glyphName="L" x="0" y="0" flags="0x204"/>
      <component glyphName="acute" x="102" y="304" flags="0x4"/>
    </TTGlyph>
    <TTGlyph name="Lacute.smcp" xMin="61" yMin="0" xMax="945" yMax="1471">
      <component glyphName="L.smcp" x="0" y="0" flags="0x204"/>
      <component glyphName="acute" x="97" y="-7" flags="0x4"/>
    </TTGlyph>
    <TTGlyph name="Lambda" xMin="52" yMin="0" xMax="1377" yMax="1456">
      <contour>
        <pt x="52" y="88" on="1"/>
        <pt x="158" y="96" on="1"/>
        <pt x="657" y="1456" on="1"/>
        <pt x="770" y="1456" on="1"/>
        <pt x="1269" y="96" on="1"/>
        <pt x="1377" y="88" on="1"/>
        <pt x="1377" y="0" on="1"/>
        <pt x="1018" y="0" on="1"/>
        <pt x="1018" y="88" on="1"/>
        <pt x="1145" y="98" on="1"/>
        <pt x="716" y="1285" on="1"/>
        <pt x="710" y="1285" on="1"/>
        <pt x="282" y="98" on="1"/>
        <pt x="410" y="88" on="1"/>
        <pt x="410" y="0" on="1"/>
        <pt x="52" y="0" on="1"/>
      </contour>
    </TTGlyph>
    <TTGlyph name="Lcaron" xMin="71" yMin="0" xMax="1074" yMax="1456">
      <component glyphName="L" x="0" y="0" flags="0x204"/>
      <component glyphName="commaaccent" x="468" y="1280" flags="0x4"/>
    </TTGlyph>
    <TTGlyph name="Lcaron.smcp" xMin="61" yMin="0" xMax="945" yMax="1165">
      <component glyphName="L.smcp" x="0" y="0" flags="0x204"/>
      <component glyphName="commaaccent" x="415" y="989" flags="0x4"/>
    </TTGlyph>
    <TTGlyph name="Lcommaaccent" xMin="71" yMin="-538" xMax="1074" yMax="1456">
      <component glyphName="L" x="0" y="0" flags="0x204"/>
      <component glyphName="commaaccent" x="420" y="-301" flags="0x4"/>
    </TTGlyph>
    <TTGlyph name="Lcommaaccent.smcp" xMin="61" yMin="-540" xMax="945" yMax="1165">
      <component glyphName="L.smcp" x="0" y="0" flags="0x204"/>
      <component glyphName="commaaccent" x="281" y="-303" flags="0x4"/>
    </TTGlyph>
    <TTGlyph name="Ldot" xMin="71" yMin="0" xMax="1074" yMax="1456">
      <component glyphName="L" x="0" y="0" flags="0x204"/>
      <component glyphName="dotaccent" x="461" y="-601" flags="0x4"/>
    </TTGlyph>
    <TTGlyph name="Ldot.smcp" xMin="61" yMin="0" xMax="945" yMax="1165">
      <component glyphName="L.smcp" x="0" y="0" flags="0x204"/>
      <component glyphName="dotaccent" x="327" y="-756" flags="0x4"/>
    </TTGlyph>
    <TTGlyph name="Lslash" xMin="71" yMin="0" xMax="1074" yMax="1456">
      <contour>
        <pt x="517" y="1456" on="1"/>
        <pt x="517" y="1367" on="1"/>
        <pt x="354" y="1354" on="1"/>
        <pt x="354" y="812" on="1"/>
        <pt x="660" y="909" on="1"/>
        <pt x="660" y="801" on="1"/>
        <pt x="354" y="704" on="1"/>
        <pt x="354" y="101" on="1"/>
        <pt x="959" y="101" on="1"/>
        <pt x="968" y="306" on="1"/>
        <pt x="1074" y="306" on="1"/>
        <pt x="1074" y="0" on="1"/>
        <pt x="71" y="0" on="1"/>
        <pt x="71" y="88" on="1"/>
        <pt x="234" y="101" on="1"/>
        <pt x="234" y="666" on="1"/>
        <pt x="71" y="614" on="1"/>
        <pt x="71" y="722" on="1"/>
        <pt x="234" y="774" on="1"/>
        <pt x="234" y="1354" on="1"/>
        <pt x="71" y="1367" on="1"/>
        <pt x="71" y="1456" on="1"/>
        <pt x="354" y="1456" on="1"/>
      </contour>
    </TTGlyph>
    <TTGlyph name="M" xMin="71" yMin="0" xMax="1790" yMax="1456">
      <contour>
        <pt x="1518" y="1280" on="1"/>
        <pt x="1512" y="1282" on="1"/>
        <pt x="971" y="0" on="1"/>
        <pt x="888" y="0" on="1"/>
        <pt x="348" y="1276" on="1"/>
        <pt x="342" y="1275" on="1"/>
        <pt x="353" y="643" on="1"/>
        <pt x="353" y="101" on="1"/>
        <pt x="516" y="88" on="1"/>
        <pt x="516" y="0" on="1"/>
        <pt x="71" y="0" on="1"/>
        <pt x="71" y="88" on="1"/>
        <pt x="234" y="101" on="1"/>
        <pt x="234" y="1354" on="1"/>
        <pt x="71" y="1367" on="1"/>
        <pt x="71" y="1456" on="1"/>
        <pt x="234" y="1456" on="1"/>
        <pt x="391" y="1456" on="1"/>
        <pt x="926" y="174" on="1"/>
        <pt x="932" y="174" on="1"/>
        <pt x="1469" y="1456" on="1"/>
        <pt x="1790" y="1456" on="1"/>
        <pt x="1790" y="1367" on="1"/>
        <pt x="1627" y="1354" on="1"/>
        <pt x="1627" y="101" on="1"/>
        <pt x="1790" y="88" on="1"/>
        <pt x="1790" y="0" on="1"/>
        <pt x="1345" y="0" on="1"/>
        <pt x="1345" y="88" on="1"/>
        <pt x="1508" y="101" on="1"/>
        <pt x="1508" y="643" on="1"/>
      </contour>
    </TTGlyph>
    <TTGlyph name="M.smcp" xMin="61" yMin="0" xMax="1551" yMax="1165">
      <contour>
        <pt x="807" y="169" on="1"/>
        <pt x="813" y="169" on="1"/>
        <pt x="1240" y="1165" on="1"/>
        <pt x="1388" y="1165" on="1"/>
        <pt x="1551" y="1165" on="1"/>
        <pt x="1551" y="1076" on="1"/>
        <pt x="1388" y="1063" on="1"/>
        <pt x="1388" y="101" on="1"/>
        <pt x="1551" y="88" on="1"/>
        <pt x="1551" y="0" on="1"/>
        <pt x="1105" y="0" on="1"/>
        <pt x="1105" y="88" on="1"/>
        <pt x="1268" y="101" on="1"/>
        <pt x="1268" y="938" on="1"/>
        <pt x="1262" y="940" on="1"/>
        <pt x="853" y="0" on="1"/>
        <pt x="768" y="0" on="1"/>
        <pt x="350" y="964" on="1"/>
        <pt x="344" y="963" on="1"/>
        <pt x="344" y="101" on="1"/>
        <pt x="507" y="88" on="1"/>
        <pt x="507" y="0" on="1"/>
        <pt x="61" y="0" on="1"/>
        <pt x="61" y="88" on="1"/>
        <pt x="224" y="101" on="1"/>
        <pt x="224" y="1063" on="1"/>
        <pt x="61" y="1076" on="1"/>
        <pt x="61" y="1165" on="1"/>
        <pt x="224" y="1165" on="1"/>
        <pt x="381" y="1165" on="1"/>
      </contour>
    </TTGlyph>
    <TTGlyph name="Mu" xMin="71" yMin="0" xMax="1790" yMax="1456">
      <component glyphName="M" x="0" y="0" flags="0x204"/>
    </TTGlyph>
    <TTGlyph name="N" xMin="71" yMin="0" xMax="1469" yMax="1456">
      <contour>
        <pt x="1469" y="1456" on="1"/>
        <pt x="1469" y="1367" on="1"/>
        <pt x="1306" y="1354" on="1"/>
        <pt x="1306" y="0" on="1"/>
        <pt x="1187" y="0" on="1"/>
        <pt x="360" y="1252" on="1"/>
        <pt x="354" y="1251" on="1"/>
        <pt x="354" y="101" on="1"/>
        <pt x="517" y="88" on="1"/>
        <pt x="517" y="0" on="1"/>
        <pt x="71" y="0" on="1"/>
        <pt x="71" y="88" on="1"/>
        <pt x="234" y="101" on="1"/>
        <pt x="234" y="1354" on="1"/>
        <pt x="71" y="1367" on="1"/>
        <pt x="71" y="1456" on="1"/>
        <pt x="234" y="1456" on="1"/>
        <pt x="354" y="1456" on="1"/>
        <pt x="1181" y="206" on="1"/>
        <pt x="1187" y="207" on="1"/>
        <pt x="1187" y="1354" on="1"/>
        <pt x="1024" y="1367" on="1"/>
        <pt x="1024" y="1456" on="1"/>
        <pt x="1306" y="1456" on="1"/>
      </contour>
    </TTGlyph>
    <TTGlyph name="N.smcp" xMin="61" yMin="0" xMax="1335" yMax="1165">
      <contour>
        <pt x="1335" y="1165" on="1"/>
        <pt x="1335" y="1076" on="1"/>
        <pt x="1172" y="1063" on="1"/>
        <pt x="1172" y="0" on="1"/>
        <pt x="1053" y="0" on="1"/>
        <pt x="350" y="974" on="1"/>
        <pt x="344" y="972" on="1"/>
        <pt x="344" y="101" on="1"/>
        <pt x="507" y="88" on="1"/>
        <pt x="507" y="0" on="1"/>
        <pt x="61" y="0" on="1"/>
        <pt x="61" y="88" on="1"/>
        <pt x="224" y="101" on="1"/>
        <pt x="224" y="1063" on="1"/>
        <pt x="61" y="1076" on="1"/>
        <pt x="61" y="1165" on="1"/>
        <pt x="224" y="1165" on="1"/>
        <pt x="344" y="1165" on="1"/>
        <pt x="1047" y="191" on="1"/>
        <pt x="1053" y="193" on="1"/>
        <pt x="1053" y="1063" on="1"/>
        <pt x="890" y="1076" on="1"/>
        <pt x="890" y="1165" on="1"/>
        <pt x="1172" y="1165" on="1"/>
      </contour>
    </TTGlyph>
    <TTGlyph name="Nacute" xMin="71" yMin="0" xMax="1469" yMax="1818">
      <component glyphName="N" x="0" y="0" flags="0x204"/>
      <component glyphName="acute" x="546" y="340" flags="0x4"/>
    </TTGlyph>
    <TTGlyph name="Nacute.smcp" xMin="61" yMin="0" xMax="1335" yMax="1495">
      <component glyphName="N.smcp" x="0" y="0" flags="0x204"/>
      <component glyphName="acute" x="482" y="17" flags="0x4"/>
    </TTGlyph>
    <TTGlyph name="Ncaron" xMin="71" yMin="0" xMax="1469" yMax="1821">
      <component glyphName="N" x="0" y="0" flags="0x204"/>
      <component glyphName="caron" x="366" y="327" flags="0x4"/>
    </TTGlyph>
    <TTGlyph name="Ncaron.smcp" xMin="61" yMin="0" xMax="1335" yMax="1498">
      <component glyphName="N.smcp" x="0" y="0" flags="0x204"/>
      <component glyphName="caron" x="302" y="4" flags="0x4"/>
    </TTGlyph>
    <TTGlyph name="Ncommaaccent" xMin="71" yMin="-538" xMax="1469" yMax="1456">
      <component glyphName="N" x="0" y="0" flags="0x204"/>
      <component glyphName="commaaccent" x="520" y="-301" flags="0x4"/>
    </TTGlyph>
    <TTGlyph name="Ncommaaccent.smcp" xMin="61" yMin="-540" xMax="1335" yMax="1165">
      <component glyphName="N.smcp" x="0" y="0" flags="0x204"/>
      <component glyphName="commaaccent" x="458" y="-303" flags="0x4"/>
    </TTGlyph>
    <TTGlyph name="Ntilde" xMin="71" yMin="0" xMax="1469" yMax="1842">
      <component glyphName="N" x="0" y="0" flags="0x204"/>
      <component glyphName="tilde" x="290" y="341" flags="0x4"/>
    </TTGlyph>
    <TTGlyph name="Ntilde.smcp" xMin="61" yMin="0" xMax="1335" yMax="1519">
      <component glyphName="N.smcp" x="0" y="0" flags="0x204"/>
      <component glyphName="tilde" x="226" y="18" flags="0x4"/>
    </TTGlyph>
    <TTGlyph name="Nu" xMin="71" yMin="0" xMax="1469" yMax="1456">
      <component glyphName="N" x="0" y="0" flags="0x204"/>
    </TTGlyph>
    <TTGlyph name="O" xMin="106" yMin="-21" xMax="1357" yMax="1477">
      <contour>
        <pt x="1357" y="718" on="1"/>
        <pt x="1357" y="390" on="0"/>
        <pt x="1007" y="-21" on="0"/>
        <pt x="727" y="-21" on="1"/>
        <pt x="451" y="-21" on="0"/>
        <pt x="106" y="391" on="0"/>
        <pt x="106" y="718" on="1"/>
        <pt x="106" y="737" on="1"/>
        <pt x="106" y="1064" on="0"/>
        <pt x="450" y="1477" on="0"/>
        <pt x="726" y="1477" on="1"/>
        <pt x="1006" y="1477" on="0"/>
        <pt x="1357" y="1064" on="0"/>
        <pt x="1357" y="737" on="1"/>
      </contour>
      <contour>
        <pt x="1237" y="739" on="1"/>
        <pt x="1237" y="1022" on="0"/>
        <pt x="961" y="1372" on="0"/>
        <pt x="726" y="1372" on="1"/>
        <pt x="495" y="1372" on="0"/>
        <pt x="226" y="1022" on="0"/>
        <pt x="226" y="739" on="1"/>
        <pt x="226" y="718" on="1"/>
        <pt x="226" y="433" on="0"/>
        <pt x="496" y="83" on="0"/>
        <pt x="727" y="83" on="1"/>
        <pt x="964" y="83" on="0"/>
        <pt x="1237" y="432" on="0"/>
        <pt x="1237" y="718" on="1"/>
      </contour>
    </TTGlyph>
    <TTGlyph name="O.smcp" xMin="106" yMin="-17" xMax="1085" yMax="1181">
      <contour>
        <pt x="1085" y="505" on="1"/>
        <pt x="1085" y="267" on="0"/>
        <pt x="815" y="-17" on="0"/>
        <pt x="596" y="-17" on="1"/>
        <pt x="376" y="-17" on="0"/>
        <pt x="106" y="267" on="0"/>
        <pt x="106" y="505" on="1"/>
        <pt x="106" y="659" on="1"/>
        <pt x="106" y="895" on="0"/>
        <pt x="375" y="1181" on="0"/>
        <pt x="594" y="1181" on="1"/>
        <pt x="814" y="1181" on="0"/>
        <pt x="1085" y="895" on="0"/>
        <pt x="1085" y="659" on="1"/>
      </contour>
      <contour>
        <pt x="966" y="660" on="1"/>
        <pt x="966" y="861" on="0"/>
        <pt x="767" y="1080" on="0"/>
        <pt x="594" y="1080" on="1"/>
        <pt x="421" y="1080" on="0"/>
        <pt x="225" y="861" on="0"/>
        <pt x="225" y="660" on="1"/>
        <pt x="225" y="505" on="1"/>
        <pt x="225" y="302" on="0"/>
        <pt x="423" y="84" on="0"/>
        <pt x="596" y="84" on="1"/>
        <pt x="769" y="84" on="0"/>
        <pt x="966" y="302" on="0"/>
        <pt x="966" y="505" on="1"/>
      </contour>
    </TTGlyph>
    <TTGlyph name="O.ss04" xMin="114" yMin="-21" xMax="1244" yMax="1477">
      <contour>
        <pt x="1244" y="609" on="1"/>
        <pt x="1244" y="327" on="0"/>
        <pt x="935" y="-21" on="0"/>
        <pt x="675" y="-21" on="1"/>
        <pt x="419" y="-21" on="0"/>
        <pt x="114" y="327" on="0"/>
        <pt x="114" y="609" on="1"/>
        <pt x="114" y="846" on="1"/>
        <pt x="114" y="1127" on="0"/>
        <pt x="418" y="1477" on="0"/>
        <pt x="674" y="1477" on="1"/>
        <pt x="934" y="1477" on="0"/>
        <pt x="1244" y="1127" on="0"/>
        <pt x="1244" y="846" on="1"/>
      </contour>
      <contour>
        <pt x="1125" y="848" on="1"/>
        <pt x="1125" y="1084" on="0"/>
        <pt x="886" y="1372" on="0"/>
        <pt x="674" y="1372" on="1"/>
        <pt x="466" y="1372" on="0"/>
        <pt x="234" y="1084" on="0"/>
        <pt x="234" y="848" on="1"/>
        <pt x="234" y="609" on="1"/>
        <pt x="234" y="371" on="0"/>
        <pt x="467" y="83" on="0"/>
        <pt x="675" y="83" on="1"/>
        <pt x="888" y="83" on="0"/>
        <pt x="1125" y="370" on="0"/>
        <pt x="1125" y="609" on="1"/>
      </contour>
    </TTGlyph>
    <TTGlyph name="OE" xMin="114" yMin="-21" xMax="1857" yMax="1477">
      <contour>
        <pt x="963" y="0" on="1"/>
        <pt x="864" y="-10" on="0"/>
        <pt x="725" y="-21" on="0"/>
        <pt x="652" y="-21" on="1"/>
        <pt x="412" y="-21" on="0"/>
        <pt x="114" y="311" on="0"/>
        <pt x="114" y="576" on="1"/>
        <pt x="114" y="880" on="1"/>
        <pt x="114" y="1145" on="0"/>
        <pt x="411" y="1477" on="0"/>
        <pt x="650" y="1477" on="1"/>
        <pt x="725" y="1477" on="0"/>
        <pt x="878" y="1465" on="0"/>
        <pt x="963" y="1456" on="1"/>
        <pt x="1852" y="1456" on="1"/>
        <pt x="1852" y="1136" on="1"/>
        <pt x="1746" y="1136" on="1"/>
        <pt x="1737" y="1354" on="1"/>
        <pt x="1054" y="1354" on="1"/>
        <pt x="1054" y="807" on="1"/>
        <pt x="1651" y="807" on="1"/>
        <pt x="1651" y="705" on="1"/>
        <pt x="1054" y="705" on="1"/>
        <pt x="1054" y="101" on="1"/>
        <pt x="1742" y="101" on="1"/>
        <pt x="1751" y="319" on="1"/>
        <pt x="1857" y="319" on="1"/>
        <pt x="1857" y="0" on="1"/>
      </contour>
      <contour>
        <pt x="652" y="81" on="1"/>
        <pt x="681" y="81" on="0"/>
        <pt x="742" y="82" on="0"/>
        <pt x="772" y="84" on="1"/>
        <pt x="772" y="88" on="1"/>
        <pt x="935" y="101" on="1"/>
        <pt x="935" y="1354" on="1"/>
        <pt x="772" y="1367" on="1"/>
        <pt x="772" y="1372" on="1"/>
        <pt x="742" y="1373" on="0"/>
        <pt x="680" y="1375" on="0"/>
        <pt x="650" y="1375" on="1"/>
        <pt x="458" y="1375" on="0"/>
        <pt x="234" y="1111" on="0"/>
        <pt x="234" y="882" on="1"/>
        <pt x="234" y="576" on="1"/>
        <pt x="234" y="348" on="0"/>
        <pt x="461" y="81" on="0"/>
      </contour>
    </TTGlyph>
    <TTGlyph name="Oacute" xMin="106" yMin="-21" xMax="1357" yMax="1828">
      <component glyphName="O" x="0" y="0" flags="0x204"/>
      <component glyphName="acute" x="537" y="350" flags="0x4"/>
    </TTGlyph>
    <TTGlyph name="Oacute.smcp" xMin="106" yMin="-17" xMax="1085" yMax="1502">
      <component glyphName="O.smcp" x="0" y="0" flags="0x204"/>
      <component glyphName="acute" x="399" y="24" flags="0x4"/>
    </TTGlyph>
    <TTGlyph name="Obreve" xMin="106" yMin="-21" xMax="1357" yMax="1845">
      <component glyphName="O" x="0" y="0" flags="0x204"/>
      <component glyphName="breve" x="317" y="389" flags="0x4"/>
    </TTGlyph>
    <TTGlyph name="Obreve.smcp" xMin="106" yMin="-17" xMax="1085" yMax="1519">
      <component glyphName="O.smcp" x="0" y="0" flags="0x204"/>
      <component glyphName="breve" x="179" y="63" flags="0x4"/>
    </TTGlyph>
    <TTGlyph name="Ocircumflex" xMin="106" yMin="-21" xMax="1357" yMax="1847">
      <component glyphName="O" x="0" y="0" flags="0x204"/>
      <component glyphName="circumflex" x="350" y="353" flags="0x4"/>
    </TTGlyph>
    <TTGlyph name="Ocircumflex.smcp" xMin="106" yMin="-17" xMax="1085" yMax="1521">
      <component glyphName="O.smcp" x="0" y="0" flags="0x204"/>
      <component glyphName="circumflex" x="212" y="27" flags="0x4"/>
    </TTGlyph>
    <TTGlyph name="Odieresis" xMin="106" yMin="-21" xMax="1357" yMax="1808">
      <component glyphName="O" x="0" y="0" flags="0x204"/>
      <component glyphName="dieresis" x="249" y="352" flags="0x4"/>
    </TTGlyph>
    <TTGlyph name="Odieresis.smcp" xMin="106" yMin="-17" xMax="1085" yMax="1482">
      <component glyphName="O.smcp" x="0" y="0" flags="0x204"/>
      <component glyphName="dieresis" x="111" y="26" flags="0x4"/>
    </TTGlyph>
    <TTGlyph name="Ograve" xMin="106" yMin="-21" xMax="1357" yMax="1843">
      <component glyphName="O" x="0" y="0" flags="0x204"/>
      <component glyphName="grave" x="355" y="367" flags="0x4"/>
    </TTGlyph>
    <TTGlyph name="Ograve.smcp" xMin="106" yMin="-17" xMax="1085" yMax="1517">
      <component glyphName="O.smcp" x="0" y="0" flags="0x204"/>
      <component glyphName="grave" x="217" y="41" flags="0x4"/>
    </TTGlyph>
    <TTGlyph name="Ohorn" xMin="98" yMin="-21" xMax="1477" yMax="1566">
      <contour>
        <pt x="1349" y="718" on="1"/>
        <pt x="1349" y="390" on="0"/>
        <pt x="999" y="-21" on="0"/>
        <pt x="719" y="-21" on="1"/>
        <pt x="443" y="-21" on="0"/>
        <pt x="98" y="391" on="0"/>
        <pt x="98" y="718" on="1"/>
        <pt x="98" y="737" on="1"/>
        <pt x="98" y="1064" on="0"/>
        <pt x="442" y="1477" on="0"/>
        <pt x="718" y="1477" on="1"/>
        <pt x="853" y="1477" on="0"/>
        <pt x="1081" y="1374" on="0"/>
        <pt x="1165" y="1279" on="1"/>
        <pt x="1276" y="1288" on="0"/>
        <pt x="1366" y="1430" on="0"/>
        <pt x="1366" y="1566" on="1"/>
        <pt x="1477" y="1566" on="1"/>
        <pt x="1477" y="1406" on="0"/>
        <pt x="1355" y="1219" on="0"/>
        <pt x="1229" y="1194" on="1"/>
        <pt x="1287" y="1100" on="0"/>
        <pt x="1349" y="869" on="0"/>
        <pt x="1349" y="737" on="1"/>
      </contour>
      <contour>
        <pt x="1229" y="739" on="1"/>
        <pt x="1229" y="1022" on="0"/>
        <pt x="953" y="1372" on="0"/>
        <pt x="718" y="1372" on="1"/>
        <pt x="487" y="1372" on="0"/>
        <pt x="218" y="1022" on="0"/>
        <pt x="218" y="739" on="1"/>
        <pt x="218" y="718" on="1"/>
        <pt x="218" y="433" on="0"/>
        <pt x="488" y="83" on="0"/>
        <pt x="719" y="83" on="1"/>
        <pt x="956" y="83" on="0"/>
        <pt x="1229" y="432" on="0"/>
        <pt x="1229" y="718" on="1"/>
      </contour>
    </TTGlyph>
    <TTGlyph name="Ohungarumlaut" xMin="106" yMin="-21" xMax="1357" yMax="1877">
      <component glyphName="O" x="0" y="0" flags="0x204"/>
      <component glyphName="hungarumlaut" x="392" y="359" flags="0x4"/>
    </TTGlyph>
    <TTGlyph name="Ohungarumlaut.smcp" xMin="106" yMin="-17" xMax="1085" yMax="1551">
      <component glyphName="O.smcp" x="0" y="0" flags="0x204"/>
      <component glyphName="hungarumlaut" x="254" y="33" flags="0x4"/>
    </TTGlyph>
    <TTGlyph name="Omacron" xMin="106" yMin="-21" xMax="1357" yMax="1801">
      <component glyphName="O" x="0" y="0" flags="0x204"/>
      <component glyphName="macron" x="245" y="345" flags="0x4"/>
    </TTGlyph>
    <TTGlyph name="Omacron.smcp" xMin="106" yMin="-17" xMax="1085" yMax="1475">
      <component glyphName="O.smcp" x="0" y="0" flags="0x204"/>
      <component glyphName="macron" x="107" y="19" flags="0x4"/>
    </TTGlyph>
    <TTGlyph name="Omega" xMin="80" yMin="0" xMax="1238" yMax="1477">
      <contour>
        <pt x="745" y="134" on="1"/>
        <pt x="898" y="181" on="0"/>
        <pt x="1118" y="504" on="0"/>
        <pt x="1118" y="767" on="1"/>
        <pt x="1118" y="815" on="1"/>
        <pt x="1118" y="1068" on="0"/>
        <pt x="868" y="1375" on="0"/>
        <pt x="658" y="1375" on="1"/>
        <pt x="448" y="1375" on="0"/>
        <pt x="200" y="1068" on="0"/>
        <pt x="200" y="815" on="1"/>
        <pt x="200" y="767" on="1"/>
        <pt x="200" y="504" on="0"/>
        <pt x="424" y="181" on="0"/>
        <pt x="579" y="134" on="1"/>
        <pt x="579" y="0" on="1"/>
        <pt x="116" y="0" on="1"/>
        <pt x="116" y="101" on="1"/>
        <pt x="438" y="101" on="1"/>
        <pt x="283" y="190" on="0"/>
        <pt x="80" y="544" on="0"/>
        <pt x="80" y="767" on="1"/>
        <pt x="80" y="813" on="1"/>
        <pt x="80" y="1101" on="0"/>
        <pt x="402" y="1477" on="0"/>
        <pt x="658" y="1477" on="1"/>
        <pt x="914" y="1477" on="0"/>
        <pt x="1238" y="1101" on="0"/>
        <pt x="1238" y="813" on="1"/>
        <pt x="1238" y="767" on="1"/>
        <pt x="1238" y="544" on="0"/>
        <pt x="1035" y="190" on="0"/>
        <pt x="883" y="101" on="1"/>
        <pt x="1208" y="101" on="1"/>
        <pt x="1208" y="0" on="1"/>
        <pt x="745" y="0" on="1"/>
      </contour>
    </TTGlyph>
    <TTGlyph name="Omegatonos" xMin="22" yMin="0" xMax="1258" yMax="1617">
      <component glyphName="Omega" x="20" y="0" flags="0x4"/>
      <component glyphName="tonos" x="-114" y="0" flags="0x4"/>
    </TTGlyph>
    <TTGlyph name="Omicron" xMin="106" yMin="-21" xMax="1357" yMax="1477">
      <component glyphName="O" x="0" y="0" flags="0x204"/>
    </TTGlyph>
    <TTGlyph name="Omicrontonos" xMin="8" yMin="-21" xMax="1377" yMax="1617">
      <component glyphName="O" x="20" y="0" flags="0x4"/>
      <component glyphName="tonos" x="-128" y="0" flags="0x4"/>
    </TTGlyph>
    <TTGlyph name="Oslash" xMin="100" yMin="-84" xMax="1351" yMax="1505">
      <contour>
        <pt x="1351" y="718" on="1"/>
        <pt x="1351" y="390" on="0"/>
        <pt x="1001" y="-21" on="0"/>
        <pt x="721" y="-21" on="1"/>
        <pt x="623" y="-21" on="0"/>
        <pt x="449" y="34" on="0"/>
        <pt x="378" y="87" on="1"/>
        <pt x="273" y="-84" on="1"/>
        <pt x="169" y="-84" on="1"/>
        <pt x="310" y="145" on="1"/>
        <pt x="209" y="244" on="0"/>
        <pt x="100" y="539" on="0"/>
        <pt x="100" y="718" on="1"/>
        <pt x="100" y="737" on="1"/>
        <pt x="100" y="1064" on="0"/>
        <pt x="444" y="1477" on="0"/>
        <pt x="720" y="1477" on="1"/>
        <pt x="816" y="1477" on="0"/>
        <pt x="991" y="1423" on="0"/>
        <pt x="1065" y="1372" on="1"/>
        <pt x="1147" y="1505" on="1"/>
        <pt x="1251" y="1505" on="1"/>
        <pt x="1134" y="1314" on="1"/>
        <pt x="1237" y="1214" on="0"/>
        <pt x="1351" y="916" on="0"/>
        <pt x="1351" y="737" on="1"/>
      </contour>
      <contour>
        <pt x="1231" y="739" on="1"/>
        <pt x="1231" y="887" on="0"/>
        <pt x="1150" y="1132" on="0"/>
        <pt x="1077" y="1212" on="1"/>
        <pt x="1071" y="1213" on="1"/>
        <pt x="434" y="178" on="1"/>
        <pt x="493" y="131" on="0"/>
        <pt x="637" y="83" on="0"/>
        <pt x="721" y="83" on="1"/>
        <pt x="958" y="83" on="0"/>
        <pt x="1231" y="432" on="0"/>
        <pt x="1231" y="718" on="1"/>
      </contour>
      <contour>
        <pt x="220" y="718" on="1"/>
        <pt x="220" y="570" on="0"/>
        <pt x="296" y="327" on="0"/>
        <pt x="367" y="248" on="1"/>
        <pt x="373" y="247" on="1"/>
        <pt x="1008" y="1280" on="1"/>
        <pt x="948" y="1324" on="0"/>
        <pt x="803" y="1372" on="0"/>
        <pt x="720" y="1372" on="1"/>
        <pt x="489" y="1372" on="0"/>
        <pt x="220" y="1022" on="0"/>
        <pt x="220" y="739" on="1"/>
      </contour>
    </TTGlyph>
    <TTGlyph name="Oslashacute" xMin="100" yMin="-84" xMax="1351" yMax="1851">
      <component glyphName="Oslash" x="0" y="0" flags="0x204"/>
      <component glyphName="acute" x="509" y="373" flags="0x4"/>
    </TTGlyph>
    <TTGlyph name="Otilde" xMin="106" yMin="-21" xMax="1357" yMax="1852">
      <component glyphName="O" x="0" y="0" flags="0x204"/>
      <component glyphName="tilde" x="281" y="351" flags="0x4"/>
    </TTGlyph>
    <TTGlyph name="Otilde.smcp" xMin="106" yMin="-17" xMax="1085" yMax="1526">
      <component glyphName="O.smcp" x="0" y="0" flags="0x204"/>
      <component glyphName="tilde" x="143" y="25" flags="0x4"/>
    </TTGlyph>
    <TTGlyph name="P" xMin="71" yMin="0" xMax="1165" yMax="1456">
      <contour>
        <pt x="685" y="1456" on="1"/>
        <pt x="914" y="1456" on="0"/>
        <pt x="1165" y="1223" on="0"/>
        <pt x="1165" y="1031" on="1"/>
        <pt x="1165" y="837" on="0"/>
        <pt x="914" y="605" on="0"/>
        <pt x="685" y="605" on="1"/>
        <pt x="353" y="605" on="1"/>
        <pt x="353" y="101" on="1"/>
        <pt x="516" y="88" on="1"/>
        <pt x="516" y="0" on="1"/>
        <pt x="71" y="0" on="1"/>
        <pt x="71" y="88" on="1"/>
        <pt x="234" y="101" on="1"/>
        <pt x="234" y="1354" on="1"/>
        <pt x="71" y="1367" on="1"/>
        <pt x="71" y="1456" on="1"/>
        <pt x="234" y="1456" on="1"/>
      </contour>
      <contour>
        <pt x="353" y="707" on="1"/>
        <pt x="685" y="707" on="1"/>
        <pt x="865" y="707" on="0"/>
        <pt x="1046" y="890" on="0"/>
        <pt x="1046" y="1029" on="1"/>
        <pt x="1046" y="1169" on="0"/>
        <pt x="866" y="1354" on="0"/>
        <pt x="685" y="1354" on="1"/>
        <pt x="353" y="1354" on="1"/>
      </contour>
    </TTGlyph>
    <TTGlyph name="P.smcp" xMin="43" yMin="0" xMax="1057" yMax="1165">
      <contour>
        <pt x="648" y="1165" on="1"/>
        <pt x="839" y="1165" on="0"/>
        <pt x="1057" y="961" on="0"/>
        <pt x="1057" y="800" on="1"/>
        <pt x="1057" y="638" on="0"/>
        <pt x="839" y="436" on="0"/>
        <pt x="648" y="436" on="1"/>
        <pt x="326" y="436" on="1"/>
        <pt x="326" y="101" on="1"/>
        <pt x="489" y="88" on="1"/>
        <pt x="489" y="0" on="1"/>
        <pt x="43" y="0" on="1"/>
        <pt x="43" y="88" on="1"/>
        <pt x="206" y="101" on="1"/>
        <pt x="206" y="1063" on="1"/>
        <pt x="43" y="1076" on="1"/>
        <pt x="43" y="1165" on="1"/>
        <pt x="206" y="1165" on="1"/>
      </contour>
      <contour>
        <pt x="326" y="537" on="1"/>
        <pt x="648" y="537" on="1"/>
        <pt x="791" y="537" on="0"/>
        <pt x="936" y="688" on="0"/>
        <pt x="936" y="798" on="1"/>
        <pt x="936" y="910" on="0"/>
        <pt x="791" y="1064" on="0"/>
        <pt x="648" y="1064" on="1"/>
        <pt x="326" y="1064" on="1"/>
      </contour>
    </TTGlyph>
    <TTGlyph name="Phi" xMin="79" yMin="0" xMax="1364" yMax="1456">
      <contour>
        <pt x="659" y="211" on="1"/>
        <pt x="401" y="211" on="0"/>
        <pt x="79" y="504" on="0"/>
        <pt x="79" y="730" on="1"/>
        <pt x="79" y="954" on="0"/>
        <pt x="401" y="1250" on="0"/>
        <pt x="659" y="1250" on="1"/>
        <pt x="661" y="1250" on="1"/>
        <pt x="661" y="1354" on="1"/>
        <pt x="498" y="1367" on="1"/>
        <pt x="498" y="1456" on="1"/>
        <pt x="661" y="1456" on="1"/>
        <pt x="944" y="1456" on="1"/>
        <pt x="944" y="1367" on="1"/>
        <pt x="781" y="1354" on="1"/>
        <pt x="781" y="1250" on="1"/>
        <pt x="783" y="1250" on="1"/>
        <pt x="1039" y="1250" on="0"/>
        <pt x="1364" y="955" on="0"/>
        <pt x="1364" y="732" on="1"/>
        <pt x="1364" y="506" on="0"/>
        <pt x="1039" y="211" on="0"/>
        <pt x="783" y="211" on="1"/>
        <pt x="781" y="211" on="1"/>
        <pt x="781" y="101" on="1"/>
        <pt x="944" y="88" on="1"/>
        <pt x="944" y="0" on="1"/>
        <pt x="498" y="0" on="1"/>
        <pt x="498" y="88" on="1"/>
        <pt x="661" y="101" on="1"/>
        <pt x="661" y="211" on="1"/>
      </contour>
      <contour>
        <pt x="781" y="1148" on="1"/>
        <pt x="781" y="312" on="1"/>
        <pt x="785" y="312" on="1"/>
        <pt x="998" y="312" on="0"/>
        <pt x="1245" y="544" on="0"/>
        <pt x="1245" y="732" on="1"/>
        <pt x="1245" y="917" on="0"/>
        <pt x="997" y="1148" on="0"/>
        <pt x="785" y="1148" on="1"/>
      </contour>
      <contour>
        <pt x="659" y="1148" on="1"/>
        <pt x="445" y="1148" on="0"/>
        <pt x="198" y="914" on="0"/>
        <pt x="198" y="730" on="1"/>
        <pt x="198" y="542" on="0"/>
        <pt x="444" y="312" on="0"/>
        <pt x="659" y="312" on="1"/>
        <pt x="661" y="312" on="1"/>
        <pt x="661" y="1148" on="1"/>
      </contour>
    </TTGlyph>
    <TTGlyph name="Pi" xMin="77" yMin="0" xMax="1470" yMax="1456">
      <contour>
        <pt x="77" y="88" on="1"/>
        <pt x="240" y="101" on="1"/>
        <pt x="240" y="1354" on="1"/>
        <pt x="77" y="1367" on="1"/>
        <pt x="77" y="1456" on="1"/>
        <pt x="1470" y="1456" on="1"/>
        <pt x="1470" y="1367" on="1"/>
        <pt x="1307" y="1354" on="1"/>
        <pt x="1307" y="101" on="1"/>
        <pt x="1470" y="88" on="1"/>
        <pt x="1470" y="0" on="1"/>
        <pt x="1025" y="0" on="1"/>
        <pt x="1025" y="88" on="1"/>
        <pt x="1188" y="101" on="1"/>
        <pt x="1188" y="1354" on="1"/>
        <pt x="359" y="1354" on="1"/>
        <pt x="359" y="101" on="1"/>
        <pt x="522" y="88" on="1"/>
        <pt x="522" y="0" on="1"/>
        <pt x="77" y="0" on="1"/>
      </contour>
    </TTGlyph>
    <TTGlyph name="Psi" xMin="55" yMin="0" xMax="1545" yMax="1456">
      <contour>
        <pt x="1018" y="1456" on="1"/>
        <pt x="1018" y="1367" on="1"/>
        <pt x="855" y="1354" on="1"/>
        <pt x="855" y="499" on="1"/>
        <pt x="861" y="497" on="1"/>
        <pt x="1040" y="506" on="0"/>
        <pt x="1263" y="742" on="0"/>
        <pt x="1263" y="936" on="1"/>
        <pt x="1263" y="1456" on="1"/>
        <pt x="1545" y="1456" on="1"/>
        <pt x="1545" y="1367" on="1"/>
        <pt x="1382" y="1354" on="1"/>
        <pt x="1382" y="936" on="1"/>
        <pt x="1382" y="690" on="0"/>
        <pt x="1092" y="402" on="0"/>
        <pt x="855" y="388" on="1"/>
        <pt x="855" y="101" on="1"/>
        <pt x="1018" y="88" on="1"/>
        <pt x="1018" y="0" on="1"/>
        <pt x="572" y="0" on="1"/>
        <pt x="572" y="88" on="1"/>
        <pt x="735" y="101" on="1"/>
        <pt x="735" y="388" on="1"/>
        <pt x="502" y="403" on="0"/>
        <pt x="218" y="691" on="0"/>
        <pt x="218" y="936" on="1"/>
        <pt x="218" y="1354" on="1"/>
        <pt x="55" y="1367" on="1"/>
        <pt x="55" y="1456" on="1"/>
        <pt x="218" y="1456" on="1"/>
        <pt x="337" y="1456" on="1"/>
        <pt x="337" y="936" on="1"/>
        <pt x="337" y="743" on="0"/>
        <pt x="554" y="508" on="0"/>
        <pt x="729" y="497" on="1"/>
        <pt x="735" y="499" on="1"/>
        <pt x="735" y="1354" on="1"/>
        <pt x="572" y="1367" on="1"/>
        <pt x="572" y="1456" on="1"/>
        <pt x="735" y="1456" on="1"/>
        <pt x="855" y="1456" on="1"/>
      </contour>
    </TTGlyph>
    <TTGlyph name="Q" xMin="106" yMin="-212" xMax="1365" yMax="1477">
      <contour>
        <pt x="1357" y="718" on="1"/>
        <pt x="1357" y="505" on="0"/>
        <pt x="1202" y="172" on="0"/>
        <pt x="1064" y="79" on="1"/>
        <pt x="1365" y="-136" on="1"/>
        <pt x="1282" y="-212" on="1"/>
        <pt x="954" y="21" on="1"/>
        <pt x="901" y="0" on="0"/>
        <pt x="787" y="-21" on="0"/>
        <pt x="727" y="-21" on="1"/>
        <pt x="451" y="-21" on="0"/>
        <pt x="106" y="391" on="0"/>
        <pt x="106" y="718" on="1"/>
        <pt x="106" y="737" on="1"/>
        <pt x="106" y="1064" on="0"/>
        <pt x="450" y="1477" on="0"/>
        <pt x="726" y="1477" on="1"/>
        <pt x="1006" y="1477" on="0"/>
        <pt x="1357" y="1064" on="0"/>
        <pt x="1357" y="737" on="1"/>
      </contour>
      <contour>
        <pt x="1237" y="739" on="1"/>
        <pt x="1237" y="1022" on="0"/>
        <pt x="961" y="1372" on="0"/>
        <pt x="726" y="1372" on="1"/>
        <pt x="495" y="1372" on="0"/>
        <pt x="226" y="1022" on="0"/>
        <pt x="226" y="739" on="1"/>
        <pt x="226" y="718" on="1"/>
        <pt x="226" y="433" on="0"/>
        <pt x="496" y="83" on="0"/>
        <pt x="727" y="83" on="1"/>
        <pt x="964" y="83" on="0"/>
        <pt x="1237" y="432" on="0"/>
        <pt x="1237" y="718" on="1"/>
      </contour>
    </TTGlyph>
    <TTGlyph name="Q.smcp" xMin="106" yMin="-156" xMax="1150" yMax="1181">
      <contour>
        <pt x="1085" y="505" on="1"/>
        <pt x="1085" y="371" on="0"/>
        <pt x="995" y="159" on="0"/>
        <pt x="913" y="91" on="1"/>
        <pt x="1150" y="-77" on="1"/>
        <pt x="1063" y="-156" on="1"/>
        <pt x="827" y="34" on="1"/>
        <pt x="776" y="8" on="0"/>
        <pt x="660" y="-17" on="0"/>
        <pt x="596" y="-17" on="1"/>
        <pt x="376" y="-17" on="0"/>
        <pt x="106" y="267" on="0"/>
        <pt x="106" y="505" on="1"/>
        <pt x="106" y="659" on="1"/>
        <pt x="106" y="895" on="0"/>
        <pt x="375" y="1181" on="0"/>
        <pt x="594" y="1181" on="1"/>
        <pt x="814" y="1181" on="0"/>
        <pt x="1085" y="895" on="0"/>
        <pt x="1085" y="659" on="1"/>
      </contour>
      <contour>
        <pt x="966" y="660" on="1"/>
        <pt x="966" y="861" on="0"/>
        <pt x="767" y="1080" on="0"/>
        <pt x="594" y="1080" on="1"/>
        <pt x="421" y="1080" on="0"/>
        <pt x="225" y="861" on="0"/>
        <pt x="225" y="660" on="1"/>
        <pt x="225" y="505" on="1"/>
        <pt x="225" y="302" on="0"/>
        <pt x="423" y="84" on="0"/>
        <pt x="596" y="84" on="1"/>
        <pt x="769" y="84" on="0"/>
        <pt x="966" y="302" on="0"/>
        <pt x="966" y="505" on="1"/>
      </contour>
    </TTGlyph>
    <TTGlyph name="R" xMin="71" yMin="0" xMax="1305" yMax="1455">
      <contour>
        <pt x="676" y="1455" on="1"/>
        <pt x="910" y="1455" on="0"/>
        <pt x="1161" y="1251" on="0"/>
        <pt x="1161" y="1058" on="1"/>
        <pt x="1161" y="944" on="0"/>
        <pt x="1027" y="762" on="0"/>
        <pt x="905" y="721" on="1"/>
        <pt x="1040" y="687" on="0"/>
        <pt x="1159" y="512" on="0"/>
        <pt x="1159" y="379" on="1"/>
        <pt x="1159" y="246" on="1"/>
        <pt x="1159" y="169" on="0"/>
        <pt x="1207" y="95" on="0"/>
        <pt x="1256" y="92" on="1"/>
        <pt x="1305" y="89" on="1"/>
        <pt x="1305" y="0" on="1"/>
        <pt x="1229" y="0" on="1"/>
        <pt x="1123" y="0" on="0"/>
        <pt x="1039" y="144" on="0"/>
        <pt x="1039" y="248" on="1"/>
        <pt x="1039" y="377" on="1"/>
        <pt x="1039" y="509" on="0"/>
        <pt x="870" y="664" on="0"/>
        <pt x="719" y="667" on="1"/>
        <pt x="353" y="667" on="1"/>
        <pt x="353" y="101" on="1"/>
        <pt x="516" y="87" on="1"/>
        <pt x="516" y="0" on="1"/>
        <pt x="71" y="0" on="1"/>
        <pt x="71" y="87" on="1"/>
        <pt x="234" y="101" on="1"/>
        <pt x="234" y="1353" on="1"/>
        <pt x="71" y="1367" on="1"/>
        <pt x="71" y="1455" on="1"/>
      </contour>
      <contour>
        <pt x="353" y="769" on="1"/>
        <pt x="662" y="769" on="1"/>
        <pt x="859" y="769" on="0"/>
        <pt x="1041" y="927" on="0"/>
        <pt x="1041" y="1059" on="1"/>
        <pt x="1041" y="1199" on="0"/>
        <pt x="859" y="1353" on="0"/>
        <pt x="676" y="1353" on="1"/>
        <pt x="353" y="1353" on="1"/>
      </contour>
    </TTGlyph>
    <TTGlyph name="R.smcp" xMin="61" yMin="0" xMax="1185" yMax="1165">
      <contour>
        <pt x="668" y="1165" on="1"/>
        <pt x="863" y="1165" on="0"/>
        <pt x="1073" y="994" on="0"/>
        <pt x="1073" y="836" on="1"/>
        <pt x="1073" y="738" on="0"/>
        <pt x="974" y="599" on="0"/>
        <pt x="876" y="564" on="1"/>
        <pt x="980" y="536" on="0"/>
        <pt x="1071" y="396" on="0"/>
        <pt x="1071" y="291" on="1"/>
        <pt x="1071" y="172" on="1"/>
        <pt x="1071" y="146" on="0"/>
        <pt x="1072" y="112" on="0"/>
        <pt x="1074" y="97" on="1"/>
        <pt x="1185" y="88" on="1"/>
        <pt x="1185" y="0" on="1"/>
        <pt x="970" y="0" on="1"/>
        <pt x="958" y="24" on="0"/>
        <pt x="952" y="121" on="0"/>
        <pt x="952" y="173" on="1"/>
        <pt x="952" y="289" on="1"/>
        <pt x="952" y="393" on="0"/>
        <pt x="821" y="509" on="0"/>
        <pt x="702" y="509" on="1"/>
        <pt x="344" y="509" on="1"/>
        <pt x="344" y="101" on="1"/>
        <pt x="507" y="88" on="1"/>
        <pt x="507" y="0" on="1"/>
        <pt x="61" y="0" on="1"/>
        <pt x="61" y="88" on="1"/>
        <pt x="224" y="101" on="1"/>
        <pt x="224" y="1063" on="1"/>
        <pt x="61" y="1076" on="1"/>
        <pt x="61" y="1165" on="1"/>
        <pt x="224" y="1165" on="1"/>
      </contour>
      <contour>
        <pt x="344" y="610" on="1"/>
        <pt x="668" y="610" on="1"/>
        <pt x="818" y="610" on="0"/>
        <pt x="953" y="723" on="0"/>
        <pt x="953" y="833" on="1"/>
        <pt x="953" y="944" on="0"/>
        <pt x="817" y="1064" on="0"/>
        <pt x="668" y="1064" on="1"/>
        <pt x="344" y="1064" on="1"/>
      </contour>
    </TTGlyph>
    <TTGlyph name="Racute" xMin="71" yMin="0" xMax="1305" yMax="1818">
      <component glyphName="R" x="0" y="0" flags="0x204"/>
      <component glyphName="acute" x="432" y="340" flags="0x4"/>
    </TTGlyph>
    <TTGlyph name="Racute.smcp" xMin="61" yMin="0" xMax="1185" yMax="1495">
      <component glyphName="R.smcp" x="0" y="0" flags="0x204"/>
      <component glyphName="acute" x="414" y="17" flags="0x4"/>
    </TTGlyph>
    <TTGlyph name="Rcaron" xMin="71" yMin="0" xMax="1305" yMax="1821">
      <component glyphName="R" x="0" y="0" flags="0x204"/>
      <component glyphName="caron" x="252" y="327" flags="0x4"/>
    </TTGlyph>
    <TTGlyph name="Rcaron.smcp" xMin="61" yMin="0" xMax="1185" yMax="1498">
      <component glyphName="R.smcp" x="0" y="0" flags="0x204"/>
      <component glyphName="caron" x="234" y="4" flags="0x4"/>
    </TTGlyph>
    <TTGlyph name="Rcommaaccent" xMin="71" yMin="-538" xMax="1305" yMax="1455">
      <component glyphName="R" x="0" y="0" flags="0x204"/>
      <component glyphName="commaaccent" x="450" y="-301" flags="0x4"/>
    </TTGlyph>
    <TTGlyph name="Rcommaaccent.smcp" xMin="61" yMin="-540" xMax="1185" yMax="1165">
      <component glyphName="R.smcp" x="0" y="0" flags="0x204"/>
      <component glyphName="commaaccent" x="403" y="-303" flags="0x4"/>
    </TTGlyph>
    <TTGlyph name="Rho" xMin="71" yMin="0" xMax="1165" yMax="1456">
      <component glyphName="P" x="0" y="0" flags="0x204"/>
    </TTGlyph>
    <TTGlyph name="S" xMin="109" yMin="-21" xMax="1122" yMax="1477">
      <contour>
        <pt x="1099" y="1024" on="1"/>
        <pt x="1001" y="1024" on="1"/>
        <pt x="984" y="1230" on="1"/>
        <pt x="930" y="1298" on="0"/>
        <pt x="744" y="1375" on="0"/>
        <pt x="619" y="1375" on="1"/>
        <pt x="439" y="1375" on="0"/>
        <pt x="238" y="1219" on="0"/>
        <pt x="238" y="1103" on="1"/>
        <pt x="238" y="993" on="0"/>
        <pt x="419" y="846" on="0"/>
        <pt x="642" y="790" on="1"/>
        <pt x="877" y="730" on="0"/>
        <pt x="1122" y="526" on="0"/>
        <pt x="1122" y="359" on="1"/>
        <pt x="1122" y="185" on="0"/>
        <pt x="838" y="-21" on="0"/>
        <pt x="617" y="-21" on="1"/>
        <pt x="461" y="-21" on="0"/>
        <pt x="194" y="89" on="0"/>
        <pt x="109" y="191" on="1"/>
        <pt x="109" y="446" on="1"/>
        <pt x="207" y="446" on="1"/>
        <pt x="224" y="233" on="1"/>
        <pt x="290" y="158" on="0"/>
        <pt x="496" y="80" on="0"/>
        <pt x="617" y="80" on="1"/>
        <pt x="789" y="80" on="0"/>
        <pt x="1002" y="232" on="0"/>
        <pt x="1002" y="357" on="1"/>
        <pt x="1002" y="476" on="0"/>
        <pt x="824" y="627" on="0"/>
        <pt x="603" y="685" on="1"/>
        <pt x="364" y="745" on="0"/>
        <pt x="118" y="937" on="0"/>
        <pt x="118" y="1100" on="1"/>
        <pt x="118" y="1267" on="0"/>
        <pt x="398" y="1477" on="0"/>
        <pt x="619" y="1477" on="1"/>
        <pt x="778" y="1477" on="0"/>
        <pt x="1027" y="1367" on="0"/>
        <pt x="1099" y="1273" on="1"/>
      </contour>
    </TTGlyph>
    <TTGlyph name="S.smcp" xMin="91" yMin="-17" xMax="998" yMax="1181">
      <contour>
        <pt x="879" y="291" on="1"/>
        <pt x="879" y="377" on="0"/>
        <pt x="735" y="480" on="0"/>
        <pt x="543" y="531" on="1"/>
        <pt x="327" y="588" on="0"/>
        <pt x="129" y="732" on="0"/>
        <pt x="129" y="873" on="1"/>
        <pt x="129" y="1013" on="0"/>
        <pt x="361" y="1181" on="0"/>
        <pt x="556" y="1181" on="1"/>
        <pt x="756" y="1181" on="0"/>
        <pt x="981" y="998" on="0"/>
        <pt x="976" y="834" on="1"/>
        <pt x="974" y="828" on="1"/>
        <pt x="863" y="828" on="1"/>
        <pt x="863" y="940" on="0"/>
        <pt x="701" y="1080" on="0"/>
        <pt x="556" y="1080" on="1"/>
        <pt x="405" y="1080" on="0"/>
        <pt x="250" y="962" on="0"/>
        <pt x="250" y="874" on="1"/>
        <pt x="250" y="786" on="0"/>
        <pt x="381" y="685" on="0"/>
        <pt x="581" y="634" on="1"/>
        <pt x="796" y="577" on="0"/>
        <pt x="998" y="430" on="0"/>
        <pt x="998" y="292" on="1"/>
        <pt x="998" y="147" on="0"/>
        <pt x="752" y="-17" on="0"/>
        <pt x="544" y="-17" on="1"/>
        <pt x="352" y="-17" on="0"/>
        <pt x="91" y="150" on="0"/>
        <pt x="96" y="330" on="1"/>
        <pt x="98" y="336" on="1"/>
        <pt x="209" y="336" on="1"/>
        <pt x="209" y="203" on="0"/>
        <pt x="405" y="84" on="0"/>
        <pt x="544" y="84" on="1"/>
        <pt x="700" y="84" on="0"/>
        <pt x="879" y="202" on="0"/>
      </contour>
    </TTGlyph>
    <TTGlyph name="S.ss03" xMin="79" yMin="-21" xMax="1128" yMax="1477">
      <contour>
        <pt x="1008" y="357" on="1"/>
        <pt x="1008" y="476" on="0"/>
        <pt x="829" y="627" on="0"/>
        <pt x="608" y="685" on="1"/>
        <pt x="369" y="745" on="0"/>
        <pt x="124" y="937" on="0"/>
        <pt x="124" y="1100" on="1"/>
        <pt x="124" y="1267" on="0"/>
        <pt x="399" y="1477" on="0"/>
        <pt x="615" y="1477" on="1"/>
        <pt x="839" y="1477" on="0"/>
        <pt x="1116" y="1227" on="0"/>
        <pt x="1112" y="1047" on="1"/>
        <pt x="1109" y="1041" on="1"/>
        <pt x="998" y="1041" on="1"/>
        <pt x="998" y="1187" on="0"/>
        <pt x="791" y="1375" on="0"/>
        <pt x="615" y="1375" on="1"/>
        <pt x="440" y="1375" on="0"/>
        <pt x="243" y="1219" on="0"/>
        <pt x="243" y="1103" on="1"/>
        <pt x="243" y="993" on="0"/>
        <pt x="425" y="846" on="0"/>
        <pt x="648" y="790" on="1"/>
        <pt x="882" y="730" on="0"/>
        <pt x="1128" y="526" on="0"/>
        <pt x="1128" y="359" on="1"/>
        <pt x="1128" y="185" on="0"/>
        <pt x="843" y="-21" on="0"/>
        <pt x="622" y="-21" on="1"/>
        <pt x="404" y="-21" on="0"/>
        <pt x="79" y="198" on="0"/>
        <pt x="84" y="408" on="1"/>
        <pt x="86" y="414" on="1"/>
        <pt x="196" y="414" on="1"/>
        <pt x="196" y="244" on="0"/>
        <pt x="450" y="80" on="0"/>
        <pt x="622" y="80" on="1"/>
        <pt x="794" y="80" on="0"/>
        <pt x="1008" y="232" on="0"/>
      </contour>
    </TTGlyph>
    <TTGlyph name="Sacute" xMin="109" yMin="-21" xMax="1122" yMax="1828">
      <component glyphName="S" x="0" y="0" flags="0x204"/>
      <component glyphName="acute" x="432" y="350" flags="0x4"/>
    </TTGlyph>
    <TTGlyph name="Sacute.smcp" xMin="91" yMin="-17" xMax="998" yMax="1502">
      <component glyphName="S.smcp" x="0" y="0" flags="0x204"/>
      <component glyphName="acute" x="373" y="24" flags="0x4"/>
    </TTGlyph>
    <TTGlyph name="Scaron" xMin="109" yMin="-21" xMax="1122" yMax="1831">
      <component glyphName="S" x="0" y="0" flags="0x204"/>
      <component glyphName="caron" x="252" y="337" flags="0x4"/>
    </TTGlyph>
    <TTGlyph name="Scaron.smcp" xMin="91" yMin="-17" xMax="998" yMax="1505">
      <component glyphName="S.smcp" x="0" y="0" flags="0x204"/>
      <component glyphName="caron" x="193" y="11" flags="0x4"/>
    </TTGlyph>
    <TTGlyph name="Scedilla" xMin="109" yMin="-444" xMax="1122" yMax="1477">
      <component glyphName="S" x="0" y="0" flags="0x204"/>
      <component glyphName="cedilla" x="419" y="-9" flags="0x4"/>
    </TTGlyph>
    <TTGlyph name="Scedilla.smcp" xMin="91" yMin="-441" xMax="998" yMax="1181">
      <component glyphName="S.smcp" x="0" y="0" flags="0x204"/>
      <component glyphName="cedilla" x="341" y="-6" flags="0x4"/>
    </TTGlyph>
    <TTGlyph name="Scircumflex" xMin="109" yMin="-21" xMax="1122" yMax="1847">
      <component glyphName="S" x="0" y="0" flags="0x204"/>
      <component glyphName="circumflex" x="245" y="353" flags="0x4"/>
    </TTGlyph>
    <TTGlyph name="Scircumflex.smcp" xMin="91" yMin="-17" xMax="998" yMax="1521">
      <component glyphName="S.smcp" x="0" y="0" flags="0x204"/>
      <component glyphName="circumflex" x="186" y="27" flags="0x4"/>
    </TTGlyph>
    <TTGlyph name="Sigma" xMin="79" yMin="0" xMax="1086" yMax="1456">
      <contour>
        <pt x="718" y="743" on="1"/>
        <pt x="229" y="102" on="1"/>
        <pt x="970" y="102" on="1"/>
        <pt x="980" y="306" on="1"/>
        <pt x="1086" y="306" on="1"/>
        <pt x="1086" y="0" on="1"/>
        <pt x="79" y="0" on="1"/>
        <pt x="79" y="93" on="1"/>
        <pt x="594" y="759" on="1"/>
        <pt x="79" y="1363" on="1"/>
        <pt x="79" y="1456" on="1"/>
        <pt x="1031" y="1456" on="1"/>
        <pt x="1031" y="1149" on="1"/>
        <pt x="924" y="1149" on="1"/>
        <pt x="915" y="1354" on="1"/>
        <pt x="243" y="1354" on="1"/>
        <pt x="241" y="1349" on="1"/>
        <pt x="718" y="779" on="1"/>
      </contour>
    </TTGlyph>
    <TTGlyph name="T" xMin="60" yMin="0" xMax="1218" yMax="1456">
      <contour>
        <pt x="1218" y="1456" on="1"/>
        <pt x="1218" y="1149" on="1"/>
        <pt x="1112" y="1149" on="1"/>
        <pt x="1103" y="1354" on="1"/>
        <pt x="699" y="1354" on="1"/>
        <pt x="699" y="101" on="1"/>
        <pt x="862" y="88" on="1"/>
        <pt x="862" y="0" on="1"/>
        <pt x="416" y="0" on="1"/>
        <pt x="416" y="88" on="1"/>
        <pt x="579" y="101" on="1"/>
        <pt x="579" y="1354" on="1"/>
        <pt x="175" y="1354" on="1"/>
        <pt x="167" y="1149" on="1"/>
        <pt x="60" y="1149" on="1"/>
        <pt x="60" y="1456" on="1"/>
      </contour>
    </TTGlyph>
    <TTGlyph name="T.smcp" xMin="62" yMin="0" xMax="1082" yMax="1165">
      <contour>
        <pt x="1082" y="1165" on="1"/>
        <pt x="1082" y="858" on="1"/>
        <pt x="975" y="858" on="1"/>
        <pt x="966" y="1064" on="1"/>
        <pt x="624" y="1064" on="1"/>
        <pt x="624" y="101" on="1"/>
        <pt x="787" y="88" on="1"/>
        <pt x="787" y="0" on="1"/>
        <pt x="342" y="0" on="1"/>
        <pt x="342" y="88" on="1"/>
        <pt x="505" y="101" on="1"/>
        <pt x="505" y="1064" on="1"/>
        <pt x="176" y="1064" on="1"/>
        <pt x="168" y="858" on="1"/>
        <pt x="62" y="858" on="1"/>
        <pt x="62" y="1165" on="1"/>
      </contour>
    </TTGlyph>
    <TTGlyph name="Tau" xMin="60" yMin="0" xMax="1218" yMax="1456">
      <component glyphName="T" x="0" y="0" flags="0x204"/>
    </TTGlyph>
    <TTGlyph name="Tbar" xMin="60" yMin="0" xMax="1218" yMax="1456">
      <contour>
        <pt x="1218" y="1456" on="1"/>
        <pt x="1218" y="1149" on="1"/>
        <pt x="1112" y="1149" on="1"/>
        <pt x="1103" y="1354" on="1"/>
        <pt x="699" y="1354" on="1"/>
        <pt x="699" y="900" on="1"/>
        <pt x="969" y="900" on="1"/>
        <pt x="969" y="798" on="1"/>
        <pt x="699" y="798" on="1"/>
        <pt x="699" y="101" on="1"/>
        <pt x="862" y="88" on="1"/>
        <pt x="862" y="0" on="1"/>
        <pt x="416" y="0" on="1"/>
        <pt x="416" y="88" on="1"/>
        <pt x="579" y="101" on="1"/>
        <pt x="579" y="798" on="1"/>
        <pt x="357" y="798" on="1"/>
        <pt x="357" y="900" on="1"/>
        <pt x="579" y="900" on="1"/>
        <pt x="579" y="1354" on="1"/>
        <pt x="175" y="1354" on="1"/>
        <pt x="167" y="1149" on="1"/>
        <pt x="60" y="1149" on="1"/>
        <pt x="60" y="1456" on="1"/>
      </contour>
    </TTGlyph>
    <TTGlyph name="Tbar.smcp" xMin="62" yMin="0" xMax="1082" yMax="1165">
      <component glyphName="T.smcp" x="0" y="0" flags="0x204"/>
      <component glyphName="crossbar" x="124" y="-29" flags="0x4"/>
    </TTGlyph>
    <TTGlyph name="Tcaron" xMin="60" yMin="0" xMax="1218" yMax="1815">
      <component glyphName="T" x="0" y="0" flags="0x204"/>
      <component glyphName="caron" x="274" y="321" flags="0x4"/>
    </TTGlyph>
    <TTGlyph name="Tcaron.smcp" xMin="62" yMin="0" xMax="1082" yMax="1494">
      <component glyphName="T.smcp" x="0" y="0" flags="0x204"/>
      <component glyphName="caron" x="193" y="0" flags="0x4"/>
    </TTGlyph>
    <TTGlyph name="Tcommaaccent.smcp" xMin="62" yMin="-545" xMax="1082" yMax="1165">
      <component glyphName="T.smcp" x="0" y="0" flags="0x204"/>
      <component glyphName="commaaccent" x="347" y="-308" flags="0x4"/>
    </TTGlyph>
    <TTGlyph name="Theta" xMin="100" yMin="-21" xMax="1351" yMax="1477">
      <contour>
        <pt x="966" y="676" on="1"/>
        <pt x="412" y="676" on="1"/>
        <pt x="412" y="777" on="1"/>
        <pt x="966" y="777" on="1"/>
      </contour>
      <contour>
        <pt x="1351" y="718" on="1"/>
        <pt x="1351" y="390" on="0"/>
        <pt x="1001" y="-21" on="0"/>
        <pt x="721" y="-21" on="1"/>
        <pt x="445" y="-21" on="0"/>
        <pt x="100" y="391" on="0"/>
        <pt x="100" y="718" on="1"/>
        <pt x="100" y="737" on="1"/>
        <pt x="100" y="1064" on="0"/>
        <pt x="444" y="1477" on="0"/>
        <pt x="720" y="1477" on="1"/>
        <pt x="1000" y="1477" on="0"/>
        <pt x="1351" y="1064" on="0"/>
        <pt x="1351" y="737" on="1"/>
      </contour>
      <contour>
        <pt x="1231" y="739" on="1"/>
        <pt x="1231" y="1022" on="0"/>
        <pt x="955" y="1372" on="0"/>
        <pt x="720" y="1372" on="1"/>
        <pt x="489" y="1372" on="0"/>
        <pt x="220" y="1022" on="0"/>
        <pt x="220" y="739" on="1"/>
        <pt x="220" y="718" on="1"/>
        <pt x="220" y="433" on="0"/>
        <pt x="490" y="83" on="0"/>
        <pt x="721" y="83" on="1"/>
        <pt x="958" y="83" on="0"/>
        <pt x="1231" y="432" on="0"/>
        <pt x="1231" y="718" on="1"/>
      </contour>
    </TTGlyph>
    <TTGlyph name="Thorn" xMin="70" yMin="0" xMax="1145" yMax="1456">
      <contour>
        <pt x="70" y="1367" on="1"/>
        <pt x="70" y="1456" on="1"/>
        <pt x="352" y="1456" on="1"/>
        <pt x="515" y="1456" on="1"/>
        <pt x="515" y="1367" on="1"/>
        <pt x="352" y="1354" on="1"/>
        <pt x="352" y="1152" on="1"/>
        <pt x="676" y="1152" on="1"/>
        <pt x="897" y="1152" on="0"/>
        <pt x="1145" y="922" on="0"/>
        <pt x="1145" y="738" on="1"/>
        <pt x="1145" y="553" on="0"/>
        <pt x="898" y="324" on="0"/>
        <pt x="676" y="324" on="1"/>
        <pt x="352" y="324" on="1"/>
        <pt x="352" y="101" on="1"/>
        <pt x="515" y="88" on="1"/>
        <pt x="515" y="0" on="1"/>
        <pt x="70" y="0" on="1"/>
        <pt x="70" y="88" on="1"/>
        <pt x="233" y="101" on="1"/>
        <pt x="233" y="1354" on="1"/>
      </contour>
      <contour>
        <pt x="352" y="1051" on="1"/>
        <pt x="352" y="425" on="1"/>
        <pt x="676" y="425" on="1"/>
        <pt x="849" y="425" on="0"/>
        <pt x="1026" y="609" on="0"/>
        <pt x="1026" y="736" on="1"/>
        <pt x="1026" y="866" on="0"/>
        <pt x="850" y="1051" on="0"/>
        <pt x="676" y="1051" on="1"/>
      </contour>
    </TTGlyph>
    <TTGlyph name="U" xMin="60" yMin="-21" xMax="1427" yMax="1456">
      <contour>
        <pt x="505" y="1456" on="1"/>
        <pt x="505" y="1367" on="1"/>
        <pt x="342" y="1354" on="1"/>
        <pt x="342" y="469" on="1"/>
        <pt x="342" y="283" on="0"/>
        <pt x="562" y="80" on="0"/>
        <pt x="739" y="80" on="1"/>
        <pt x="919" y="80" on="0"/>
        <pt x="1145" y="282" on="0"/>
        <pt x="1145" y="469" on="1"/>
        <pt x="1145" y="1354" on="1"/>
        <pt x="982" y="1367" on="1"/>
        <pt x="982" y="1456" on="1"/>
        <pt x="1427" y="1456" on="1"/>
        <pt x="1427" y="1367" on="1"/>
        <pt x="1264" y="1354" on="1"/>
        <pt x="1264" y="469" on="1"/>
        <pt x="1264" y="231" on="0"/>
        <pt x="973" y="-21" on="0"/>
        <pt x="739" y="-21" on="1"/>
        <pt x="509" y="-21" on="0"/>
        <pt x="223" y="232" on="0"/>
        <pt x="223" y="469" on="1"/>
        <pt x="223" y="1354" on="1"/>
        <pt x="60" y="1367" on="1"/>
        <pt x="60" y="1456" on="1"/>
        <pt x="223" y="1456" on="1"/>
        <pt x="342" y="1456" on="1"/>
      </contour>
    </TTGlyph>
    <TTGlyph name="U.smcp" xMin="44" yMin="-17" xMax="1332" yMax="1165">
      <contour>
        <pt x="489" y="1165" on="1"/>
        <pt x="489" y="1076" on="1"/>
        <pt x="326" y="1063" on="1"/>
        <pt x="326" y="394" on="1"/>
        <pt x="326" y="251" on="0"/>
        <pt x="529" y="84" on="0"/>
        <pt x="688" y="84" on="1"/>
        <pt x="847" y="84" on="0"/>
        <pt x="1049" y="251" on="0"/>
        <pt x="1049" y="394" on="1"/>
        <pt x="1049" y="1063" on="1"/>
        <pt x="886" y="1076" on="1"/>
        <pt x="886" y="1165" on="1"/>
        <pt x="1332" y="1165" on="1"/>
        <pt x="1332" y="1076" on="1"/>
        <pt x="1169" y="1063" on="1"/>
        <pt x="1169" y="394" on="1"/>
        <pt x="1169" y="201" on="0"/>
        <pt x="900" y="-17" on="0"/>
        <pt x="688" y="-17" on="1"/>
        <pt x="475" y="-17" on="0"/>
        <pt x="207" y="201" on="0"/>
        <pt x="207" y="394" on="1"/>
        <pt x="207" y="1063" on="1"/>
        <pt x="44" y="1076" on="1"/>
        <pt x="44" y="1165" on="1"/>
        <pt x="207" y="1165" on="1"/>
        <pt x="326" y="1165" on="1"/>
      </contour>
    </TTGlyph>
    <TTGlyph name="Uacute" xMin="60" yMin="-21" xMax="1427" yMax="1811">
      <component glyphName="U" x="0" y="0" flags="0x204"/>
      <component glyphName="acute" x="547" y="333" flags="0x4"/>
    </TTGlyph>
    <TTGlyph name="Uacute.smcp" xMin="44" yMin="-17" xMax="1332" yMax="1496">
      <component glyphName="U.smcp" x="0" y="0" flags="0x204"/>
      <component glyphName="acute" x="488" y="18" flags="0x4"/>
    </TTGlyph>
    <TTGlyph name="Ubreve" xMin="60" yMin="-21" xMax="1427" yMax="1828">
      <component glyphName="U" x="0" y="0" flags="0x204"/>
      <component glyphName="breve" x="327" y="372" flags="0x4"/>
    </TTGlyph>
    <TTGlyph name="Ubreve.smcp" xMin="44" yMin="-17" xMax="1332" yMax="1513">
      <component glyphName="U.smcp" x="0" y="0" flags="0x204"/>
      <component glyphName="breve" x="268" y="57" flags="0x4"/>
    </TTGlyph>
    <TTGlyph name="Ucircumflex" xMin="60" yMin="-21" xMax="1427" yMax="1830">
      <component glyphName="U" x="0" y="0" flags="0x204"/>
      <component glyphName="circumflex" x="360" y="336" flags="0x4"/>
    </TTGlyph>
    <TTGlyph name="Ucircumflex.smcp" xMin="44" yMin="-17" xMax="1332" yMax="1515">
      <component glyphName="U.smcp" x="0" y="0" flags="0x204"/>
      <component glyphName="circumflex" x="301" y="21" flags="0x4"/>
    </TTGlyph>
    <TTGlyph name="Udieresis" xMin="60" yMin="-21" xMax="1427" yMax="1791">
      <component glyphName="U" x="0" y="0" flags="0x204"/>
      <component glyphName="dieresis" x="259" y="335" flags="0x4"/>
    </TTGlyph>
    <TTGlyph name="Udieresis.smcp" xMin="44" yMin="-17" xMax="1332" yMax="1476">
      <component glyphName="U.smcp" x="0" y="0" flags="0x204"/>
      <component glyphName="dieresis" x="200" y="20" flags="0x4"/>
    </TTGlyph>
    <TTGlyph name="Ugrave" xMin="60" yMin="-21" xMax="1427" yMax="1826">
      <component glyphName="U" x="0" y="0" flags="0x204"/>
      <component glyphName="grave" x="365" y="350" flags="0x4"/>
    </TTGlyph>
    <TTGlyph name="Ugrave.smcp" xMin="44" yMin="-17" xMax="1332" yMax="1511">
      <component glyphName="U.smcp" x="0" y="0" flags="0x204"/>
      <component glyphName="grave" x="306" y="35" flags="0x4"/>
    </TTGlyph>
    <TTGlyph name="Uhorn" xMin="39" yMin="-21" xMax="1583" yMax="1550">
      <contour>
        <pt x="1244" y="1456" on="1"/>
        <pt x="1244" y="1254" on="1"/>
        <pt x="1250" y="1253" on="1"/>
        <pt x="1376" y="1254" on="0"/>
        <pt x="1475" y="1401" on="0"/>
        <pt x="1475" y="1550" on="1"/>
        <pt x="1578" y="1550" on="1"/>
        <pt x="1580" y="1545" on="1"/>
        <pt x="1583" y="1357" on="0"/>
        <pt x="1423" y="1158" on="0"/>
        <pt x="1244" y="1151" on="1"/>
        <pt x="1244" y="469" on="1"/>
        <pt x="1244" y="232" on="0"/>
        <pt x="952" y="-21" on="0"/>
        <pt x="719" y="-21" on="1"/>
        <pt x="488" y="-21" on="0"/>
        <pt x="202" y="232" on="0"/>
        <pt x="202" y="469" on="1"/>
        <pt x="202" y="1354" on="1"/>
        <pt x="39" y="1367" on="1"/>
        <pt x="39" y="1456" on="1"/>
        <pt x="202" y="1456" on="1"/>
        <pt x="321" y="1456" on="1"/>
        <pt x="484" y="1456" on="1"/>
        <pt x="484" y="1367" on="1"/>
        <pt x="321" y="1354" on="1"/>
        <pt x="321" y="469" on="1"/>
        <pt x="321" y="283" on="0"/>
        <pt x="542" y="80" on="0"/>
        <pt x="719" y="80" on="1"/>
        <pt x="898" y="80" on="0"/>
        <pt x="1124" y="282" on="0"/>
        <pt x="1124" y="469" on="1"/>
        <pt x="1124" y="1354" on="1"/>
        <pt x="961" y="1367" on="1"/>
        <pt x="961" y="1456" on="1"/>
        <pt x="1124" y="1456" on="1"/>
      </contour>
    </TTGlyph>
    <TTGlyph name="Uhungarumlaut" xMin="60" yMin="-21" xMax="1427" yMax="1860">
      <component glyphName="U" x="0" y="0" flags="0x204"/>
      <component glyphName="hungarumlaut" x="402" y="342" flags="0x4"/>
    </TTGlyph>
    <TTGlyph name="Uhungarumlaut.smcp" xMin="44" yMin="-17" xMax="1332" yMax="1545">
      <component glyphName="U.smcp" x="0" y="0" flags="0x204"/>
      <component glyphName="hungarumlaut" x="343" y="27" flags="0x4"/>
    </TTGlyph>
    <TTGlyph name="Umacron" xMin="60" yMin="-21" xMax="1427" yMax="1784">
      <component glyphName="U" x="0" y="0" flags="0x204"/>
      <component glyphName="macron" x="255" y="328" flags="0x4"/>
    </TTGlyph>
    <TTGlyph name="Umacron.smcp" xMin="44" yMin="-17" xMax="1332" yMax="1469">
      <component glyphName="U.smcp" x="0" y="0" flags="0x204"/>
      <component glyphName="macron" x="196" y="13" flags="0x4"/>
    </TTGlyph>
    <TTGlyph name="Uogonek" xMin="60" yMin="-395" xMax="1427" yMax="1456">
      <component glyphName="U" x="0" y="0" flags="0x204"/>
      <component glyphName="ogonek" x="478" y="-3" flags="0x4"/>
    </TTGlyph>
    <TTGlyph name="Uogonek.smcp" xMin="44" yMin="-394" xMax="1332" yMax="1165">
      <component glyphName="U.smcp" x="0" y="0" flags="0x204"/>
      <component glyphName="ogonek" x="425" y="-2" flags="0x4"/>
    </TTGlyph>
    <TTGlyph name="Upsilon" xMin="55" yMin="0" xMax="1366" yMax="1456">
      <component glyphName="Y" x="0" y="0" flags="0x204"/>
    </TTGlyph>
    <TTGlyph name="Upsilondieresis" xMin="55" yMin="0" xMax="1366" yMax="1791">
      <component glyphName="Y" x="0" y="0" flags="0x204"/>
      <component glyphName="dieresis" x="233" y="335" flags="0x4"/>
    </TTGlyph>
    <TTGlyph name="Upsilontonos" xMin="-147" yMin="0" xMax="1466" yMax="1614">
      <component glyphName="Y" x="100" y="0" flags="0x4"/>
      <component glyphName="tonos" x="-283" y="-3" flags="0x4"/>
    </TTGlyph>
    <TTGlyph name="Uring" xMin="60" yMin="-21" xMax="1427" yMax="1901">
      <component glyphName="U" x="0" y="0" flags="0x204"/>
      <component glyphName="ring" x="434" y="411" flags="0x4"/>
    </TTGlyph>
    <TTGlyph name="Uring.smcp" xMin="44" yMin="-17" xMax="1332" yMax="1586">
      <component glyphName="U.smcp" x="0" y="0" flags="0x204"/>
      <component glyphName="ring" x="375" y="96" flags="0x4"/>
    </TTGlyph>
    <TTGlyph name="Utilde" xMin="60" yMin="-21" xMax="1427" yMax="1835">
      <component glyphName="U" x="0" y="0" flags="0x204"/>
      <component glyphName="tilde" x="291" y="334" flags="0x4"/>
    </TTGlyph>
    <TTGlyph name="Utilde.smcp" xMin="44" yMin="-17" xMax="1332" yMax="1520">
      <component glyphName="U.smcp" x="0" y="0" flags="0x204"/>
      <component glyphName="tilde" x="232" y="19" flags="0x4"/>
    </TTGlyph>
    <TTGlyph name="V" xMin="52" yMin="0" xMax="1403" yMax="1456">
      <contour>
        <pt x="430" y="1367" on="1"/>
        <pt x="294" y="1356" on="1"/>
        <pt x="696" y="246" on="1"/>
        <pt x="725" y="149" on="1"/>
        <pt x="731" y="149" on="1"/>
        <pt x="760" y="246" on="1"/>
        <pt x="1161" y="1356" on="1"/>
        <pt x="1025" y="1367" on="1"/>
        <pt x="1025" y="1456" on="1"/>
        <pt x="1403" y="1456" on="1"/>
        <pt x="1403" y="1367" on="1"/>
        <pt x="1290" y="1358" on="1"/>
        <pt x="784" y="0" on="1"/>
        <pt x="671" y="0" on="1"/>
        <pt x="164" y="1358" on="1"/>
        <pt x="52" y="1367" on="1"/>
        <pt x="52" y="1456" on="1"/>
        <pt x="430" y="1456" on="1"/>
      </contour>
    </TTGlyph>
    <TTGlyph name="V.smcp" xMin="44" yMin="0" xMax="1247" yMax="1165">
      <contour>
        <pt x="408" y="1076" on="1"/>
        <pt x="284" y="1066" on="1"/>
        <pt x="620" y="208" on="1"/>
        <pt x="642" y="133" on="1"/>
        <pt x="648" y="133" on="1"/>
        <pt x="671" y="207" on="1"/>
        <pt x="1007" y="1066" on="1"/>
        <pt x="883" y="1076" on="1"/>
        <pt x="883" y="1165" on="1"/>
        <pt x="1247" y="1165" on="1"/>
        <pt x="1247" y="1076" on="1"/>
        <pt x="1135" y="1067" on="1"/>
        <pt x="704" y="0" on="1"/>
        <pt x="586" y="0" on="1"/>
        <pt x="154" y="1067" on="1"/>
        <pt x="44" y="1076" on="1"/>
        <pt x="44" y="1165" on="1"/>
        <pt x="408" y="1165" on="1"/>
      </contour>
    </TTGlyph>
    <TTGlyph name="W" xMin="43" yMin="0" xMax="1926" yMax="1456">
      <contour>
        <pt x="423" y="1367" on="1"/>
        <pt x="275" y="1356" on="1"/>
        <pt x="505" y="412" on="1"/>
        <pt x="549" y="190" on="1"/>
        <pt x="555" y="190" on="1"/>
        <pt x="609" y="412" on="1"/>
        <pt x="929" y="1456" on="1"/>
        <pt x="1042" y="1456" on="1"/>
        <pt x="1361" y="412" on="1"/>
        <pt x="1414" y="187" on="1"/>
        <pt x="1420" y="188" on="1"/>
        <pt x="1467" y="412" on="1"/>
        <pt x="1694" y="1356" on="1"/>
        <pt x="1546" y="1367" on="1"/>
        <pt x="1546" y="1456" on="1"/>
        <pt x="1926" y="1456" on="1"/>
        <pt x="1926" y="1367" on="1"/>
        <pt x="1817" y="1359" on="1"/>
        <pt x="1478" y="0" on="1"/>
        <pt x="1365" y="0" on="1"/>
        <pt x="1026" y="1117" on="1"/>
        <pt x="988" y="1270" on="1"/>
        <pt x="982" y="1270" on="1"/>
        <pt x="946" y="1117" on="1"/>
        <pt x="604" y="0" on="1"/>
        <pt x="491" y="0" on="1"/>
        <pt x="152" y="1359" on="1"/>
        <pt x="43" y="1367" on="1"/>
        <pt x="43" y="1456" on="1"/>
        <pt x="423" y="1456" on="1"/>
      </contour>
    </TTGlyph>
    <TTGlyph name="W.smcp" xMin="45" yMin="0" xMax="1583" yMax="1165">
      <contour>
        <pt x="407" y="1076" on="1"/>
        <pt x="269" y="1065" on="1"/>
        <pt x="465" y="278" on="1"/>
        <pt x="489" y="159" on="1"/>
        <pt x="495" y="159" on="1"/>
        <pt x="518" y="279" on="1"/>
        <pt x="756" y="1165" on="1"/>
        <pt x="873" y="1165" on="1"/>
        <pt x="1112" y="278" on="1"/>
        <pt x="1133" y="157" on="1"/>
        <pt x="1139" y="157" on="1"/>
        <pt x="1166" y="279" on="1"/>
        <pt x="1359" y="1065" on="1"/>
        <pt x="1221" y="1076" on="1"/>
        <pt x="1221" y="1165" on="1"/>
        <pt x="1583" y="1165" on="1"/>
        <pt x="1583" y="1076" on="1"/>
        <pt x="1485" y="1068" on="1"/>
        <pt x="1197" y="0" on="1"/>
        <pt x="1083" y="0" on="1"/>
        <pt x="833" y="916" on="1"/>
        <pt x="818" y="990" on="1"/>
        <pt x="812" y="990" on="1"/>
        <pt x="798" y="916" on="1"/>
        <pt x="545" y="0" on="1"/>
        <pt x="430" y="0" on="1"/>
        <pt x="143" y="1068" on="1"/>
        <pt x="45" y="1076" on="1"/>
        <pt x="45" y="1165" on="1"/>
        <pt x="407" y="1165" on="1"/>
      </contour>
    </TTGlyph>
    <TTGlyph name="Wacute" xMin="43" yMin="0" xMax="1926" yMax="1818">
      <component glyphName="W" x="0" y="0" flags="0x204"/>
      <component glyphName="acute" x="790" y="340" flags="0x4"/>
    </TTGlyph>
    <TTGlyph name="Wcircumflex" xMin="43" yMin="0" xMax="1926" yMax="1837">
      <component glyphName="W" x="0" y="0" flags="0x204"/>
      <component glyphName="circumflex" x="603" y="343" flags="0x4"/>
    </TTGlyph>
    <TTGlyph name="Wcircumflex.smcp" xMin="45" yMin="0" xMax="1583" yMax="1514">
      <component glyphName="W.smcp" x="0" y="0" flags="0x204"/>
      <component glyphName="circumflex" x="436" y="20" flags="0x4"/>
    </TTGlyph>
    <TTGlyph name="Wdieresis" xMin="43" yMin="0" xMax="1926" yMax="1798">
      <component glyphName="W" x="0" y="0" flags="0x204"/>
      <component glyphName="dieresis" x="502" y="342" flags="0x4"/>
    </TTGlyph>
    <TTGlyph name="Wgrave" xMin="43" yMin="0" xMax="1926" yMax="1833">
      <component glyphName="W" x="0" y="0" flags="0x204"/>
      <component glyphName="grave" x="608" y="357" flags="0x4"/>
    </TTGlyph>
    <TTGlyph name="X" xMin="54" yMin="0" xMax="1346" yMax="1456">
      <contour>
        <pt x="54" y="88" on="1"/>
        <pt x="176" y="98" on="1"/>
        <pt x="629" y="738" on="1"/>
        <pt x="191" y="1357" on="1"/>
        <pt x="69" y="1367" on="1"/>
        <pt x="69" y="1456" on="1"/>
        <pt x="469" y="1456" on="1"/>
        <pt x="469" y="1367" on="1"/>
        <pt x="330" y="1361" on="1"/>
        <pt x="698" y="829" on="1"/>
        <pt x="1067" y="1361" on="1"/>
        <pt x="930" y="1367" on="1"/>
        <pt x="930" y="1456" on="1"/>
        <pt x="1329" y="1456" on="1"/>
        <pt x="1329" y="1367" on="1"/>
        <pt x="1207" y="1357" on="1"/>
        <pt x="770" y="738" on="1"/>
        <pt x="1223" y="98" on="1"/>
        <pt x="1346" y="88" on="1"/>
        <pt x="1346" y="0" on="1"/>
        <pt x="947" y="0" on="1"/>
        <pt x="947" y="88" on="1"/>
        <pt x="1084" y="94" on="1"/>
        <pt x="700" y="647" on="1"/>
        <pt x="315" y="94" on="1"/>
        <pt x="453" y="88" on="1"/>
        <pt x="453" y="0" on="1"/>
        <pt x="54" y="0" on="1"/>
      </contour>
    </TTGlyph>
    <TTGlyph name="X.smcp" xMin="58" yMin="0" xMax="1177" yMax="1165">
      <contour>
        <pt x="58" y="88" on="1"/>
        <pt x="188" y="99" on="1"/>
        <pt x="546" y="590" on="1"/>
        <pt x="202" y="1065" on="1"/>
        <pt x="71" y="1076" on="1"/>
        <pt x="71" y="1165" on="1"/>
        <pt x="435" y="1165" on="1"/>
        <pt x="435" y="1076" on="1"/>
        <pt x="341" y="1068" on="1"/>
        <pt x="617" y="685" on="1"/>
        <pt x="893" y="1068" on="1"/>
        <pt x="800" y="1076" on="1"/>
        <pt x="800" y="1165" on="1"/>
        <pt x="1164" y="1165" on="1"/>
        <pt x="1164" y="1076" on="1"/>
        <pt x="1033" y="1065" on="1"/>
        <pt x="689" y="590" on="1"/>
        <pt x="1047" y="99" on="1"/>
        <pt x="1177" y="88" on="1"/>
        <pt x="1177" y="0" on="1"/>
        <pt x="814" y="0" on="1"/>
        <pt x="814" y="88" on="1"/>
        <pt x="908" y="95" on="1"/>
        <pt x="618" y="495" on="1"/>
        <pt x="329" y="95" on="1"/>
        <pt x="423" y="88" on="1"/>
        <pt x="423" y="0" on="1"/>
        <pt x="58" y="0" on="1"/>
      </contour>
    </TTGlyph>
    <TTGlyph name="Xi" xMin="80" yMin="0" xMax="1120" yMax="1456">
      <contour>
        <pt x="80" y="0" on="1"/>
        <pt x="80" y="306" on="1"/>
        <pt x="187" y="306" on="1"/>
        <pt x="195" y="101" on="1"/>
        <pt x="1004" y="101" on="1"/>
        <pt x="1014" y="306" on="1"/>
        <pt x="1120" y="306" on="1"/>
        <pt x="1120" y="0" on="1"/>
      </contour>
      <contour>
        <pt x="1093" y="1456" on="1"/>
        <pt x="1093" y="1149" on="1"/>
        <pt x="987" y="1149" on="1"/>
        <pt x="978" y="1354" on="1"/>
        <pt x="207" y="1354" on="1"/>
        <pt x="199" y="1149" on="1"/>
        <pt x="92" y="1149" on="1"/>
        <pt x="92" y="1456" on="1"/>
      </contour>
      <contour>
        <pt x="290" y="784" on="1"/>
        <pt x="901" y="784" on="1"/>
        <pt x="901" y="682" on="1"/>
        <pt x="290" y="682" on="1"/>
      </contour>
    </TTGlyph>
    <TTGlyph name="Y" xMin="55" yMin="0" xMax="1366" yMax="1456">
      <contour>
        <pt x="455" y="1367" on="1"/>
        <pt x="315" y="1357" on="1"/>
        <pt x="709" y="647" on="1"/>
        <pt x="1105" y="1357" on="1"/>
        <pt x="965" y="1367" on="1"/>
        <pt x="965" y="1456" on="1"/>
        <pt x="1366" y="1456" on="1"/>
        <pt x="1366" y="1367" on="1"/>
        <pt x="1242" y="1357" on="1"/>
        <pt x="768" y="532" on="1"/>
        <pt x="768" y="101" on="1"/>
        <pt x="931" y="88" on="1"/>
        <pt x="931" y="0" on="1"/>
        <pt x="485" y="0" on="1"/>
        <pt x="485" y="88" on="1"/>
        <pt x="648" y="101" on="1"/>
        <pt x="648" y="539" on="1"/>
        <pt x="178" y="1357" on="1"/>
        <pt x="55" y="1367" on="1"/>
        <pt x="55" y="1456" on="1"/>
        <pt x="455" y="1456" on="1"/>
      </contour>
    </TTGlyph>
    <TTGlyph name="Y.smcp" xMin="44" yMin="0" xMax="1192" yMax="1165">
      <contour>
        <pt x="414" y="1076" on="1"/>
        <pt x="307" y="1067" on="1"/>
        <pt x="617" y="531" on="1"/>
        <pt x="927" y="1067" on="1"/>
        <pt x="821" y="1076" on="1"/>
        <pt x="821" y="1165" on="1"/>
        <pt x="1192" y="1165" on="1"/>
        <pt x="1192" y="1076" on="1"/>
        <pt x="1061" y="1066" on="1"/>
        <pt x="676" y="422" on="1"/>
        <pt x="676" y="101" on="1"/>
        <pt x="839" y="88" on="1"/>
        <pt x="839" y="0" on="1"/>
        <pt x="393" y="0" on="1"/>
        <pt x="393" y="88" on="1"/>
        <pt x="556" y="101" on="1"/>
        <pt x="556" y="427" on="1"/>
        <pt x="174" y="1066" on="1"/>
        <pt x="44" y="1076" on="1"/>
        <pt x="44" y="1165" on="1"/>
        <pt x="414" y="1165" on="1"/>
      </contour>
    </TTGlyph>
    <TTGlyph name="Yacute" xMin="55" yMin="0" xMax="1366" yMax="1811">
      <component glyphName="Y" x="0" y="0" flags="0x204"/>
      <component glyphName="acute" x="521" y="333" flags="0x4"/>
    </TTGlyph>
    <TTGlyph name="Yacute.smcp" xMin="44" yMin="0" xMax="1192" yMax="1490">
      <component glyphName="Y.smcp" x="0" y="0" flags="0x204"/>
      <component glyphName="acute" x="422" y="12" flags="0x4"/>
    </TTGlyph>
    <TTGlyph name="Ycircumflex" xMin="55" yMin="0" xMax="1366" yMax="1830">
      <component glyphName="Y" x="0" y="0" flags="0x204"/>
      <component glyphName="circumflex" x="334" y="336" flags="0x4"/>
    </TTGlyph>
    <TTGlyph name="Ycircumflex.smcp" xMin="44" yMin="0" xMax="1192" yMax="1509">
      <component glyphName="Y.smcp" x="0" y="0" flags="0x204"/>
      <component glyphName="circumflex" x="235" y="15" flags="0x4"/>
    </TTGlyph>
    <TTGlyph name="Ydieresis" xMin="55" yMin="0" xMax="1366" yMax="1791">
      <component glyphName="Y" x="0" y="0" flags="0x204"/>
      <component glyphName="dieresis" x="233" y="335" flags="0x4"/>
    </TTGlyph>
    <TTGlyph name="Ydieresis.smcp" xMin="44" yMin="0" xMax="1192" yMax="1470">
      <component glyphName="Y.smcp" x="0" y="0" flags="0x204"/>
      <component glyphName="dieresis" x="134" y="14" flags="0x4"/>
    </TTGlyph>
    <TTGlyph name="Ygrave" xMin="55" yMin="0" xMax="1366" yMax="1826">
      <component glyphName="Y" x="0" y="0" flags="0x204"/>
      <component glyphName="grave" x="339" y="350" flags="0x4"/>
    </TTGlyph>
    <TTGlyph name="Z" xMin="92" yMin="0" xMax="1128" yMax="1456">
      <contour>
        <pt x="92" y="0" on="1"/>
        <pt x="92" y="92" on="1"/>
        <pt x="949" y="1354" on="1"/>
        <pt x="233" y="1354" on="1"/>
        <pt x="225" y="1149" on="1"/>
        <pt x="118" y="1149" on="1"/>
        <pt x="118" y="1456" on="1"/>
        <pt x="1095" y="1456" on="1"/>
        <pt x="1095" y="1369" on="1"/>
        <pt x="234" y="101" on="1"/>
        <pt x="1012" y="101" on="1"/>
        <pt x="1021" y="306" on="1"/>
        <pt x="1128" y="306" on="1"/>
        <pt x="1128" y="0" on="1"/>
      </contour>
    </TTGlyph>
    <TTGlyph name="Z.smcp" xMin="87" yMin="0" xMax="997" yMax="1165">
      <contour>
        <pt x="241" y="100" on="1"/>
        <pt x="881" y="100" on="1"/>
        <pt x="891" y="306" on="1"/>
        <pt x="997" y="306" on="1"/>
        <pt x="997" y="0" on="1"/>
        <pt x="87" y="0" on="1"/>
        <pt x="87" y="80" on="1"/>
        <pt x="816" y="1064" on="1"/>
        <pt x="236" y="1064" on="1"/>
        <pt x="228" y="858" on="1"/>
        <pt x="121" y="858" on="1"/>
        <pt x="121" y="1165" on="1"/>
        <pt x="972" y="1165" on="1"/>
        <pt x="972" y="1089" on="1"/>
      </contour>
    </TTGlyph>
    <TTGlyph name="Zacute" xMin="92" yMin="0" xMax="1128" yMax="1818">
      <component glyphName="Z" x="0" y="0" flags="0x204"/>
      <component glyphName="acute" x="418" y="340" flags="0x4"/>
    </TTGlyph>
    <TTGlyph name="Zacute.smcp" xMin="87" yMin="0" xMax="997" yMax="1495">
      <component glyphName="Z.smcp" x="0" y="0" flags="0x204"/>
      <component glyphName="acute" x="322" y="17" flags="0x4"/>
    </TTGlyph>
    <TTGlyph name="Zcaron" xMin="92" yMin="0" xMax="1128" yMax="1821">
      <component glyphName="Z" x="0" y="0" flags="0x204"/>
      <component glyphName="caron" x="238" y="327" flags="0x4"/>
    </TTGlyph>
    <TTGlyph name="Zcaron.smcp" xMin="87" yMin="0" xMax="997" yMax="1498">
      <component glyphName="Z.smcp" x="0" y="0" flags="0x204"/>
      <component glyphName="caron" x="142" y="4" flags="0x4"/>
    </TTGlyph>
    <TTGlyph name="Zdotaccent" xMin="92" yMin="0" xMax="1128" yMax="1790">
      <component glyphName="Z" x="0" y="0" flags="0x204"/>
      <component glyphName="dotaccent" x="379" y="334" flags="0x4"/>
    </TTGlyph>
    <TTGlyph name="Zdotaccent.smcp" xMin="87" yMin="0" xMax="997" yMax="1467">
      <component glyphName="Z.smcp" x="0" y="0" flags="0x204"/>
      <component glyphName="dotaccent" x="283" y="11" flags="0x4"/>
    </TTGlyph>
    <TTGlyph name="Zeta" xMin="92" yMin="0" xMax="1128" yMax="1456">
      <component glyphName="Z" x="0" y="0" flags="0x204"/>
    </TTGlyph>
    <TTGlyph name="a" xMin="104" yMin="-21" xMax="1057" yMax="1102">
      <contour>
        <pt x="844" y="0" on="1"/>
        <pt x="832" y="55" on="0"/>
        <pt x="822" y="135" on="0"/>
        <pt x="822" y="176" on="1"/>
        <pt x="762" y="91" on="0"/>
        <pt x="562" y="-21" on="0"/>
        <pt x="437" y="-21" on="1"/>
        <pt x="278" y="-21" on="0"/>
        <pt x="104" y="143" on="0"/>
        <pt x="104" y="283" on="1"/>
        <pt x="104" y="433" on="0"/>
        <pt x="362" y="609" on="0"/>
        <pt x="583" y="609" on="1"/>
        <pt x="822" y="609" on="1"/>
        <pt x="822" y="752" on="1"/>
        <pt x="822" y="868" on="0"/>
        <pt x="673" y="1000" on="0"/>
        <pt x="539" y="1000" on="1"/>
        <pt x="449" y="1000" on="0"/>
        <pt x="300" y="951" on="0"/>
        <pt x="250" y="909" on="1"/>
        <pt x="240" y="764" on="1"/>
        <pt x="141" y="764" on="1"/>
        <pt x="142" y="972" on="1"/>
        <pt x="217" y="1030" on="0"/>
        <pt x="426" y="1102" on="0"/>
        <pt x="544" y="1102" on="1"/>
        <pt x="723" y="1102" on="0"/>
        <pt x="941" y="920" on="0"/>
        <pt x="941" y="750" on="1"/>
        <pt x="941" y="218" on="1"/>
        <pt x="941" y="185" on="0"/>
        <pt x="944" y="124" on="0"/>
        <pt x="949" y="95" on="1"/>
        <pt x="1057" y="88" on="1"/>
        <pt x="1057" y="0" on="1"/>
      </contour>
      <contour>
        <pt x="450" y="85" on="1"/>
        <pt x="580" y="85" on="0"/>
        <pt x="778" y="205" on="0"/>
        <pt x="822" y="300" on="1"/>
        <pt x="822" y="517" on="1"/>
        <pt x="581" y="517" on="1"/>
        <pt x="418" y="517" on="0"/>
        <pt x="223" y="382" on="0"/>
        <pt x="223" y="279" on="1"/>
        <pt x="223" y="192" on="0"/>
        <pt x="344" y="85" on="0"/>
      </contour>
    </TTGlyph>
    <TTGlyph name="a.ss03" xMin="104" yMin="-21" xMax="1057" yMax="1102">
      <contour>
        <pt x="844" y="0" on="1"/>
        <pt x="832" y="55" on="0"/>
        <pt x="822" y="135" on="0"/>
        <pt x="822" y="176" on="1"/>
        <pt x="762" y="91" on="0"/>
        <pt x="562" y="-21" on="0"/>
        <pt x="437" y="-21" on="1"/>
        <pt x="279" y="-21" on="0"/>
        <pt x="104" y="147" on="0"/>
        <pt x="104" y="288" on="1"/>
        <pt x="104" y="438" on="0"/>
        <pt x="363" y="618" on="0"/>
        <pt x="583" y="618" on="1"/>
        <pt x="822" y="618" on="1"/>
        <pt x="822" y="752" on="1"/>
        <pt x="822" y="868" on="0"/>
        <pt x="673" y="1000" on="0"/>
        <pt x="539" y="1000" on="1"/>
        <pt x="414" y="1000" on="0"/>
        <pt x="249" y="874" on="0"/>
        <pt x="249" y="783" on="1"/>
        <pt x="138" y="784" on="1"/>
        <pt x="136" y="790" on="1"/>
        <pt x="130" y="911" on="0"/>
        <pt x="364" y="1102" on="0"/>
        <pt x="544" y="1102" on="1"/>
        <pt x="723" y="1102" on="0"/>
        <pt x="941" y="920" on="0"/>
        <pt x="941" y="750" on="1"/>
        <pt x="941" y="218" on="1"/>
        <pt x="941" y="185" on="0"/>
        <pt x="944" y="124" on="0"/>
        <pt x="949" y="95" on="1"/>
        <pt x="1057" y="88" on="1"/>
        <pt x="1057" y="0" on="1"/>
      </contour>
      <contour>
        <pt x="450" y="85" on="1"/>
        <pt x="580" y="85" on="0"/>
        <pt x="778" y="205" on="0"/>
        <pt x="822" y="300" on="1"/>
        <pt x="822" y="526" on="1"/>
        <pt x="581" y="526" on="1"/>
        <pt x="418" y="526" on="0"/>
        <pt x="223" y="387" on="0"/>
        <pt x="223" y="284" on="1"/>
        <pt x="223" y="196" on="0"/>
        <pt x="344" y="85" on="0"/>
      </contour>
    </TTGlyph>
    <TTGlyph name="aacute" xMin="104" yMin="-21" xMax="1057" yMax="1495">
      <component glyphName="a" x="0" y="0" flags="0x204"/>
      <component glyphName="acute" x="352" y="17" flags="0x4"/>
    </TTGlyph>
    <TTGlyph name="abreve" xMin="104" yMin="-21" xMax="1057" yMax="1512">
      <component glyphName="a" x="0" y="0" flags="0x204"/>
      <component glyphName="breve" x="132" y="56" flags="0x4"/>
    </TTGlyph>
    <TTGlyph name="acircumflex" xMin="104" yMin="-21" xMax="1057" yMax="1514">
      <component glyphName="a" x="0" y="0" flags="0x204"/>
      <component glyphName="circumflex" x="165" y="20" flags="0x4"/>
    </TTGlyph>
    <TTGlyph name="acute" xMin="95" yMin="1212" xMax="451" yMax="1478">
      <contour>
        <pt x="301" y="1478" on="1"/>
        <pt x="448" y="1478" on="1"/>
        <pt x="451" y="1472" on="1"/>
        <pt x="202" y="1212" on="1"/>
        <pt x="95" y="1212" on="1"/>
      </contour>
    </TTGlyph>
    <TTGlyph name="acutecomb" xMin="118" yMin="1215" xMax="378" yMax="1533">
      <contour>
        <pt x="258" y="1533" on="1"/>
        <pt x="378" y="1533" on="1"/>
        <pt x="206" y="1215" on="1"/>
        <pt x="118" y="1215" on="1"/>
      </contour>
    </TTGlyph>
    <TTGlyph name="adieresis" xMin="104" yMin="-21" xMax="1057" yMax="1475">
      <component glyphName="a" x="0" y="0" flags="0x204"/>
      <component glyphName="dieresis" x="64" y="19" flags="0x4"/>
    </TTGlyph>
    <TTGlyph name="ae" xMin="97" yMin="-21" xMax="1678" yMax="1102">
      <contour>
        <pt x="1285" y="-21" on="1"/>
        <pt x="1147" y="-21" on="0"/>
        <pt x="941" y="90" on="0"/>
        <pt x="881" y="192" on="1"/>
        <pt x="832" y="105" on="0"/>
        <pt x="611" y="-21" on="0"/>
        <pt x="452" y="-21" on="1"/>
        <pt x="282" y="-21" on="0"/>
        <pt x="97" y="148" on="0"/>
        <pt x="97" y="293" on="1"/>
        <pt x="97" y="451" on="0"/>
        <pt x="323" y="632" on="0"/>
        <pt x="535" y="632" on="1"/>
        <pt x="798" y="632" on="1"/>
        <pt x="798" y="720" on="1"/>
        <pt x="798" y="854" on="0"/>
        <pt x="671" y="1000" on="0"/>
        <pt x="547" y="1000" on="1"/>
        <pt x="412" y="1000" on="0"/>
        <pt x="256" y="866" on="0"/>
        <pt x="256" y="765" on="1"/>
        <pt x="146" y="777" on="1"/>
        <pt x="144" y="783" on="1"/>
        <pt x="139" y="921" on="0"/>
        <pt x="361" y="1102" on="0"/>
        <pt x="547" y="1102" on="1"/>
        <pt x="672" y="1102" on="0"/>
        <pt x="848" y="994" on="0"/>
        <pt x="889" y="891" on="1"/>
        <pt x="950" y="990" on="0"/>
        <pt x="1140" y="1102" on="0"/>
        <pt x="1255" y="1102" on="1"/>
        <pt x="1455" y="1102" on="0"/>
        <pt x="1678" y="854" on="0"/>
        <pt x="1678" y="638" on="1"/>
        <pt x="1678" y="538" on="1"/>
        <pt x="923" y="538" on="1"/>
        <pt x="923" y="509" on="1"/>
        <pt x="923" y="318" on="0"/>
        <pt x="1103" y="80" on="0"/>
        <pt x="1285" y="80" on="1"/>
        <pt x="1388" y="80" on="0"/>
        <pt x="1544" y="145" on="0"/>
        <pt x="1608" y="199" on="1"/>
        <pt x="1656" y="112" on="1"/>
        <pt x="1596" y="57" on="0"/>
        <pt x="1419" y="-21" on="0"/>
      </contour>
      <contour>
        <pt x="469" y="79" on="1"/>
        <pt x="571" y="79" on="0"/>
        <pt x="762" y="186" on="0"/>
        <pt x="798" y="248" on="1"/>
        <pt x="798" y="536" on="1"/>
        <pt x="537" y="536" on="1"/>
        <pt x="382" y="536" on="0"/>
        <pt x="217" y="394" on="0"/>
        <pt x="217" y="289" on="1"/>
        <pt x="217" y="192" on="0"/>
        <pt x="346" y="79" on="0"/>
      </contour>
      <contour>
        <pt x="1255" y="1000" on="1"/>
        <pt x="1117" y="1000" on="0"/>
        <pt x="944" y="797" on="0"/>
        <pt x="931" y="641" on="1"/>
        <pt x="933" y="636" on="1"/>
        <pt x="1558" y="636" on="1"/>
        <pt x="1558" y="667" on="1"/>
        <pt x="1558" y="813" on="0"/>
        <pt x="1404" y="1000" on="0"/>
      </contour>
    </TTGlyph>
    <TTGlyph name="aeacute" xMin="97" yMin="-21" xMax="1678" yMax="1495">
      <component glyphName="ae" x="0" y="0" flags="0x204"/>
      <component glyphName="acute" x="673" y="17" flags="0x4"/>
    </TTGlyph>
    <TTGlyph name="agrave" xMin="104" yMin="-21" xMax="1057" yMax="1510">
      <component glyphName="a" x="0" y="0" flags="0x204"/>
      <component glyphName="grave" x="170" y="34" flags="0x4"/>
    </TTGlyph>
    <TTGlyph name="alpha" xMin="104" yMin="-21" xMax="1139" yMax="1102">
      <contour>
        <pt x="971" y="1082" on="1"/>
        <pt x="971" y="274" on="1"/>
        <pt x="971" y="170" on="0"/>
        <pt x="1024" y="87" on="0"/>
        <pt x="1072" y="87" on="1"/>
        <pt x="1084" y="87" on="0"/>
        <pt x="1105" y="90" on="0"/>
        <pt x="1122" y="95" on="1"/>
        <pt x="1139" y="2" on="1"/>
        <pt x="1116" y="-11" on="0"/>
        <pt x="1068" y="-21" on="0"/>
        <pt x="1041" y="-21" on="1"/>
        <pt x="961" y="-21" on="0"/>
        <pt x="869" y="72" on="0"/>
        <pt x="856" y="176" on="1"/>
        <pt x="803" y="81" on="0"/>
        <pt x="633" y="-21" on="0"/>
        <pt x="517" y="-21" on="1"/>
        <pt x="323" y="-21" on="0"/>
        <pt x="104" y="268" on="0"/>
        <pt x="104" y="511" on="1"/>
        <pt x="104" y="532" on="1"/>
        <pt x="104" y="791" on="0"/>
        <pt x="323" y="1102" on="0"/>
        <pt x="519" y="1102" on="1"/>
        <pt x="634" y="1102" on="0"/>
        <pt x="801" y="995" on="0"/>
        <pt x="854" y="896" on="1"/>
        <pt x="868" y="1082" on="1"/>
      </contour>
      <contour>
        <pt x="224" y="511" on="1"/>
        <pt x="224" y="315" on="0"/>
        <pt x="381" y="80" on="0"/>
        <pt x="539" y="80" on="1"/>
        <pt x="656" y="80" on="0"/>
        <pt x="808" y="209" on="0"/>
        <pt x="851" y="322" on="1"/>
        <pt x="851" y="735" on="1"/>
        <pt x="809" y="852" on="0"/>
        <pt x="657" y="1000" on="0"/>
        <pt x="541" y="1000" on="1"/>
        <pt x="383" y="1000" on="0"/>
        <pt x="224" y="739" on="0"/>
        <pt x="224" y="532" on="1"/>
      </contour>
    </TTGlyph>
    <TTGlyph name="alpha.alt" xMin="111" yMin="-21" xMax="1076" yMax="1102">
      <contour>
        <pt x="909" y="310" on="1"/>
        <pt x="863" y="157" on="0"/>
        <pt x="668" y="-21" on="0"/>
        <pt x="524" y="-21" on="1"/>
        <pt x="330" y="-21" on="0"/>
        <pt x="111" y="268" on="0"/>
        <pt x="111" y="511" on="1"/>
        <pt x="111" y="532" on="1"/>
        <pt x="111" y="791" on="0"/>
        <pt x="330" y="1102" on="0"/>
        <pt x="526" y="1102" on="1"/>
        <pt x="667" y="1102" on="0"/>
        <pt x="858" y="924" on="0"/>
        <pt x="906" y="769" on="1"/>
        <pt x="951" y="1082" on="1"/>
        <pt x="1069" y="1082" on="1"/>
        <pt x="972" y="540" on="1"/>
        <pt x="1076" y="0" on="1"/>
        <pt x="958" y="0" on="1"/>
      </contour>
      <contour>
        <pt x="231" y="511" on="1"/>
        <pt x="231" y="315" on="0"/>
        <pt x="388" y="80" on="0"/>
        <pt x="546" y="80" on="1"/>
        <pt x="673" y="80" on="0"/>
        <pt x="838" y="311" on="0"/>
        <pt x="867" y="494" on="1"/>
        <pt x="867" y="573" on="1"/>
        <pt x="841" y="745" on="0"/>
        <pt x="685" y="1000" on="0"/>
        <pt x="548" y="1000" on="1"/>
        <pt x="390" y="1000" on="0"/>
        <pt x="231" y="739" on="0"/>
        <pt x="231" y="532" on="1"/>
      </contour>
    </TTGlyph>
    <TTGlyph name="alphatonos" xMin="104" yMin="-21" xMax="1139" yMax="1580">
      <component glyphName="alpha" x="0" y="0" flags="0x204"/>
      <component glyphName="tonos" x="384" y="-37" flags="0x4"/>
    </TTGlyph>
    <TTGlyph name="amacron" xMin="104" yMin="-21" xMax="1057" yMax="1468">
      <component glyphName="a" x="0" y="0" flags="0x204"/>
      <component glyphName="macron" x="60" y="12" flags="0x4"/>
    </TTGlyph>
    <TTGlyph name="ampersand" xMin="74" yMin="-21" xMax="1192" yMax="1477">
      <contour>
        <pt x="370" y="794" on="1"/>
        <pt x="289" y="895" on="0"/>
        <pt x="212" y="1060" on="0"/>
        <pt x="212" y="1147" on="1"/>
        <pt x="212" y="1305" on="0"/>
        <pt x="389" y="1477" on="0"/>
        <pt x="544" y="1477" on="1"/>
        <pt x="688" y="1477" on="0"/>
        <pt x="857" y="1315" on="0"/>
        <pt x="857" y="1192" on="1"/>
        <pt x="857" y="1101" on="0"/>
        <pt x="767" y="972" on="0"/>
        <pt x="682" y="907" on="1"/>
        <pt x="524" y="785" on="1"/>
        <pt x="935" y="305" on="1"/>
        <pt x="984" y="376" on="0"/>
        <pt x="1038" y="552" on="0"/>
        <pt x="1038" y="651" on="1"/>
        <pt x="1149" y="651" on="1"/>
        <pt x="1149" y="523" on="0"/>
        <pt x="1075" y="309" on="0"/>
        <pt x="1007" y="222" on="1"/>
        <pt x="1192" y="5" on="1"/>
        <pt x="1190" y="0" on="1"/>
        <pt x="1052" y="0" on="1"/>
        <pt x="930" y="141" on="1"/>
        <pt x="845" y="63" on="0"/>
        <pt x="643" y="-21" on="0"/>
        <pt x="526" y="-21" on="1"/>
        <pt x="317" y="-21" on="0"/>
        <pt x="74" y="193" on="0"/>
        <pt x="74" y="371" on="1"/>
        <pt x="74" y="491" on="0"/>
        <pt x="219" y="684" on="0"/>
        <pt x="356" y="784" on="1"/>
      </contour>
      <contour>
        <pt x="526" y="80" on="1"/>
        <pt x="618" y="80" on="0"/>
        <pt x="793" y="152" on="0"/>
        <pt x="863" y="219" on="1"/>
        <pt x="449" y="701" on="1"/>
        <pt x="444" y="706" on="0"/>
        <pt x="437" y="713" on="0"/>
        <pt x="435" y="717" on="1"/>
        <pt x="388" y="681" on="1"/>
        <pt x="273" y="587" on="0"/>
        <pt x="193" y="435" on="0"/>
        <pt x="193" y="371" on="1"/>
        <pt x="193" y="247" on="0"/>
        <pt x="364" y="80" on="0"/>
      </contour>
      <contour>
        <pt x="332" y="1149" on="1"/>
        <pt x="332" y="1083" on="0"/>
        <pt x="395" y="939" on="0"/>
        <pt x="459" y="861" on="1"/>
        <pt x="636" y="993" on="1"/>
        <pt x="695" y="1038" on="0"/>
        <pt x="744" y="1136" on="0"/>
        <pt x="744" y="1192" on="1"/>
        <pt x="744" y="1271" on="0"/>
        <pt x="638" y="1375" on="0"/>
        <pt x="544" y="1375" on="1"/>
        <pt x="442" y="1375" on="0"/>
        <pt x="332" y="1245" on="0"/>
      </contour>
    </TTGlyph>
    <TTGlyph name="anoteleia" xMin="159" yMin="624" xMax="313" yMax="804">
      <component glyphName="periodcentered" x="0" y="0" flags="0x4"/>
    </TTGlyph>
    <TTGlyph name="aogonek" xMin="104" yMin="-392" xMax="1127" yMax="1102">
      <component glyphName="a" x="0" y="0" flags="0x204"/>
      <component glyphName="ogonek" x="748" y="0" flags="0x4"/>
    </TTGlyph>
    <TTGlyph name="approxequal" xMin="114" yMin="330" xMax="1056" yMax="1004">
      <contour>
        <pt x="124" y="854" on="1"/>
        <pt x="171" y="922" on="0"/>
        <pt x="295" y="1000" on="0"/>
        <pt x="360" y="1000" on="1"/>
        <pt x="429" y="1001" on="0"/>
        <pt x="493" y="977" on="0"/>
        <pt x="594" y="927" on="1"/>
        <pt x="684" y="881" on="0"/>
        <pt x="749" y="856" on="0"/>
        <pt x="814" y="856" on="1"/>
        <pt x="878" y="856" on="0"/>
        <pt x="999" y="934" on="0"/>
        <pt x="1048" y="1004" on="1"/>
        <pt x="1056" y="887" on="1"/>
        <pt x="1008" y="818" on="0"/>
        <pt x="884" y="741" on="0"/>
        <pt x="820" y="741" on="1"/>
        <pt x="754" y="741" on="0"/>
        <pt x="688" y="766" on="0"/>
        <pt x="602" y="810" on="1"/>
        <pt x="496" y="862" on="0"/>
        <pt x="434" y="886" on="0"/>
        <pt x="366" y="885" on="1"/>
        <pt x="301" y="885" on="0"/>
        <pt x="180" y="806" on="0"/>
        <pt x="132" y="737" on="1"/>
      </contour>
      <contour>
        <pt x="114" y="447" on="1"/>
        <pt x="161" y="515" on="0"/>
        <pt x="285" y="593" on="0"/>
        <pt x="350" y="593" on="1"/>
        <pt x="419" y="594" on="0"/>
        <pt x="483" y="570" on="0"/>
        <pt x="584" y="520" on="1"/>
        <pt x="678" y="472" on="0"/>
        <pt x="739" y="448" on="0"/>
        <pt x="804" y="448" on="1"/>
        <pt x="867" y="448" on="0"/>
        <pt x="989" y="527" on="0"/>
        <pt x="1038" y="597" on="1"/>
        <pt x="1045" y="480" on="1"/>
        <pt x="997" y="411" on="0"/>
        <pt x="873" y="334" on="0"/>
        <pt x="809" y="334" on="1"/>
        <pt x="743" y="334" on="0"/>
        <pt x="677" y="359" on="0"/>
        <pt x="591" y="403" on="1"/>
        <pt x="481" y="457" on="0"/>
        <pt x="423" y="480" on="0"/>
        <pt x="355" y="479" on="1"/>
        <pt x="291" y="479" on="0"/>
        <pt x="169" y="399" on="0"/>
        <pt x="121" y="330" on="1"/>
      </contour>
    </TTGlyph>
    <TTGlyph name="aring" xMin="104" yMin="-21" xMax="1057" yMax="1585">
      <component glyphName="a" x="0" y="0" flags="0x204"/>
      <component glyphName="ring" x="239" y="95" flags="0x4"/>
    </TTGlyph>
    <TTGlyph name="aringacute" xMin="104" yMin="-21" xMax="1057" yMax="1619">
      <component glyphName="a" x="0" y="0" flags="0x204"/>
      <component glyphName="ringacute" x="249" y="-55" flags="0x4"/>
    </TTGlyph>
    <TTGlyph name="asciicircum" xMin="71" yMin="729" xMax="758" yMax="1456">
      <contour>
        <pt x="186" y="729" on="1"/>
        <pt x="71" y="729" on="1"/>
        <pt x="370" y="1456" on="1"/>
        <pt x="459" y="1456" on="1"/>
        <pt x="758" y="729" on="1"/>
        <pt x="642" y="729" on="1"/>
        <pt x="445" y="1213" on="1"/>
        <pt x="416" y="1318" on="1"/>
        <pt x="410" y="1318" on="1"/>
        <pt x="380" y="1213" on="1"/>
      </contour>
    </TTGlyph>
    <TTGlyph name="asciitilde" xMin="121" yMin="423" xMax="1234" yMax="787">
      <contour>
        <pt x="1234" y="740" on="1"/>
        <pt x="1234" y="611" on="0"/>
        <pt x="1072" y="423" on="0"/>
        <pt x="952" y="423" on="1"/>
        <pt x="864" y="423" on="0"/>
        <pt x="719" y="494" on="0"/>
        <pt x="631" y="573" on="1"/>
        <pt x="567" y="626" on="0"/>
        <pt x="457" y="680" on="0"/>
        <pt x="401" y="680" on="1"/>
        <pt x="322" y="680" on="0"/>
        <pt x="217" y="559" on="0"/>
        <pt x="217" y="459" on="1"/>
        <pt x="121" y="474" on="1"/>
        <pt x="121" y="605" on="0"/>
        <pt x="279" y="787" on="0"/>
        <pt x="401" y="787" on="1"/>
        <pt x="488" y="787" on="0"/>
        <pt x="636" y="712" on="0"/>
        <pt x="724" y="637" on="1"/>
        <pt x="788" y="580" on="0"/>
        <pt x="894" y="529" on="0"/>
        <pt x="952" y="529" on="1"/>
        <pt x="1028" y="529" on="0"/>
        <pt x="1137" y="658" on="0"/>
        <pt x="1137" y="755" on="1"/>
      </contour>
    </TTGlyph>
    <TTGlyph name="asterisk" xMin="66" yMin="637" xMax="879" yMax="1456">
      <contour>
        <pt x="398" y="1000" on="1"/>
        <pt x="66" y="1108" on="1"/>
        <pt x="98" y="1209" on="1"/>
        <pt x="430" y="1086" on="1"/>
        <pt x="426" y="1456" on="1"/>
        <pt x="530" y="1456" on="1"/>
        <pt x="522" y="1083" on="1"/>
        <pt x="846" y="1210" on="1"/>
        <pt x="879" y="1109" on="1"/>
        <pt x="546" y="994" on="1"/>
        <pt x="769" y="700" on="1"/>
        <pt x="683" y="637" on="1"/>
        <pt x="470" y="942" on="1"/>
        <pt x="266" y="639" on="1"/>
        <pt x="181" y="700" on="1"/>
      </contour>
    </TTGlyph>
    <TTGlyph name="at" xMin="67" yMin="-453" xMax="1732" yMax="1420">
      <contour>
        <pt x="1715" y="513" on="1"/>
        <pt x="1705" y="297" on="0"/>
        <pt x="1491" y="-21" on="0"/>
        <pt x="1285" y="-21" on="1"/>
        <pt x="1207" y="-21" on="0"/>
        <pt x="1101" y="81" on="0"/>
        <pt x="1085" y="171" on="1"/>
        <pt x="1032" y="75" on="0"/>
        <pt x="877" y="-21" on="0"/>
        <pt x="774" y="-21" on="1"/>
        <pt x="643" y="-21" on="0"/>
        <pt x="507" y="218" on="0"/>
        <pt x="526" y="416" on="1"/>
        <pt x="549" y="670" on="0"/>
        <pt x="785" y="977" on="0"/>
        <pt x="953" y="977" on="1"/>
        <pt x="1046" y="977" on="0"/>
        <pt x="1161" y="923" on="0"/>
        <pt x="1230" y="869" on="1"/>
        <pt x="1228" y="867" on="1"/>
        <pt x="1231" y="867" on="1"/>
        <pt x="1181" y="293" on="1"/>
        <pt x="1171" y="161" on="0"/>
        <pt x="1251" y="65" on="0"/>
        <pt x="1306" y="65" on="1"/>
        <pt x="1448" y="65" on="0"/>
        <pt x="1613" y="314" on="0"/>
        <pt x="1623" y="513" on="1"/>
        <pt x="1642" y="902" on="0"/>
        <pt x="1306" y="1333" on="0"/>
        <pt x="944" y="1333" on="1"/>
        <pt x="620" y="1333" on="0"/>
        <pt x="201" y="862" on="0"/>
        <pt x="184" y="478" on="1"/>
        <pt x="165" y="99" on="0"/>
        <pt x="530" y="-368" on="0"/>
        <pt x="867" y="-368" on="1"/>
        <pt x="955" y="-368" on="0"/>
        <pt x="1135" y="-324" on="0"/>
        <pt x="1197" y="-289" on="1"/>
        <pt x="1228" y="-364" on="1"/>
        <pt x="1164" y="-405" on="0"/>
        <pt x="958" y="-453" on="0"/>
        <pt x="863" y="-453" on="1"/>
        <pt x="483" y="-453" on="0"/>
        <pt x="67" y="46" on="0"/>
        <pt x="86" y="478" on="1"/>
        <pt x="104" y="902" on="0"/>
        <pt x="573" y="1420" on="0"/>
        <pt x="948" y="1420" on="1"/>
        <pt x="1339" y="1420" on="0"/>
        <pt x="1732" y="937" on="0"/>
      </contour>
      <contour>
        <pt x="636" y="416" on="1"/>
        <pt x="620" y="261" on="0"/>
        <pt x="704" y="77" on="0"/>
        <pt x="800" y="77" on="1"/>
        <pt x="886" y="77" on="0"/>
        <pt x="1026" y="163" on="0"/>
        <pt x="1079" y="277" on="1"/>
        <pt x="1079" y="282" on="0"/>
        <pt x="1079" y="289" on="0"/>
        <pt x="1080" y="293" on="1"/>
        <pt x="1127" y="836" on="1"/>
        <pt x="1095" y="859" on="0"/>
        <pt x="1016" y="886" on="0"/>
        <pt x="969" y="886" on="1"/>
        <pt x="835" y="886" on="0"/>
        <pt x="659" y="648" on="0"/>
      </contour>
    </TTGlyph>
    <TTGlyph name="atilde" xMin="104" yMin="-21" xMax="1057" yMax="1519">
      <component glyphName="a" x="0" y="0" flags="0x204"/>
      <component glyphName="tilde" x="96" y="18" flags="0x4"/>
    </TTGlyph>
    <TTGlyph name="b" xMin="-8" yMin="-21" xMax="1027" yMax="1560">
      <contour>
        <pt x="1027" y="511" on="1"/>
        <pt x="1027" y="268" on="0"/>
        <pt x="807" y="-21" on="0"/>
        <pt x="614" y="-21" on="1"/>
        <pt x="495" y="-21" on="0"/>
        <pt x="323" y="74" on="0"/>
        <pt x="270" y="163" on="1"/>
        <pt x="257" y="0" on="1"/>
        <pt x="155" y="0" on="1"/>
        <pt x="155" y="1458" on="1"/>
        <pt x="-8" y="1471" on="1"/>
        <pt x="-8" y="1560" on="1"/>
        <pt x="274" y="1560" on="1"/>
        <pt x="274" y="912" on="1"/>
        <pt x="328" y="1003" on="0"/>
        <pt x="496" y="1102" on="0"/>
        <pt x="612" y="1102" on="1"/>
        <pt x="807" y="1102" on="0"/>
        <pt x="1027" y="791" on="0"/>
        <pt x="1027" y="532" on="1"/>
      </contour>
      <contour>
        <pt x="906" y="532" on="1"/>
        <pt x="906" y="739" on="0"/>
        <pt x="746" y="998" on="0"/>
        <pt x="590" y="998" on="1"/>
        <pt x="464" y="998" on="0"/>
        <pt x="311" y="874" on="0"/>
        <pt x="274" y="777" on="1"/>
        <pt x="274" y="288" on="1"/>
        <pt x="314" y="194" on="0"/>
        <pt x="473" y="83" on="0"/>
        <pt x="592" y="83" on="1"/>
        <pt x="748" y="83" on="0"/>
        <pt x="906" y="315" on="0"/>
        <pt x="906" y="511" on="1"/>
      </contour>
    </TTGlyph>
    <TTGlyph name="backslash" xMin="36" yMin="-125" xMax="760" yMax="1456">
      <contour>
        <pt x="36" y="1456" on="1"/>
        <pt x="152" y="1456" on="1"/>
        <pt x="760" y="-125" on="1"/>
        <pt x="644" y="-125" on="1"/>
      </contour>
    </TTGlyph>
    <TTGlyph name="bar" xMin="150" yMin="-270" xMax="251" yMax="1456">
      <contour>
        <pt x="251" y="-270" on="1"/>
        <pt x="150" y="-270" on="1"/>
        <pt x="150" y="1456" on="1"/>
        <pt x="251" y="1456" on="1"/>
      </contour>
    </TTGlyph>
    <TTGlyph name="beta" xMin="144" yMin="-399" xMax="1056" yMax="1477">
      <contour>
        <pt x="560" y="1477" on="1"/>
        <pt x="744" y="1477" on="0"/>
        <pt x="969" y="1262" on="0"/>
        <pt x="969" y="1093" on="1"/>
        <pt x="969" y="992" on="0"/>
        <pt x="864" y="827" on="0"/>
        <pt x="770" y="782" on="1"/>
        <pt x="908" y="743" on="0"/>
        <pt x="1056" y="542" on="0"/>
        <pt x="1056" y="404" on="1"/>
        <pt x="1056" y="204" on="0"/>
        <pt x="808" y="-21" on="0"/>
        <pt x="606" y="-21" on="1"/>
        <pt x="510" y="-21" on="0"/>
        <pt x="325" y="44" on="0"/>
        <pt x="263" y="108" on="1"/>
        <pt x="263" y="-399" on="1"/>
        <pt x="144" y="-399" on="1"/>
        <pt x="144" y="1063" on="1"/>
        <pt x="144" y="1237" on="0"/>
        <pt x="388" y="1477" on="0"/>
      </contour>
      <contour>
        <pt x="556" y="823" on="1"/>
        <pt x="707" y="823" on="0"/>
        <pt x="850" y="967" on="0"/>
        <pt x="850" y="1098" on="1"/>
        <pt x="850" y="1211" on="0"/>
        <pt x="699" y="1375" on="0"/>
        <pt x="560" y="1375" on="1"/>
        <pt x="434" y="1375" on="0"/>
        <pt x="263" y="1197" on="0"/>
        <pt x="263" y="1063" on="1"/>
        <pt x="263" y="238" on="1"/>
        <pt x="308" y="165" on="0"/>
        <pt x="487" y="80" on="0"/>
        <pt x="597" y="80" on="1"/>
        <pt x="759" y="80" on="0"/>
        <pt x="936" y="252" on="0"/>
        <pt x="936" y="400" on="1"/>
        <pt x="936" y="540" on="0"/>
        <pt x="761" y="721" on="0"/>
        <pt x="605" y="721" on="1"/>
        <pt x="462" y="721" on="1"/>
        <pt x="462" y="823" on="1"/>
      </contour>
    </TTGlyph>
    <TTGlyph name="braceleft" xMin="63" yMin="-404" xMax="660" yMax="1597">
      <contour>
        <pt x="631" y="-404" on="1"/>
        <pt x="448" y="-349" on="0"/>
        <pt x="294" y="-112" on="0"/>
        <pt x="294" y="58" on="1"/>
        <pt x="294" y="284" on="1"/>
        <pt x="294" y="406" on="0"/>
        <pt x="181" y="543" on="0"/>
        <pt x="63" y="543" on="1"/>
        <pt x="63" y="647" on="1"/>
        <pt x="181" y="647" on="0"/>
        <pt x="294" y="782" on="0"/>
        <pt x="294" y="904" on="1"/>
        <pt x="294" y="1132" on="1"/>
        <pt x="294" y="1303" on="0"/>
        <pt x="448" y="1542" on="0"/>
        <pt x="631" y="1597" on="1"/>
        <pt x="658" y="1518" on="1"/>
        <pt x="530" y="1477" on="0"/>
        <pt x="413" y="1276" on="0"/>
        <pt x="413" y="1132" on="1"/>
        <pt x="413" y="904" on="1"/>
        <pt x="413" y="794" on="0"/>
        <pt x="322" y="632" on="0"/>
        <pt x="230" y="595" on="1"/>
        <pt x="322" y="556" on="0"/>
        <pt x="413" y="393" on="0"/>
        <pt x="413" y="284" on="1"/>
        <pt x="413" y="58" on="1"/>
        <pt x="413" y="-85" on="0"/>
        <pt x="532" y="-282" on="0"/>
        <pt x="660" y="-324" on="1"/>
      </contour>
    </TTGlyph>
    <TTGlyph name="braceright" xMin="27" yMin="-404" xMax="624" yMax="1597">
      <contour>
        <pt x="27" y="-324" on="1"/>
        <pt x="154" y="-282" on="0"/>
        <pt x="273" y="-84" on="0"/>
        <pt x="273" y="58" on="1"/>
        <pt x="273" y="284" on="1"/>
        <pt x="273" y="396" on="0"/>
        <pt x="368" y="558" on="0"/>
        <pt x="467" y="594" on="1"/>
        <pt x="368" y="629" on="0"/>
        <pt x="273" y="791" on="0"/>
        <pt x="273" y="904" on="1"/>
        <pt x="273" y="1132" on="1"/>
        <pt x="273" y="1276" on="0"/>
        <pt x="156" y="1477" on="0"/>
        <pt x="29" y="1518" on="1"/>
        <pt x="55" y="1597" on="1"/>
        <pt x="237" y="1542" on="0"/>
        <pt x="393" y="1303" on="0"/>
        <pt x="393" y="1132" on="1"/>
        <pt x="393" y="904" on="1"/>
        <pt x="393" y="782" on="0"/>
        <pt x="505" y="647" on="0"/>
        <pt x="624" y="647" on="1"/>
        <pt x="624" y="543" on="1"/>
        <pt x="505" y="543" on="0"/>
        <pt x="393" y="406" on="0"/>
        <pt x="393" y="284" on="1"/>
        <pt x="393" y="58" on="1"/>
        <pt x="393" y="-112" on="0"/>
        <pt x="238" y="-349" on="0"/>
        <pt x="55" y="-404" on="1"/>
      </contour>
    </TTGlyph>
    <TTGlyph name="bracketleft" xMin="157" yMin="-312" xMax="486" yMax="1664">
      <contour>
        <pt x="486" y="1562" on="1"/>
        <pt x="276" y="1562" on="1"/>
        <pt x="276" y="-210" on="1"/>
        <pt x="486" y="-210" on="1"/>
        <pt x="486" y="-312" on="1"/>
        <pt x="157" y="-312" on="1"/>
        <pt x="157" y="1664" on="1"/>
        <pt x="486" y="1664" on="1"/>
      </contour>
    </TTGlyph>
    <TTGlyph name="bracketright" xMin="23" yMin="-312" xMax="353" yMax="1664">
      <contour>
        <pt x="23" y="1664" on="1"/>
        <pt x="353" y="1664" on="1"/>
        <pt x="353" y="-312" on="1"/>
        <pt x="23" y="-312" on="1"/>
        <pt x="23" y="-210" on="1"/>
        <pt x="233" y="-210" on="1"/>
        <pt x="233" y="1562" on="1"/>
        <pt x="23" y="1562" on="1"/>
      </contour>
    </TTGlyph>
    <TTGlyph name="breve" xMin="120" yMin="1198" xMax="694" yMax="1456">
      <contour>
        <pt x="688" y="1456" on="1"/>
        <pt x="690" y="1450" on="1"/>
        <pt x="694" y="1339" on="0"/>
        <pt x="540" y="1198" on="0"/>
        <pt x="408" y="1198" on="1"/>
        <pt x="274" y="1198" on="0"/>
        <pt x="120" y="1338" on="0"/>
        <pt x="125" y="1450" on="1"/>
        <pt x="127" y="1456" on="1"/>
        <pt x="221" y="1456" on="1"/>
        <pt x="221" y="1379" on="0"/>
        <pt x="311" y="1285" on="0"/>
        <pt x="408" y="1285" on="1"/>
        <pt x="502" y="1285" on="0"/>
        <pt x="594" y="1381" on="0"/>
        <pt x="594" y="1456" on="1"/>
      </contour>
    </TTGlyph>
    <TTGlyph name="breveacutecomb" xMin="115" yMin="1247" xMax="697" yMax="1655">
      <contour>
        <pt x="689" y="1456" on="1"/>
        <pt x="691" y="1450" on="1"/>
        <pt x="697" y="1361" on="0"/>
        <pt x="541" y="1247" on="0"/>
        <pt x="407" y="1247" on="1"/>
        <pt x="272" y="1247" on="0"/>
        <pt x="115" y="1361" on="0"/>
        <pt x="122" y="1450" on="1"/>
        <pt x="124" y="1456" on="1"/>
        <pt x="217" y="1456" on="1"/>
        <pt x="217" y="1394" on="0"/>
        <pt x="309" y="1316" on="0"/>
        <pt x="407" y="1316" on="1"/>
        <pt x="502" y="1316" on="0"/>
        <pt x="595" y="1395" on="0"/>
        <pt x="595" y="1456" on="1"/>
      </contour>
      <contour>
        <pt x="485" y="1655" on="1"/>
        <pt x="587" y="1655" on="1"/>
        <pt x="590" y="1650" on="1"/>
        <pt x="424" y="1449" on="1"/>
        <pt x="346" y="1449" on="1"/>
      </contour>
    </TTGlyph>
    <TTGlyph name="brevegravecomb" xMin="101" yMin="1210" xMax="734" yMax="1660">
      <contour>
        <pt x="727" y="1456" on="1"/>
        <pt x="729" y="1450" on="1"/>
        <pt x="734" y="1345" on="0"/>
        <pt x="563" y="1210" on="0"/>
        <pt x="418" y="1210" on="1"/>
        <pt x="272" y="1210" on="0"/>
        <pt x="101" y="1345" on="0"/>
        <pt x="107" y="1450" on="1"/>
        <pt x="109" y="1456" on="1"/>
        <pt x="202" y="1456" on="1"/>
        <pt x="202" y="1384" on="0"/>
        <pt x="306" y="1296" on="0"/>
        <pt x="418" y="1296" on="1"/>
        <pt x="527" y="1296" on="0"/>
        <pt x="634" y="1386" on="0"/>
        <pt x="634" y="1456" on="1"/>
      </contour>
      <contour>
        <pt x="495" y="1444" on="1"/>
        <pt x="377" y="1444" on="1"/>
        <pt x="189" y="1655" on="1"/>
        <pt x="191" y="1660" on="1"/>
        <pt x="339" y="1660" on="1"/>
      </contour>
    </TTGlyph>
    <TTGlyph name="brevehookcomb" xMin="119" yMin="1250" xMax="682" yMax="1780">
      <contour>
        <pt x="583" y="1456" on="1"/>
        <pt x="583" y="1396" on="0"/>
        <pt x="493" y="1319" on="0"/>
        <pt x="402" y="1319" on="1"/>
        <pt x="306" y="1319" on="0"/>
        <pt x="217" y="1395" on="0"/>
        <pt x="217" y="1456" on="1"/>
        <pt x="128" y="1456" on="1"/>
        <pt x="126" y="1450" on="1"/>
        <pt x="119" y="1362" on="0"/>
        <pt x="271" y="1250" on="0"/>
        <pt x="402" y="1250" on="1"/>
        <pt x="531" y="1250" on="0"/>
        <pt x="682" y="1362" on="0"/>
        <pt x="676" y="1450" on="1"/>
        <pt x="674" y="1456" on="1"/>
      </contour>
      <contour>
        <pt x="363" y="1455" on="1"/>
        <pt x="363" y="1562" on="1"/>
        <pt x="449" y="1566" on="0"/>
        <pt x="521" y="1600" on="0"/>
        <pt x="516" y="1638" on="1"/>
        <pt x="516" y="1644" on="1"/>
        <pt x="520" y="1682" on="0"/>
        <pt x="411" y="1719" on="0"/>
        <pt x="330" y="1719" on="1"/>
        <pt x="337" y="1780" on="1"/>
        <pt x="468" y="1780" on="0"/>
        <pt x="620" y="1704" on="0"/>
        <pt x="620" y="1639" on="1"/>
        <pt x="620" y="1578" on="0"/>
        <pt x="525" y="1516" on="0"/>
        <pt x="450" y="1510" on="1"/>
        <pt x="450" y="1455" on="1"/>
      </contour>
    </TTGlyph>
    <TTGlyph name="brevetildecomb" xMin="119" yMin="1232" xMax="673" yMax="1709">
      <contour>
        <pt x="666" y="1445" on="1"/>
        <pt x="668" y="1439" on="1"/>
        <pt x="673" y="1348" on="0"/>
        <pt x="524" y="1232" on="0"/>
        <pt x="397" y="1232" on="1"/>
        <pt x="268" y="1232" on="0"/>
        <pt x="119" y="1348" on="0"/>
        <pt x="125" y="1439" on="1"/>
        <pt x="127" y="1445" on="1"/>
        <pt x="220" y="1445" on="1"/>
        <pt x="220" y="1382" on="0"/>
        <pt x="305" y="1303" on="0"/>
        <pt x="397" y="1303" on="1"/>
        <pt x="485" y="1303" on="0"/>
        <pt x="573" y="1383" on="0"/>
        <pt x="573" y="1445" on="1"/>
      </contour>
      <contour>
        <pt x="671" y="1692" on="1"/>
        <pt x="671" y="1623" on="0"/>
        <pt x="579" y="1531" on="0"/>
        <pt x="511" y="1531" on="1"/>
        <pt x="454" y="1531" on="0"/>
        <pt x="335" y="1613" on="0"/>
        <pt x="295" y="1613" on="1"/>
        <pt x="254" y="1613" on="0"/>
        <pt x="200" y="1561" on="0"/>
        <pt x="200" y="1520" on="1"/>
        <pt x="134" y="1535" on="1"/>
        <pt x="134" y="1602" on="0"/>
        <pt x="225" y="1695" on="0"/>
        <pt x="295" y="1695" on="1"/>
        <pt x="343" y="1695" on="0"/>
        <pt x="470" y="1611" on="0"/>
        <pt x="511" y="1611" on="1"/>
        <pt x="549" y="1611" on="0"/>
        <pt x="605" y="1666" on="0"/>
        <pt x="605" y="1709" on="1"/>
      </contour>
    </TTGlyph>
    <TTGlyph name="brokenbar" xMin="150" yMin="-270" xMax="269" yMax="1456">
      <contour>
        <pt x="150" y="-270" on="1"/>
        <pt x="150" y="501" on="1"/>
        <pt x="269" y="501" on="1"/>
        <pt x="269" y="-270" on="1"/>
      </contour>
      <contour>
        <pt x="269" y="698" on="1"/>
        <pt x="150" y="698" on="1"/>
        <pt x="150" y="1456" on="1"/>
        <pt x="269" y="1456" on="1"/>
      </contour>
    </TTGlyph>
    <TTGlyph name="bullet" xMin="135" yMin="540" xMax="505" yMax="961">
      <contour>
        <pt x="135" y="782" on="1"/>
        <pt x="135" y="861" on="0"/>
        <pt x="235" y="961" on="0"/>
        <pt x="319" y="961" on="1"/>
        <pt x="404" y="961" on="0"/>
        <pt x="505" y="860" on="0"/>
        <pt x="505" y="782" on="1"/>
        <pt x="505" y="717" on="1"/>
        <pt x="505" y="638" on="0"/>
        <pt x="404" y="540" on="0"/>
        <pt x="320" y="540" on="1"/>
        <pt x="235" y="540" on="0"/>
        <pt x="135" y="638" on="0"/>
        <pt x="135" y="717" on="1"/>
      </contour>
    </TTGlyph>
    <TTGlyph name="c" xMin="97" yMin="-21" xMax="973" yMax="1102">
      <contour>
        <pt x="559" y="80" on="1"/>
        <pt x="678" y="80" on="0"/>
        <pt x="860" y="216" on="0"/>
        <pt x="860" y="337" on="1"/>
        <pt x="966" y="337" on="1"/>
        <pt x="968" y="331" on="1"/>
        <pt x="973" y="181" on="0"/>
        <pt x="724" y="-21" on="0"/>
        <pt x="559" y="-21" on="1"/>
        <pt x="339" y="-21" on="0"/>
        <pt x="97" y="282" on="0"/>
        <pt x="97" y="520" on="1"/>
        <pt x="97" y="562" on="1"/>
        <pt x="97" y="798" on="0"/>
        <pt x="339" y="1102" on="0"/>
        <pt x="558" y="1102" on="1"/>
        <pt x="683" y="1102" on="0"/>
        <pt x="891" y="1008" on="0"/>
        <pt x="956" y="927" on="1"/>
        <pt x="961" y="691" on="1"/>
        <pt x="859" y="691" on="1"/>
        <pt x="840" y="883" on="1"/>
        <pt x="792" y="937" on="0"/>
        <pt x="649" y="1000" on="0"/>
        <pt x="558" y="1000" on="1"/>
        <pt x="384" y="1000" on="0"/>
        <pt x="217" y="751" on="0"/>
        <pt x="217" y="562" on="1"/>
        <pt x="217" y="520" on="1"/>
        <pt x="217" y="328" on="0"/>
        <pt x="383" y="80" on="0"/>
      </contour>
    </TTGlyph>
    <TTGlyph name="c.ss03" xMin="104" yMin="-21" xMax="979" yMax="1102">
      <contour>
        <pt x="565" y="80" on="1"/>
        <pt x="684" y="80" on="0"/>
        <pt x="866" y="216" on="0"/>
        <pt x="866" y="337" on="1"/>
        <pt x="972" y="337" on="1"/>
        <pt x="974" y="331" on="1"/>
        <pt x="979" y="181" on="0"/>
        <pt x="730" y="-21" on="0"/>
        <pt x="565" y="-21" on="1"/>
        <pt x="345" y="-21" on="0"/>
        <pt x="104" y="282" on="0"/>
        <pt x="104" y="520" on="1"/>
        <pt x="104" y="562" on="1"/>
        <pt x="104" y="798" on="0"/>
        <pt x="345" y="1102" on="0"/>
        <pt x="564" y="1102" on="1"/>
        <pt x="742" y="1102" on="0"/>
        <pt x="979" y="892" on="0"/>
        <pt x="975" y="721" on="1"/>
        <pt x="973" y="715" on="1"/>
        <pt x="866" y="715" on="1"/>
        <pt x="866" y="845" on="0"/>
        <pt x="691" y="1000" on="0"/>
        <pt x="564" y="1000" on="1"/>
        <pt x="390" y="1000" on="0"/>
        <pt x="223" y="750" on="0"/>
        <pt x="223" y="562" on="1"/>
        <pt x="223" y="520" on="1"/>
        <pt x="223" y="328" on="0"/>
        <pt x="390" y="80" on="0"/>
      </contour>
    </TTGlyph>
    <TTGlyph name="cacute" xMin="97" yMin="-21" xMax="973" yMax="1494">
      <component glyphName="c" x="0" y="0" flags="0x204"/>
      <component glyphName="acute" x="367" y="16" flags="0x4"/>
    </TTGlyph>
    <TTGlyph name="caron" xMin="90" yMin="1252" xMax="652" yMax="1494">
      <contour>
        <pt x="370" y="1325" on="1"/>
        <pt x="537" y="1494" on="1"/>
        <pt x="652" y="1494" on="1"/>
        <pt x="652" y="1477" on="1"/>
        <pt x="419" y="1252" on="1"/>
        <pt x="321" y="1252" on="1"/>
        <pt x="90" y="1477" on="1"/>
        <pt x="90" y="1494" on="1"/>
        <pt x="204" y="1494" on="1"/>
      </contour>
    </TTGlyph>
    <TTGlyph name="ccaron" xMin="97" yMin="-21" xMax="973" yMax="1497">
      <component glyphName="c" x="0" y="0" flags="0x204"/>
      <component glyphName="caron" x="187" y="3" flags="0x4"/>
    </TTGlyph>
    <TTGlyph name="ccedilla" xMin="97" yMin="-444" xMax="973" yMax="1102">
      <component glyphName="c" x="0" y="0" flags="0x204"/>
      <component glyphName="cedilla" x="340" y="-9" flags="0x4"/>
    </TTGlyph>
    <TTGlyph name="ccircumflex" xMin="97" yMin="-21" xMax="973" yMax="1513">
      <component glyphName="c" x="0" y="0" flags="0x204"/>
      <component glyphName="circumflex" x="180" y="19" flags="0x4"/>
    </TTGlyph>
    <TTGlyph name="cedilla" xMin="103" yMin="-435" xMax="415" yMax="0">
      <contour>
        <pt x="250" y="0" on="1"/>
        <pt x="239" y="-64" on="1"/>
        <pt x="318" y="-73" on="0"/>
        <pt x="415" y="-152" on="0"/>
        <pt x="415" y="-235" on="1"/>
        <pt x="415" y="-326" on="0"/>
        <pt x="257" y="-435" on="0"/>
        <pt x="110" y="-435" on="1"/>
        <pt x="103" y="-357" on="1"/>
        <pt x="192" y="-357" on="0"/>
        <pt x="315" y="-296" on="0"/>
        <pt x="315" y="-237" on="1"/>
        <pt x="315" y="-180" on="0"/>
        <pt x="233" y="-135" on="0"/>
        <pt x="129" y="-127" on="1"/>
        <pt x="157" y="0" on="1"/>
      </contour>
    </TTGlyph>
    <TTGlyph name="cent" xMin="124" yMin="-245" xMax="1000" yMax="1318">
      <contour>
        <pt x="586" y="80" on="1"/>
        <pt x="705" y="80" on="0"/>
        <pt x="887" y="216" on="0"/>
        <pt x="887" y="337" on="1"/>
        <pt x="994" y="337" on="1"/>
        <pt x="996" y="331" on="1"/>
        <pt x="1000" y="196" on="0"/>
        <pt x="793" y="1" on="0"/>
        <pt x="646" y="-17" on="1"/>
        <pt x="646" y="-245" on="1"/>
        <pt x="526" y="-245" on="1"/>
        <pt x="526" y="-17" on="1"/>
        <pt x="333" y="4" on="0"/>
        <pt x="124" y="300" on="0"/>
        <pt x="124" y="520" on="1"/>
        <pt x="124" y="562" on="1"/>
        <pt x="124" y="781" on="0"/>
        <pt x="333" y="1076" on="0"/>
        <pt x="526" y="1098" on="1"/>
        <pt x="526" y="1318" on="1"/>
        <pt x="646" y="1318" on="1"/>
        <pt x="646" y="1099" on="1"/>
        <pt x="752" y="1087" on="0"/>
        <pt x="926" y="997" on="0"/>
        <pt x="983" y="927" on="1"/>
        <pt x="988" y="691" on="1"/>
        <pt x="886" y="691" on="1"/>
        <pt x="867" y="883" on="1"/>
        <pt x="819" y="937" on="0"/>
        <pt x="676" y="1000" on="0"/>
        <pt x="585" y="1000" on="1"/>
        <pt x="411" y="1000" on="0"/>
        <pt x="244" y="751" on="0"/>
        <pt x="244" y="562" on="1"/>
        <pt x="244" y="520" on="1"/>
        <pt x="244" y="328" on="0"/>
        <pt x="410" y="80" on="0"/>
      </contour>
    </TTGlyph>
    <TTGlyph name="chi" xMin="73" yMin="0" xMax="1132" yMax="1082">
      <contour>
        <pt x="73" y="88" on="1"/>
        <pt x="194" y="99" on="1"/>
        <pt x="531" y="546" on="1"/>
        <pt x="210" y="982" on="1"/>
        <pt x="88" y="993" on="1"/>
        <pt x="88" y="1082" on="1"/>
        <pt x="293" y="1081" on="1"/>
        <pt x="606" y="643" on="1"/>
        <pt x="860" y="988" on="1"/>
        <pt x="749" y="993" on="1"/>
        <pt x="749" y="1082" on="1"/>
        <pt x="1116" y="1082" on="1"/>
        <pt x="1116" y="993" on="1"/>
        <pt x="995" y="982" on="1"/>
        <pt x="669" y="553" on="1"/>
        <pt x="1010" y="99" on="1"/>
        <pt x="1132" y="88" on="1"/>
        <pt x="1132" y="0" on="1"/>
        <pt x="934" y="0" on="1"/>
        <pt x="602" y="461" on="1"/>
        <pt x="328" y="93" on="1"/>
        <pt x="439" y="88" on="1"/>
        <pt x="439" y="0" on="1"/>
        <pt x="73" y="0" on="1"/>
      </contour>
    </TTGlyph>
    <TTGlyph name="circumflex" xMin="104" yMin="1252" xMax="658" yMax="1494">
      <contour>
        <pt x="658" y="1270" on="1"/>
        <pt x="658" y="1252" on="1"/>
        <pt x="546" y="1252" on="1"/>
        <pt x="379" y="1420" on="1"/>
        <pt x="213" y="1252" on="1"/>
        <pt x="104" y="1252" on="1"/>
        <pt x="104" y="1273" on="1"/>
        <pt x="330" y="1494" on="1"/>
        <pt x="428" y="1494" on="1"/>
      </contour>
    </TTGlyph>
    <TTGlyph name="circumflexacutecomb" xMin="107" yMin="1252" xMax="977" yMax="1633">
      <contour>
        <pt x="370" y="1494" on="1"/>
        <pt x="486" y="1494" on="1"/>
        <pt x="749" y="1258" on="1"/>
        <pt x="747" y="1252" on="1"/>
        <pt x="615" y="1252" on="1"/>
        <pt x="428" y="1424" on="1"/>
        <pt x="241" y="1252" on="1"/>
        <pt x="109" y="1252" on="1"/>
        <pt x="107" y="1258" on="1"/>
      </contour>
      <contour>
        <pt x="840" y="1633" on="1"/>
        <pt x="977" y="1633" on="1"/>
        <pt x="795" y="1402" on="1"/>
        <pt x="693" y="1402" on="1"/>
      </contour>
    </TTGlyph>
    <TTGlyph name="circumflexgravecomb" xMin="-60" yMin="1243" xMax="809" yMax="1624">
      <contour>
        <pt x="809" y="1249" on="1"/>
        <pt x="807" y="1243" on="1"/>
        <pt x="674" y="1243" on="1"/>
        <pt x="487" y="1415" on="1"/>
        <pt x="300" y="1243" on="1"/>
        <pt x="168" y="1243" on="1"/>
        <pt x="166" y="1249" on="1"/>
        <pt x="429" y="1485" on="1"/>
        <pt x="545" y="1485" on="1"/>
      </contour>
      <contour>
        <pt x="222" y="1393" on="1"/>
        <pt x="121" y="1393" on="1"/>
        <pt x="-60" y="1624" on="1"/>
        <pt x="75" y="1624" on="1"/>
      </contour>
    </TTGlyph>
    <TTGlyph name="circumflexhookcomb" xMin="102" yMin="1252" xMax="936" yMax="1713">
      <contour>
        <pt x="490" y="1494" on="1"/>
        <pt x="356" y="1494" on="1"/>
        <pt x="102" y="1258" on="1"/>
        <pt x="104" y="1252" on="1"/>
        <pt x="223" y="1252" on="1"/>
        <pt x="422" y="1438" on="1"/>
        <pt x="623" y="1252" on="1"/>
        <pt x="743" y="1252" on="1"/>
        <pt x="745" y="1258" on="1"/>
      </contour>
      <contour>
        <pt x="706" y="1378" on="1"/>
        <pt x="706" y="1490" on="1"/>
        <pt x="783" y="1495" on="0"/>
        <pt x="842" y="1524" on="0"/>
        <pt x="842" y="1562" on="1"/>
        <pt x="842" y="1602" on="0"/>
        <pt x="750" y="1639" on="0"/>
        <pt x="679" y="1639" on="1"/>
        <pt x="684" y="1713" on="1"/>
        <pt x="800" y="1713" on="0"/>
        <pt x="936" y="1632" on="0"/>
        <pt x="936" y="1565" on="1"/>
        <pt x="936" y="1502" on="0"/>
        <pt x="853" y="1437" on="0"/>
        <pt x="787" y="1430" on="1"/>
        <pt x="787" y="1378" on="1"/>
      </contour>
    </TTGlyph>
    <TTGlyph name="circumflextildecomb" xMin="103" yMin="1252" xMax="744" yMax="1712">
      <contour>
        <pt x="744" y="1258" on="1"/>
        <pt x="742" y="1252" on="1"/>
        <pt x="623" y="1252" on="1"/>
        <pt x="422" y="1424" on="1"/>
        <pt x="223" y="1252" on="1"/>
        <pt x="105" y="1252" on="1"/>
        <pt x="103" y="1258" on="1"/>
        <pt x="375" y="1485" on="1"/>
        <pt x="471" y="1485" on="1"/>
      </contour>
      <contour>
        <pt x="683" y="1694" on="1"/>
        <pt x="683" y="1631" on="0"/>
        <pt x="598" y="1546" on="0"/>
        <pt x="538" y="1546" on="1"/>
        <pt x="484" y="1546" on="0"/>
        <pt x="368" y="1634" on="0"/>
        <pt x="329" y="1634" on="1"/>
        <pt x="295" y="1634" on="0"/>
        <pt x="249" y="1578" on="0"/>
        <pt x="249" y="1540" on="1"/>
        <pt x="185" y="1553" on="1"/>
        <pt x="185" y="1615" on="0"/>
        <pt x="269" y="1712" on="0"/>
        <pt x="329" y="1712" on="1"/>
        <pt x="377" y="1712" on="0"/>
        <pt x="499" y="1624" on="0"/>
        <pt x="538" y="1624" on="1"/>
        <pt x="572" y="1624" on="0"/>
        <pt x="619" y="1671" on="0"/>
        <pt x="619" y="1709" on="1"/>
      </contour>
    </TTGlyph>
    <TTGlyph name="colon" xMin="131" yMin="0" xMax="268" yMax="1080">
      <component glyphName="period" x="-14" y="0" flags="0x4"/>
      <component glyphName="period" x="-14" y="916" flags="0x4"/>
    </TTGlyph>
    <TTGlyph name="comma" xMin="60" yMin="-281" xMax="271" yMax="188">
      <contour>
        <pt x="271" y="48" on="1"/>
        <pt x="271" y="-44" on="0"/>
        <pt x="196" y="-220" on="0"/>
        <pt x="131" y="-281" on="1"/>
        <pt x="60" y="-229" on="1"/>
        <pt x="107" y="-163" on="0"/>
        <pt x="152" y="-33" on="0"/>
        <pt x="152" y="46" on="1"/>
        <pt x="152" y="188" on="1"/>
        <pt x="271" y="188" on="1"/>
      </contour>
    </TTGlyph>
    <TTGlyph name="commaaccent" xMin="79" yMin="-237" xMax="275" yMax="176">
      <contour>
        <pt x="275" y="70" on="1"/>
        <pt x="275" y="-17" on="0"/>
        <pt x="209" y="-181" on="0"/>
        <pt x="150" y="-237" on="1"/>
        <pt x="79" y="-186" on="1"/>
        <pt x="120" y="-125" on="0"/>
        <pt x="159" y="-5" on="0"/>
        <pt x="159" y="67" on="1"/>
        <pt x="159" y="176" on="1"/>
        <pt x="275" y="176" on="1"/>
      </contour>
    </TTGlyph>
    <TTGlyph name="commaaccentrotate" xMin="153" yMin="1206" xMax="312" yMax="1559">
      <contour>
        <pt x="153" y="1343" on="1"/>
        <pt x="241" y="1559" on="1"/>
        <pt x="312" y="1559" on="1"/>
        <pt x="273" y="1341" on="1"/>
        <pt x="273" y="1206" on="1"/>
        <pt x="153" y="1206" on="1"/>
      </contour>
    </TTGlyph>
    <TTGlyph name="copyright" xMin="92" yMin="-21" xMax="1511" yMax="1476">
      <contour>
        <pt x="1098" y="596" on="1"/>
        <pt x="1100" y="590" on="1"/>
        <pt x="1104" y="440" on="0"/>
        <pt x="939" y="282" on="0"/>
        <pt x="791" y="282" on="1"/>
        <pt x="640" y="282" on="0"/>
        <pt x="458" y="495" on="0"/>
        <pt x="458" y="669" on="1"/>
        <pt x="458" y="788" on="1"/>
        <pt x="458" y="960" on="0"/>
        <pt x="640" y="1175" on="0"/>
        <pt x="791" y="1175" on="1"/>
        <pt x="939" y="1175" on="0"/>
        <pt x="1105" y="1017" on="0"/>
        <pt x="1101" y="868" on="1"/>
        <pt x="1099" y="862" on="1"/>
        <pt x="1008" y="862" on="1"/>
        <pt x="1008" y="975" on="0"/>
        <pt x="897" y="1085" on="0"/>
        <pt x="791" y="1085" on="1"/>
        <pt x="681" y="1085" on="0"/>
        <pt x="558" y="918" on="0"/>
        <pt x="558" y="789" on="1"/>
        <pt x="558" y="669" on="1"/>
        <pt x="558" y="537" on="0"/>
        <pt x="681" y="372" on="0"/>
        <pt x="791" y="372" on="1"/>
        <pt x="898" y="372" on="0"/>
        <pt x="1007" y="480" on="0"/>
        <pt x="1007" y="596" on="1"/>
      </contour>
      <contour>
        <pt x="177" y="729" on="1"/>
        <pt x="177" y="450" on="0"/>
        <pt x="542" y="65" on="0"/>
        <pt x="802" y="65" on="1"/>
        <pt x="1059" y="65" on="0"/>
        <pt x="1425" y="450" on="0"/>
        <pt x="1425" y="729" on="1"/>
        <pt x="1425" y="1006" on="0"/>
        <pt x="1060" y="1389" on="0"/>
        <pt x="802" y="1389" on="1"/>
        <pt x="542" y="1389" on="0"/>
        <pt x="177" y="1006" on="0"/>
      </contour>
      <contour>
        <pt x="92" y="729" on="1"/>
        <pt x="92" y="1044" on="0"/>
        <pt x="506" y="1476" on="0"/>
        <pt x="802" y="1476" on="1"/>
        <pt x="1097" y="1476" on="0"/>
        <pt x="1511" y="1044" on="0"/>
        <pt x="1511" y="729" on="1"/>
        <pt x="1511" y="413" on="0"/>
        <pt x="1096" y="-21" on="0"/>
        <pt x="802" y="-21" on="1"/>
        <pt x="506" y="-21" on="0"/>
        <pt x="92" y="413" on="0"/>
      </contour>
    </TTGlyph>
    <TTGlyph name="crossbar" xMin="150" yMin="686" xMax="762" yMax="788">
      <contour>
        <pt x="762" y="686" on="1"/>
        <pt x="150" y="686" on="1"/>
        <pt x="150" y="788" on="1"/>
        <pt x="762" y="788" on="1"/>
      </contour>
    </TTGlyph>
    <TTGlyph name="currency" xMin="94" yMin="-27" xMax="1360" yMax="1265">
      <contour>
        <pt x="1116" y="133" on="1"/>
        <pt x="1035" y="59" on="0"/>
        <pt x="834" y="-20" on="0"/>
        <pt x="724" y="-20" on="1"/>
        <pt x="613" y="-20" on="0"/>
        <pt x="413" y="59" on="0"/>
        <pt x="334" y="132" on="1"/>
        <pt x="179" y="-26" on="1"/>
        <pt x="94" y="60" on="1"/>
        <pt x="253" y="221" on="1"/>
        <pt x="193" y="302" on="0"/>
        <pt x="129" y="498" on="0"/>
        <pt x="129" y="608" on="1"/>
        <pt x="129" y="720" on="0"/>
        <pt x="198" y="924" on="0"/>
        <pt x="262" y="1006" on="1"/>
        <pt x="94" y="1177" on="1"/>
        <pt x="179" y="1264" on="1"/>
        <pt x="345" y="1094" on="1"/>
        <pt x="423" y="1161" on="0"/>
        <pt x="617" y="1234" on="0"/>
        <pt x="724" y="1234" on="1"/>
        <pt x="830" y="1234" on="0"/>
        <pt x="1025" y="1160" on="0"/>
        <pt x="1104" y="1093" on="1"/>
        <pt x="1273" y="1265" on="1"/>
        <pt x="1360" y="1177" on="1"/>
        <pt x="1189" y="1002" on="1"/>
        <pt x="1251" y="920" on="0"/>
        <pt x="1319" y="719" on="0"/>
        <pt x="1319" y="608" on="1"/>
        <pt x="1319" y="500" on="0"/>
        <pt x="1255" y="303" on="0"/>
        <pt x="1197" y="224" on="1"/>
        <pt x="1360" y="60" on="1"/>
        <pt x="1273" y="-27" on="1"/>
      </contour>
      <contour>
        <pt x="242" y="608" on="1"/>
        <pt x="242" y="393" on="0"/>
        <pt x="524" y="91" on="0"/>
        <pt x="724" y="91" on="1"/>
        <pt x="922" y="91" on="0"/>
        <pt x="1205" y="393" on="0"/>
        <pt x="1205" y="608" on="1"/>
        <pt x="1205" y="821" on="0"/>
        <pt x="922" y="1122" on="0"/>
        <pt x="724" y="1122" on="1"/>
        <pt x="524" y="1122" on="0"/>
        <pt x="242" y="821" on="0"/>
      </contour>
    </TTGlyph>
    <TTGlyph name="cyrillicbreve" xMin="120" yMin="1198" xMax="694" yMax="1456">
      <component glyphName="breve" x="0" y="0" flags="0x204"/>
    </TTGlyph>
    <TTGlyph name="cyrillichook" xMin="-39" yMin="-379" xMax="344" yMax="69">
      <contour>
        <pt x="344" y="69" on="1"/>
        <pt x="344" y="-73" on="1"/>
        <pt x="344" y="-219" on="0"/>
        <pt x="200" y="-379" on="0"/>
        <pt x="72" y="-379" on="1"/>
        <pt x="43" y="-379" on="0"/>
        <pt x="-7" y="-369" on="0"/>
        <pt x="-39" y="-360" on="1"/>
        <pt x="-26" y="-257" on="1"/>
        <pt x="-28" y="-256" on="0"/>
        <pt x="55" y="-272" on="0"/>
        <pt x="72" y="-272" on="1"/>
        <pt x="145" y="-272" on="0"/>
        <pt x="225" y="-168" on="0"/>
        <pt x="225" y="-73" on="1"/>
        <pt x="225" y="69" on="1"/>
      </contour>
    </TTGlyph>
    <TTGlyph name="cyrillichookleft" xMin="7" yMin="-383" xMax="351" yMax="42">
      <contour>
        <pt x="185" y="42" on="1"/>
        <pt x="262" y="-9" on="0"/>
        <pt x="351" y="-145" on="0"/>
        <pt x="351" y="-214" on="1"/>
        <pt x="351" y="-294" on="0"/>
        <pt x="247" y="-383" on="0"/>
        <pt x="168" y="-383" on="1"/>
        <pt x="114" y="-383" on="0"/>
        <pt x="37" y="-358" on="0"/>
        <pt x="7" y="-339" on="1"/>
        <pt x="31" y="-256" on="1"/>
        <pt x="56" y="-269" on="0"/>
        <pt x="110" y="-288" on="0"/>
        <pt x="145" y="-288" on="1"/>
        <pt x="199" y="-288" on="0"/>
        <pt x="243" y="-234" on="0"/>
        <pt x="243" y="-203" on="1"/>
        <pt x="243" y="-149" on="0"/>
        <pt x="176" y="-57" on="0"/>
        <pt x="115" y="0" on="1"/>
      </contour>
    </TTGlyph>
    <TTGlyph name="cyrillictic" xMin="131" yMin="-355" xMax="251" yMax="79">
      <contour>
        <pt x="251" y="-355" on="1"/>
        <pt x="131" y="-355" on="1"/>
        <pt x="131" y="79" on="1"/>
        <pt x="251" y="79" on="1"/>
      </contour>
    </TTGlyph>
    <TTGlyph name="d" xMin="97" yMin="-21" xMax="1129" yMax="1560">
      <contour>
        <pt x="849" y="156" on="1"/>
        <pt x="795" y="71" on="0"/>
        <pt x="625" y="-21" on="0"/>
        <pt x="510" y="-21" on="1"/>
        <pt x="316" y="-21" on="0"/>
        <pt x="97" y="269" on="0"/>
        <pt x="97" y="511" on="1"/>
        <pt x="97" y="532" on="1"/>
        <pt x="97" y="791" on="0"/>
        <pt x="316" y="1102" on="0"/>
        <pt x="512" y="1102" on="1"/>
        <pt x="625" y="1102" on="0"/>
        <pt x="791" y="1007" on="0"/>
        <pt x="846" y="919" on="1"/>
        <pt x="846" y="1458" on="1"/>
        <pt x="683" y="1471" on="1"/>
        <pt x="683" y="1560" on="1"/>
        <pt x="846" y="1560" on="1"/>
        <pt x="966" y="1560" on="1"/>
        <pt x="966" y="101" on="1"/>
        <pt x="1129" y="88" on="1"/>
        <pt x="1129" y="0" on="1"/>
        <pt x="859" y="0" on="1"/>
      </contour>
      <contour>
        <pt x="218" y="511" on="1"/>
        <pt x="218" y="315" on="0"/>
        <pt x="375" y="83" on="0"/>
        <pt x="533" y="83" on="1"/>
        <pt x="648" y="83" on="0"/>
        <pt x="803" y="187" on="0"/>
        <pt x="846" y="278" on="1"/>
        <pt x="846" y="790" on="1"/>
        <pt x="806" y="882" on="0"/>
        <pt x="655" y="998" on="0"/>
        <pt x="535" y="998" on="1"/>
        <pt x="377" y="998" on="0"/>
        <pt x="218" y="739" on="0"/>
        <pt x="218" y="532" on="1"/>
      </contour>
    </TTGlyph>
    <TTGlyph name="dagger" xMin="63" yMin="0" xMax="1053" yMax="1456">
      <contour>
        <pt x="1053" y="977" on="1"/>
        <pt x="620" y="977" on="1"/>
        <pt x="620" y="0" on="1"/>
        <pt x="500" y="0" on="1"/>
        <pt x="500" y="977" on="1"/>
        <pt x="63" y="977" on="1"/>
        <pt x="63" y="1082" on="1"/>
        <pt x="500" y="1082" on="1"/>
        <pt x="500" y="1456" on="1"/>
        <pt x="620" y="1456" on="1"/>
        <pt x="620" y="1082" on="1"/>
        <pt x="1053" y="1082" on="1"/>
      </contour>
    </TTGlyph>
    <TTGlyph name="daggerdbl" xMin="71" yMin="-416" xMax="1060" yMax="1456">
      <contour>
        <pt x="1060" y="0" on="1"/>
        <pt x="616" y="0" on="1"/>
        <pt x="616" y="-416" on="1"/>
        <pt x="496" y="-416" on="1"/>
        <pt x="496" y="0" on="1"/>
        <pt x="71" y="0" on="1"/>
        <pt x="71" y="101" on="1"/>
        <pt x="496" y="101" on="1"/>
        <pt x="496" y="979" on="1"/>
        <pt x="71" y="979" on="1"/>
        <pt x="71" y="1082" on="1"/>
        <pt x="496" y="1082" on="1"/>
        <pt x="496" y="1456" on="1"/>
        <pt x="616" y="1456" on="1"/>
        <pt x="616" y="1082" on="1"/>
        <pt x="1060" y="1082" on="1"/>
        <pt x="1060" y="979" on="1"/>
        <pt x="616" y="979" on="1"/>
        <pt x="616" y="101" on="1"/>
        <pt x="1060" y="101" on="1"/>
      </contour>
    </TTGlyph>
    <TTGlyph name="dasiaoxia" xMin="145" yMin="1145" xMax="627" yMax="1488">
      <contour>
        <pt x="365" y="1159" on="1"/>
        <pt x="499" y="1477" on="1"/>
        <pt x="627" y="1477" on="1"/>
        <pt x="627" y="1456" on="1"/>
        <pt x="436" y="1146" on="1"/>
        <pt x="365" y="1146" on="1"/>
      </contour>
      <contour>
        <pt x="145" y="1240" on="1"/>
        <pt x="145" y="1319" on="0"/>
        <pt x="228" y="1452" on="0"/>
        <pt x="302" y="1488" on="1"/>
        <pt x="352" y="1438" on="1"/>
        <pt x="303" y="1399" on="0"/>
        <pt x="258" y="1301" on="0"/>
        <pt x="258" y="1234" on="1"/>
        <pt x="258" y="1145" on="1"/>
        <pt x="145" y="1145" on="1"/>
      </contour>
    </TTGlyph>
    <TTGlyph name="dcaron" xMin="97" yMin="-21" xMax="1260" yMax="1560">
      <component glyphName="d" x="0" y="0" flags="0x4"/>
      <component glyphName="commaaccent" x="985" y="1383" flags="0x4"/>
    </TTGlyph>
    <TTGlyph name="dcroat" xMin="97" yMin="-21" xMax="1175" yMax="1560">
      <contour>
        <pt x="849" y="156" on="1"/>
        <pt x="795" y="71" on="0"/>
        <pt x="625" y="-21" on="0"/>
        <pt x="510" y="-21" on="1"/>
        <pt x="316" y="-21" on="0"/>
        <pt x="97" y="269" on="0"/>
        <pt x="97" y="511" on="1"/>
        <pt x="97" y="532" on="1"/>
        <pt x="97" y="791" on="0"/>
        <pt x="316" y="1102" on="0"/>
        <pt x="512" y="1102" on="1"/>
        <pt x="625" y="1102" on="0"/>
        <pt x="791" y="1007" on="0"/>
        <pt x="846" y="919" on="1"/>
        <pt x="846" y="1209" on="1"/>
        <pt x="563" y="1209" on="1"/>
        <pt x="563" y="1311" on="1"/>
        <pt x="846" y="1311" on="1"/>
        <pt x="846" y="1458" on="1"/>
        <pt x="683" y="1471" on="1"/>
        <pt x="683" y="1560" on="1"/>
        <pt x="966" y="1560" on="1"/>
        <pt x="966" y="1311" on="1"/>
        <pt x="1175" y="1311" on="1"/>
        <pt x="1175" y="1209" on="1"/>
        <pt x="966" y="1209" on="1"/>
        <pt x="966" y="101" on="1"/>
        <pt x="1129" y="88" on="1"/>
        <pt x="1129" y="0" on="1"/>
        <pt x="859" y="0" on="1"/>
      </contour>
      <contour>
        <pt x="218" y="511" on="1"/>
        <pt x="218" y="315" on="0"/>
        <pt x="375" y="83" on="0"/>
        <pt x="533" y="83" on="1"/>
        <pt x="648" y="83" on="0"/>
        <pt x="803" y="187" on="0"/>
        <pt x="846" y="278" on="1"/>
        <pt x="846" y="790" on="1"/>
        <pt x="806" y="882" on="0"/>
        <pt x="655" y="998" on="0"/>
        <pt x="535" y="998" on="1"/>
        <pt x="377" y="998" on="0"/>
        <pt x="218" y="739" on="0"/>
        <pt x="218" y="532" on="1"/>
      </contour>
    </TTGlyph>
    <TTGlyph name="degree" xMin="124" yMin="980" xMax="610" yMax="1477">
      <contour>
        <pt x="124" y="1227" on="1"/>
        <pt x="124" y="1329" on="0"/>
        <pt x="268" y="1477" on="0"/>
        <pt x="369" y="1477" on="1"/>
        <pt x="467" y="1477" on="0"/>
        <pt x="610" y="1329" on="0"/>
        <pt x="610" y="1227" on="1"/>
        <pt x="610" y="1123" on="0"/>
        <pt x="468" y="980" on="0"/>
        <pt x="369" y="980" on="1"/>
        <pt x="267" y="980" on="0"/>
        <pt x="124" y="1123" on="0"/>
      </contour>
      <contour>
        <pt x="213" y="1227" on="1"/>
        <pt x="213" y="1160" on="0"/>
        <pt x="303" y="1071" on="0"/>
        <pt x="369" y="1071" on="1"/>
        <pt x="434" y="1071" on="0"/>
        <pt x="521" y="1159" on="0"/>
        <pt x="521" y="1227" on="1"/>
        <pt x="521" y="1295" on="0"/>
        <pt x="434" y="1386" on="0"/>
        <pt x="369" y="1386" on="1"/>
        <pt x="303" y="1386" on="0"/>
        <pt x="213" y="1294" on="0"/>
      </contour>
    </TTGlyph>
</ttFont>
